<svg id="Capa_1" enable-background="new 0 0 512 512" height="512" viewBox="0 0 512 512" width="512" xmlns="http://www.w3.org/2000/svg"><g><g><g><g><g><g><g><g><g><circle cx="256" cy="256" fill="#ff6c52" r="256"/></g></g></g></g></g></g></g></g><path d="m512 256c0-10.338-.613-20.532-1.804-30.549l-106.006-106.005-36.196 42.725-77.484-77.485-209.554 274.436 151.84 151.84c7.642.687 15.382 1.038 23.204 1.038 141.385 0 256-114.615 256-256z" fill="#f92814"/><g><path d="m412.496 345.967h-312.992v-205.847c0-16.521 13.393-29.914 29.914-29.914h253.165c16.521 0 29.914 13.393 29.914 29.914v205.847z" fill="#636978"/></g><g><path d="m412.496 140.12c0-16.521-13.393-29.914-29.914-29.914h-126.507v235.761h156.421z" fill="#414952"/></g><g><path d="m122.877 136.289h266.247v196.128h-266.247z" fill="#fff"/></g><g><path d="m256.075 136.289h133.048v196.128h-133.048z" fill="#e9edf5"/></g><g><path d="m413.476 365.952h-314.952c-14.37 0-26.019-11.649-26.019-26.019v-20.727h366.989v20.727c0 14.37-11.648 26.019-26.018 26.019z" fill="#414952"/></g><g><path d="m256.075 319.207v46.746h157.4c14.37 0 26.019-11.649 26.019-26.019v-20.727z" fill="#23272b"/></g><g><circle cx="189.868" cy="189.709" fill="#7584f2" r="33.568"/></g><g><path d="m189.868 156.141c-.004 0-.009 0-.013 0v67.135h.013c18.539 0 33.568-15.029 33.568-33.568 0-18.538-15.029-33.567-33.568-33.567z" fill="#606aea"/></g><g><path d="m244.927 305.87h-110.117v-47.757c0-15.712 12.737-28.449 28.449-28.449h53.22c15.712 0 28.449 12.737 28.449 28.449v47.757z" fill="#7584f2"/></g><g><path d="m244.927 258.113c0-15.712-12.737-28.449-28.449-28.449h-26.623v76.206h55.072z" fill="#606aea"/></g><g><circle cx="322.562" cy="189.709" fill="#64e1dc" r="33.568"/></g><g><path d="m322.562 156.141c-.261 0-.519.014-.779.02v67.096c.26.006.517.02.779.02 18.539 0 33.568-15.029 33.568-33.568-.001-18.539-15.029-33.568-33.568-33.568z" fill="#00c8c8"/></g><g><path d="m377.62 305.87h-110.117v-47.757c0-15.712 12.737-28.449 28.449-28.449h53.22c15.712 0 28.449 12.737 28.449 28.449v47.757z" fill="#64e1dc"/></g><g><path d="m377.621 258.113c0-15.712-12.737-28.449-28.449-28.449h-27.388v76.206h55.837z" fill="#00c8c8"/></g><g><path d="m221.49 84.686h69.02v69.02h-69.02z" fill="#555a66"/></g><g><path d="m256.075 84.686h34.435v69.02h-34.435z" fill="#333940"/></g><g><path d="m280.869 119.196c0 13.735-11.059 24.869-24.793 24.869s-24.944-11.134-24.944-24.869 11.209-24.869 24.944-24.869 24.793 11.134 24.793 24.869z" fill="#707789"/></g><g><path d="m280.869 119.196c0-13.694-11.115-24.801-24.793-24.866v49.731c13.678-.065 24.793-11.171 24.793-24.865z" fill="#555a66"/></g><g><path d="m271.534 119.196c0 8.579-6.879 15.534-15.458 15.534s-15.609-6.955-15.609-15.534 7.03-15.534 15.609-15.534 15.458 6.955 15.458 15.534z" fill="#414952"/></g><g><path d="m271.533 119.196c0-8.538-6.935-15.462-15.458-15.527v31.055c8.523-.066 15.458-6.99 15.458-15.528z" fill="#23272b"/></g><g><circle cx="249.413" cy="113.855" fill="#fff" r="5.591"/></g></g></svg>