<svg xmlns="http://www.w3.org/2000/svg" xmlns:xlink="http://www.w3.org/1999/xlink" width="32" height="32" class="a8c37x1j ms05siws hwsy1cff b7h9ocf4 aaxa7vy3" viewBox="0 0 28 28"><path fill="#1877F2" d="M25.21 10.855c-1.152-5.79-6.543-9.57-12.377-8.741-2.948.42-5.443 1.714-7.492 3.882C2 9.534 1.051 14.984 3.011 19.44c2.407 5.472 8.062 8.447 13.91 7.325v-2.65l-.144.03c-1.753.412-3.495.374-5.215-.163-6.303-1.961-9.018-9.393-5.35-14.898 2.3-3.454 5.642-5.021 9.762-4.328 5.868.987 8.722 7.64 5.598 12.69-.025.04-.059.072-.106.126-.056-.133-.102-.235-.145-.34-.764-1.883-1.528-3.768-2.296-5.651a2.131 2.131 0 0 0-.24-.462c-.465-.627-1.103-.875-1.869-.786-.763.088-1.333.45-1.63 1.184-.729 1.795-1.454 3.59-2.182 5.387-.03.075-.068.148-.12.262-.06-.145-.103-.24-.14-.335-.837-2.062-1.736-4.432-2.563-6.498H7.496l.013.035c1.173 2.895 2.406 6.098 3.581 8.993.334.823 1.052 1.31 1.904 1.307.856-.003 1.564-.493 1.898-1.316l1.62-4.005c.202-.5.405-.998.633-1.556l.923 2.273c.453 1.117.903 2.234 1.36 3.348a2 2 0 0 0 2.378 1.177c.59-.156 1.054-.507 1.41-.988 1.933-2.623 2.627-5.555 1.993-8.747"/></svg>