<?xml version="1.0" standalone="no"?>
<!DOCTYPE svg PUBLIC "-//W3C//DTD SVG 20010904//EN"
 "http://www.w3.org/TR/2001/REC-SVG-20010904/DTD/svg10.dtd">
<svg version="1.0" xmlns="http://www.w3.org/2000/svg"
 width="169.000000pt" height="197.000000pt" viewBox="0 0 169.000000 197.000000"
 preserveAspectRatio="xMidYMid meet">
<metadata>
Created by potrace 1.16, written by Peter Selinger 2001-2019
</metadata>
<g transform="translate(0.000000,197.000000) scale(0.100000,-0.100000)"
fill="#000000" stroke="none">
<path d="M16 1954 c-12 -12 -16 -38 -16 -113 0 -82 3 -101 18 -114 17 -15 56
-17 358 -17 407 0 464 -8 631 -90 89 -43 117 -63 192 -138 74 -73 95 -102 135
-182 61 -124 79 -213 73 -350 -3 -78 -12 -126 -32 -185 -24 -71 -83 -191 -90
-183 -1 2 2 32 7 68 20 135 -12 320 -76 448 -70 139 -201 258 -343 312 -134
51 -215 60 -544 60 -250 0 -309 -3 -318 -14 -8 -9 -11 -50 -9 -117 3 -99 4
-104 28 -116 18 -9 98 -13 295 -13 300 0 356 -8 457 -62 329 -175 320 -672
-15 -829 -94 -44 -182 -59 -344 -59 l-143 0 0 338 c0 276 -3 342 -14 358 -13
17 -27 19 -124 19 -78 0 -114 -4 -125 -14 -15 -12 -17 -58 -17 -471 0 -430 1
-458 18 -473 17 -15 56 -17 353 -17 184 0 375 5 424 11 420 52 749 326 855
714 28 102 38 321 20 433 -70 437 -400 745 -855 801 -50 6 -245 11 -437 11
-302 0 -349 -2 -362 -16z"/>
</g>
</svg>
