<?xml version="1.0" encoding="UTF-8"?>
<!-- Generated by Pixelmator Pro 2.3.8 -->
<svg width="45" height="45" viewBox="0 0 45 45" xmlns="http://www.w3.org/2000/svg" xmlns:xlink="http://www.w3.org/1999/xlink">
    <linearGradient id="linearGradient1" x1="31.4141" y1="44.9722" x2="5.91406" y2="3.47217" gradientUnits="userSpaceOnUse">
        <stop offset="1e-05" stop-color="#5c9aff" stop-opacity="1"/>
        <stop offset="1" stop-color="#0061ff" stop-opacity="1"/>
    </linearGradient>
    <path id="Path" fill="url(#linearGradient1)" stroke="none" d="M 22.414101 0.972168 C 18.062901 0.972168 13.8094 2.26244 10.1915 4.679829 C 6.57363 7.097221 3.75387 10.533199 2.08874 14.553101 C 0.423611 18.573099 -0.012084 22.996599 0.83679 27.2642 C 1.68566 31.5317 3.78098 35.451801 6.85773 38.5285 C 9.93448 41.605301 13.8545 43.7006 18.122101 44.5494 C 22.3897 45.3983 26.813101 44.962601 30.833099 43.297501 C 34.8531 41.632401 38.289001 38.812599 40.706402 35.194698 C 43.123798 31.576799 44.414101 27.3234 44.414101 22.9722 C 44.414101 17.1374 42.096199 11.541599 37.970402 7.41581 C 33.844601 3.290009 28.2488 0.972168 22.414101 0.972168 Z M 10.52 25.7882 C 10.52 26.2416 10.3398 26.6765 10.0192 26.9972 C 9.69852 27.3179 9.26363 27.497999 8.81015 27.497999 C 8.35667 27.497999 7.92177 27.3179 7.60112 26.9972 C 7.28046 26.6765 7.10032 26.2416 7.10032 25.7882 L 7.10032 20.1562 C 7.10032 19.7027 7.28046 19.267799 7.60112 18.9471 C 7.92177 18.626499 8.35667 18.446301 8.81015 18.446301 C 9.26363 18.446301 9.69852 18.626499 10.0192 18.9471 C 10.3398 19.267799 10.52 19.7027 10.52 20.1562 L 10.52 25.7882 Z M 16.0851 31.5469 C 16.0851 32.000599 15.9049 32.435699 15.5841 32.7565 C 15.2632 33.0774 14.8281 33.257599 14.3744 33.257599 C 13.9207 33.257599 13.4856 33.0774 13.1647 32.7565 C 12.8439 32.435699 12.6637 32.000599 12.6637 31.5469 L 12.6637 14.3992 C 12.6637 13.945499 12.8439 13.510399 13.1647 13.189499 C 13.4856 12.868698 13.9207 12.688499 14.3744 12.688499 C 14.8281 12.688499 15.2632 12.868698 15.5841 13.189499 C 15.9049 13.510399 16.0851 13.945499 16.0851 14.3992 L 16.0851 31.5469 Z M 21.6485 36.559399 C 21.6485 37.012798 21.4683 37.447701 21.147699 37.768398 C 20.827 38.0891 20.392099 38.269199 19.938601 38.269199 C 19.4851 38.269199 19.0502 38.0891 18.729601 37.768398 C 18.408899 37.447701 18.2288 37.012798 18.2288 36.559399 L 18.2288 9.386719 C 18.2288 8.93325 18.408899 8.498352 18.729601 8.177689 C 19.0502 7.857029 19.4851 7.676891 19.938601 7.676891 C 20.392099 7.676891 20.827 7.857029 21.147699 8.177689 C 21.4683 8.498352 21.6485 8.93325 21.6485 9.386719 L 21.6485 36.559399 Z M 27.2136 31.341 C 27.2136 31.794399 27.0334 32.229301 26.712799 32.549999 C 26.392099 32.870701 25.957199 33.0508 25.5037 33.0508 C 25.050301 33.0508 24.6154 32.870701 24.294701 32.549999 C 23.9741 32.229301 23.7939 31.794399 23.7939 31.341 L 23.7939 14.605099 C 23.7939 14.1516 23.9741 13.7167 24.294701 13.396099 C 24.6154 13.075401 25.050301 12.895302 25.5037 12.895302 C 25.957199 12.895302 26.392099 13.075401 26.712799 13.396099 C 27.0334 13.7167 27.2136 14.1516 27.2136 14.605099 L 27.2136 31.341 Z M 32.778702 33.938702 C 32.778702 34.163399 32.734402 34.385799 32.648499 34.593399 C 32.5625 34.8009 32.436501 34.989498 32.277699 35.148399 C 32.118801 35.307201 31.930201 35.433201 31.722601 35.519199 C 31.5151 35.605202 31.292601 35.649399 31.068001 35.649399 C 30.8433 35.649399 30.620899 35.605202 30.4133 35.519199 C 30.205799 35.433201 30.0172 35.307201 29.858299 35.148399 C 29.699499 34.989498 29.5735 34.8009 29.487499 34.593399 C 29.401501 34.385799 29.3573 34.163399 29.3573 33.938702 L 29.3573 12.007401 C 29.3573 11.7827 29.401501 11.560299 29.487499 11.352699 C 29.5735 11.1451 29.699499 10.9566 29.858299 10.797699 C 30.0172 10.638802 30.205799 10.512802 30.4133 10.426899 C 30.620899 10.3409 30.8433 10.2966 31.068001 10.2966 C 31.292601 10.2966 31.5151 10.3409 31.722601 10.426899 C 31.930201 10.512802 32.118801 10.638802 32.277699 10.797699 C 32.436501 10.9566 32.5625 11.1451 32.648499 11.352699 C 32.734402 11.560299 32.778702 11.7827 32.778702 12.007401 L 32.778702 33.938702 Z M 38.341999 25.559401 C 38.341999 26.0128 38.1619 26.447701 37.841202 26.7684 C 37.520599 27.0891 37.085701 27.269199 36.632198 27.269199 C 36.178699 27.269199 35.743801 27.0891 35.423199 26.7684 C 35.102501 26.447701 34.922401 26.0128 34.922401 25.559401 L 34.922401 20.3867 C 34.922401 19.933201 35.102501 19.498301 35.423199 19.1777 C 35.743801 18.857 36.178699 18.676901 36.632198 18.676901 C 37.085701 18.676901 37.520599 18.857 37.841202 19.1777 C 38.1619 19.498301 38.341999 19.933201 38.341999 20.3867 L 38.341999 25.559401 Z"/>
</svg>
