<?xml version="1.0" encoding="UTF-8" standalone="no"?> <!-- Created with Vectornator for iOS (http://vectornator.io/) --><!DOCTYPE svg PUBLIC "-//W3C//DTD SVG 1.1//EN" "http://www.w3.org/Graphics/SVG/1.1/DTD/svg11.dtd">
<svg style="fill-rule:evenodd;clip-rule:evenodd;stroke-linecap:round;stroke-linejoin:round;" xmlns:vectornator="http://vectornator.io" xmlns:xlink="http://www.w3.org/1999/xlink" xmlns="http://www.w3.org/2000/svg" xml:space="preserve" version="1.1" viewBox="0 0 16 16">
<metadata>
<vectornator:setting key="DynamicGuides" value="1"/>
<vectornator:setting key="Units" value="Pixels"/>
<vectornator:setting key="GuidesVisible" value="1"/>
<vectornator:setting key="RulersVisible" value="1"/>
<vectornator:setting key="SnapToGuides" value="1"/>
<vectornator:setting key="GridSpacing" value="36"/>
</metadata>
<defs/>
<g id="Page-1" vectornator:layerName="Page-1">
<g opacity="1">
<path d="M0+0L16+0L16+0L16+16L16+16L0+16L0+16L0+0L0+0Z" opacity="1" fill="none"/>
<path d="M13.4423+16C14.2865+16+14.9238+15.769+15.3543+15.3071C15.7848+14.8452+16+14.1614+16+13.2558L16+2.74416C16+1.83856+15.7848+1.1548+15.3543+0.692877C14.9238+0.230959+14.2865+0+13.4423+0L2.55765+0C1.71349+0+1.07617+0.22944+0.645702+0.688319C0.215234+1.1472+0+1.83248+0+2.74416L0+13.2558C0+14.1675+0.215234+14.8528+0.645702+15.3117C1.07617+15.7706+1.71349+16+2.55765+16L13.4423+16ZM13.4927+14.441L2.49895+14.441C2.15793+14.441+1.89658+14.3438+1.71488+14.1493C1.53319+13.9548+1.44235+13.6631+1.44235+13.2741L1.44235+5.25128C1.44235+4.8623+1.53319+4.57056+1.71488+4.37607C1.89658+4.18158+2.15793+4.08433+2.49895+4.08433L13.4927+4.08433C13.8337+4.08433+14.0964+4.18158+14.2809+4.37607C14.4654+4.57056+14.5577+4.8623+14.5577+5.25128L14.5577+13.2741C14.5577+13.6631+14.4654+13.9548+14.2809+14.1493C14.0964+14.3438+13.8337+14.441+13.4927+14.441Z" opacity="1" fill="#000000"/>
<path d="M11.7131+6.22773L11.7806+6.2981C12.0731+6.60304+12.0731+7.09563+11.7806+7.40056L7.59494+11.7713C7.30239+12.0762+6.82982+12.0762+6.53727+11.7713L4.21941+9.35527C3.92686+9.05034+3.92686+8.55775+4.21941+8.25282L4.28692+8.18245C4.57947+7.87751+5.05204+7.87751+5.34459+8.18245L7.06985+9.98078L10.6554+6.23555C10.9405+5.9228+11.4205+5.9228+11.7131+6.22773L11.7131+6.22773Z" opacity="1" fill="#000000"/>
</g>
</g>
</svg>
