<?xml version="1.0" encoding="UTF-8"?>
<svg width="16px" height="16px" viewBox="0 0 16 16" version="1.1" xmlns="http://www.w3.org/2000/svg" xmlns:xlink="http://www.w3.org/1999/xlink">
    <title>icon-calendar-checkmark</title>
    <g id="Page-1" stroke="none" stroke-width="1" fill="none" fill-rule="evenodd">
        <g id="Artboard" transform="translate(-17.000000, -4.000000)">
            <g id="icon-calendar-checkmark" transform="translate(17.000000, 4.000000)">
                <rect id="Rectangle" x="0" y="0" width="16" height="16"></rect>
                <path d="M13.442348,16 C14.2865129,16 14.9238295,15.7690408 15.3542977,15.3071225 C15.7847659,14.8452042 16,14.1614435 16,13.2558405 L16,2.74415954 C16,1.83855651 15.7847659,1.15479582 15.3542977,0.692877493 C14.9238295,0.230959164 14.2865129,0 13.442348,0 L2.55765199,0 C1.71348707,0 1.07617051,0.229439696 0.645702306,0.688319088 C0.215234102,1.14719848 0,1.83247863 0,2.74415954 L0,13.2558405 C0,14.1675214 0.215234102,14.8528015 0.645702306,15.3116809 C1.07617051,15.7705603 1.71348707,16 2.55765199,16 L13.442348,16 Z M13.4926625,14.4410256 L2.49895178,14.4410256 C2.15793152,14.4410256 1.89657582,14.3437797 1.7148847,14.1492877 C1.53319357,13.9547958 1.44234801,13.6630579 1.44234801,13.2740741 L1.44234801,5.25128205 C1.44234801,4.8622982 1.53319357,4.5705603 1.7148847,4.37606838 C1.89657582,4.18157645 2.15793152,4.08433048 2.49895178,4.08433048 L13.4926625,4.08433048 C13.8336827,4.08433048 14.0964361,4.18157645 14.2809224,4.37606838 C14.4654088,4.5705603 14.557652,4.8622982 14.557652,5.25128205 L14.557652,13.2740741 C14.557652,13.6630579 14.4654088,13.9547958 14.2809224,14.1492877 C14.0964361,14.3437797 13.8336827,14.4410256 13.4926625,14.4410256 Z" id="icon" fill="#1A2226" fill-rule="nonzero"></path>
                <g id="checkmark" transform="translate(3.927500, 5.418738)" fill="#1A2226">
                    <g id="Path-2" transform="translate(0.072500, 0.581262)">
                        <path d="M7.71308017,0.227733312 L7.78059072,0.29810297 C8.07313643,0.603038156 8.07313643,1.09562576 7.78059072,1.40056095 L3.59493671,5.77129861 C3.302391,6.0762338 2.82981716,6.0762338 2.53727145,5.77129861 L0.219409283,3.35527368 C-0.0731364276,3.05033849 -0.0731364276,2.55775088 0.219409283,2.2528157 L0.286919831,2.18244604 C0.579465541,1.87751085 1.05203938,1.87751085 1.34458509,2.18244604 L3.06985466,3.98078175 L6.65541491,0.235552163 C6.94045945,-0.0772018738 7.42053446,-0.0772018738 7.71308017,0.227733312 L7.71308017,0.227733312 Z" id="Path"></path>
                    </g>
                </g>
            </g>
        </g>
    </g>
</svg>