<svg xmlns="http://www.w3.org/2000/svg" xmlns:xlink="http://www.w3.org/1999/xlink" id="Layer_1" width="604" height="397" viewBox="0 0 604 397"><style>.st0{fill:#6be005}.st1{fill:#ff8e00}.st2{fill:#48c606}.st3{fill:#fff}</style><g id="XMLID_16_"><path id="XMLID_15_" d="M286.9 313.4c-1.2-12.7-1.9-25.6-1.9-38.8 0-13 .7-25.7 1.8-38.2 2-30.8 24.5-56 54.1-62 51.9-10.9 112.8-18 178.4-19.9v.1c40.9 0 74.6 30.7 79.4 70.3h.2c2 16.1 3.1 32.7 3.1 49.8 0 17-1.1 33.6-3.1 49.6h-.2c-4.8 39.6-38.5 70.3-79.4 70.3v.1c-64.2-1.9-123.8-8.7-175-19.2-31-4.7-55.1-30.4-57.4-62.1z" class="st0"/><path id="XMLID_14_" d="M353.4 179.7c1.4-14.1 2.1-28.6 2.1-43.3 0-14.5-.7-28.7-2.1-42.6-2.2-34.4-27.4-62.5-60.3-69.1C235.2 12.5 167.4 4.6 94.2 2.4v.1C48.6 2.5 11 36.7 5.6 80.9h-.2C3.2 98.8 2 117.4 2 136.4c0 18.9 1.2 37.4 3.4 55.3h.2c5.3 44.2 42.9 78.4 88.5 78.4v.1c71.6-2.1 138.1-9.7 195.1-21.4 34.7-5.1 61.6-33.7 64.2-69.1z" class="st1"/><path id="XMLID_13_" d="M289.3 248.8c34.6-5.1 61.6-33.7 64.1-69.1.3-2.6.5-5.3.7-8-4.4.9-8.8 1.7-13.2 2.6-29.6 5.9-52.2 31.2-54.1 62-.4 4.3-.7 8.7-1 13.1 1.1-.2 2.3-.4 3.5-.6z" class="st2"/><path d="M174.9 137.4c.1 1.2.1 2.8.1 4.8 0 1.9 0 3.5-.1 4.8-.2 4-1.1 7.7-2.7 11.1-1.7 3.5-3.9 6.5-6.8 9.1-2.9 2.6-6.4 4.6-10.5 6.1s-8.6 2.2-13.7 2.2c-5 0-9.6-.7-13.7-2.2-4.1-1.5-7.6-3.5-10.5-6.1-2.9-2.6-5.2-5.6-6.8-9.1-1.7-3.5-2.6-7.2-2.7-11.1-.1-1.2-.1-2.8-.1-4.8 0-1.9 0-3.5.1-4.8.1-4 .9-7.7 2.6-11.1 1.6-3.5 3.9-6.5 6.9-9.1 2.9-2.6 6.4-4.7 10.5-6.2s8.6-2.3 13.7-2.3c5 0 9.6.8 13.7 2.3 4.1 1.5 7.6 3.6 10.5 6.2 2.9 2.6 5.2 5.6 6.8 9.1s2.5 7.1 2.7 11.1zm-45.1 8.9c.2 3.1 1.4 5.6 3.4 7.4 2 1.8 4.7 2.7 8 2.7s6-.9 8-2.7c2-1.8 3.2-4.2 3.4-7.4.2-1.2.2-2.6.2-4.2s-.1-3-.2-4.2c-.2-3.1-1.4-5.6-3.4-7.4-2-1.8-4.7-2.7-8-2.7s-6 .9-8 2.7c-2 1.8-3.2 4.2-3.4 7.4-.2 1.2-.2 2.6-.2 4.2s0 3 .2 4.2z" class="st3"/><path id="XMLID_10_" d="M204.7 109.9h-15.6c-.9 0-1.7.3-2.4 1s-1 1.4-1 2.4V171c0 .9.3 1.7 1 2.4s1.4 1 2.4 1h15.6c.9 0 1.7-.3 2.4-1s1-1.4 1-2.4v-57.7c0-.9-.3-1.7-1-2.4-.7-.6-1.5-1-2.4-1z" class="st3"/><path d="M287.6 171c0 .9-.3 1.7-1 2.4s-1.4 1-2.4 1h-15.6c-.9 0-1.7-.3-2.4-1s-1-1.4-1-2.4v-31.3c0-3.5-.9-6.4-2.6-8.5-1.7-2.1-4.5-3.2-8.2-3.2-3.7 0-6.4 1.1-8.1 3.2-1.7 2.1-2.5 5-2.5 8.5V171c0 .9-.3 1.7-1 2.4s-1.4 1-2.4 1h-15.6c-.9 0-1.7-.3-2.4-1s-1-1.4-1-2.4v-57.7c0-.9.3-1.7 1-2.4s1.4-1 2.4-1h15c.9 0 1.7.3 2.4 1s1 1.4 1 2.4v2.8c.7-.8 1.5-1.7 2.5-2.6 1-.9 2.2-1.7 3.6-2.4s3-1.3 4.9-1.7c1.9-.5 4-.7 6.5-.7 4 0 7.6.6 10.9 1.7 3.3 1.1 6.1 2.8 8.5 5.1 2.4 2.3 4.2 5.2 5.5 8.8 1.3 3.5 2 7.8 2 12.6V171z" class="st3"/><path id="XMLID_8_" d="M208.6 89.1c-.2-3-1.3-5.3-3.4-6.8-2-1.5-4.8-2.3-8.4-2.3-3.5 0-6.3.8-8.4 2.3-2 1.5-3.2 3.8-3.4 6.8-.1 1.3-.1 2.5 0 3.8.4 6 4.3 9.1 11.8 9.1 7.4 0 11.4-3 11.8-9.1.1-1.3.1-2.6 0-3.8z" class="st3"/><path id="XMLID_7_" d="M97.5 89.1c-.2-3-1.3-5.3-3.4-6.8-2-1.5-4.8-2.3-8.4-2.3-3.5 0-6.3.8-8.4 2.3-2 1.5-3.2 3.8-3.4 6.8-.1 1.3-.1 2.5 0 3.8.4 6 4.3 9.1 11.8 9.1 7.4 0 11.4-3 11.8-9.1v-3.8z" class="st3"/><path id="XMLID_6_" d="M93.6 109.9h-16c-1.7 0-2.9 1.4-2.9 3.1v52c0 5.7-3.8 5.9-5 5.9-1.1 0-2.7-.1-4.7-1.5-1.3-.9-1.9-1.3-3.3-1.3-.3 0-1.7.1-2.5 1.4l-7 9.8c-.6.9-1 1.9-1 2.7 0 .9.5 1.9 1.3 2.7 4.5 5 13.6 7 20.1 7 12.1 0 24.2-7 24.2-25.6v-53c-.2-1.8-1.6-3.2-3.2-3.2z" class="st3"/><g><path d="M458.3 303.6c0 .9-.3 1.7-1 2.4s-1.5 1-2.4 1h-15.1c-.9 0-1.7-.3-2.4-1s-1-1.5-1-2.4v-31.8c0-4.1-.8-7.1-2.3-8.8-1.5-1.7-3.8-2.6-6.8-2.6-2.9 0-5.1.9-6.7 2.6-1.5 1.7-2.3 4.7-2.3 8.8v31.8c0 .9-.3 1.7-1 2.4s-1.5 1-2.4 1h-15.1c-.9 0-1.7-.3-2.4-1s-1-1.5-1-2.4v-31.8c0-4.1-.8-7.1-2.3-8.8-1.5-1.7-3.8-2.6-6.8-2.6-2.9 0-5.1.9-6.7 2.6-1.5 1.7-2.3 4.5-2.3 8.5v32.2c0 .9-.3 1.7-1 2.4s-1.5 1-2.4 1h-15.7c-.9 0-1.7-.3-2.4-1s-1-1.5-1-2.4v-58c0-.9.3-1.7 1-2.4s1.5-1 2.4-1h15.1c.9 0 1.7.3 2.4 1s1 1.5 1 2.4v2.9c1.8-2.3 4-4.1 6.7-5.5 2.6-1.3 5.7-2 9.1-2 4.2 0 8.1.8 11.5 2.4 3.4 1.6 6.2 4 8.4 7.3 2.4-3.2 5.3-5.6 8.8-7.2 3.4-1.7 7.2-2.5 11.1-2.5 3.6 0 6.9.6 9.9 1.7s5.6 2.8 7.8 5.2c2.2 2.3 3.9 5.3 5.1 8.8 1.2 3.6 1.8 7.8 1.8 12.7v34.1zM491 280.8c0 1.9.8 4.4 1.5 5.6.7 1.2 1.6 2.2 2.7 3 1.1.7 2.3 1.3 3.6 1.6 1.3.3 2.6.4 3.9.4 2.5 0 4.5-.2 5.9-.7 1.4-.5 1.2-.4 2.5-1.2 1-.6.9-.7 1.3-.9.4-.2 1.1-.3 2.1-.3h17.6c1.8 0 2.7.9 2.7 2.7 0 1-.2 1.1-1.4 3.1s-3.2 4.1-5.8 6.2c-2.6 2.1-6 4-10.1 5.5-4.1 1.6-9.1 2.4-14.8 2.4-5.4 0-10.2-.8-14.4-2.3-4.2-1.5-7.7-3.8-10.6-6.7-2.9-2.9-5-6.4-6.5-10.6-1.4-4.1-2.2-8.8-2.2-14.1 0-4.8.7-9.3 2.2-13.4s3.6-7.6 6.5-10.6 6.4-5.3 10.6-7c4.2-1.7 9-2.6 14.4-2.6 6.1 0 11.2 1 15.5 3 4.3 2 7.8 4.7 10.4 7.9 2.7 3.2 4.6 6.9 5.8 10.9 1.2 4 1.8 8 1.8 12v2.6c0 .9-.3 1.7-1 2.4s-1.5 1-2.4 1H491zm11.7-23c-3.5 0-6.1 1-8 3.1-1.8 2.1-3.3 4.4-3.6 8H514c-.3-3.6-1.5-5.9-3.4-8-1.8-2.1-4.4-3.1-7.9-3.1z" class="st3"/></g><g><path d="M541.9 242.4c.1 0 .1 0 .2.1s.1.1.1.2v.7c0 .1 0 .1-.1.2s-.1.1-.2.1H540v5.7c0 .1 0 .1-.1.2s-.1.1-.2.1h-.8c-.1 0-.1 0-.2-.1s-.1-.1-.1-.2v-5.7h-1.9c-.1 0-.1 0-.2-.1s-.1-.1-.1-.2v-.7c0-.1 0-.1.1-.2s.1-.1.2-.1h5.2zM547.1 246.1l2-3.4s.1-.1.1-.2c.1-.1.2-.1.3-.1h.7c.1 0 .1 0 .2.1s.1.1.1.2v6.7c0 .1 0 .1-.1.2s-.1.1-.2.1h-.8c-.1 0-.1 0-.2-.1s-.1-.1-.1-.2v-4.1l-1.4 2.3c0 .1-.1.1-.1.2-.1.1-.1.1-.2.1h-.5c-.1 0-.2 0-.2-.1-.1-.1-.1-.1-.1-.2l-1.4-2.3v4.1c0 .1 0 .1-.1.2s-.1.1-.2.1h-.9c-.1 0-.1 0-.2-.1s-.1-.1-.1-.2v-6.7c0-.1 0-.1.1-.2s.1-.1.2-.1h.7c.1 0 .2 0 .3.1.1.1.1.1.1.2l2 3.4z" class="st3"/></g></g></svg>