<svg fill="none" height="32" viewBox="0 0 32 32" width="32" xmlns="http://www.w3.org/2000/svg" xmlns:xlink="http://www.w3.org/1999/xlink"><linearGradient id="a"><stop offset="0" stop-color="#364088"/><stop offset="1" stop-color="#6e7ee1"/></linearGradient><linearGradient id="b" gradientUnits="userSpaceOnUse" x1="19" x2="32.1591" xlink:href="#a" y1="13.7368" y2="22.3355"/><linearGradient id="c" gradientUnits="userSpaceOnUse" x1="9" x2="25" y1="19.4038" y2="19.4038"><stop offset="0" stop-color="#515fc4"/><stop offset="1" stop-color="#7084ea"/></linearGradient><linearGradient id="d" gradientUnits="userSpaceOnUse" x1="24" x2="29.7963" xlink:href="#a" y1="5.31579" y2="9.39469"/><linearGradient id="e"><stop offset="0" stop-color="#4858ae"/><stop offset="1" stop-color="#4e60ce"/></linearGradient><linearGradient id="f" gradientUnits="userSpaceOnUse" x1="15.1429" x2="20.2857" xlink:href="#e" y1="3.14286" y2="9.14286"/><linearGradient id="g" gradientUnits="userSpaceOnUse" x1="13.4286" x2="19.8571" xlink:href="#e" y1="1.42857" y2="8.92857"/><linearGradient id="h" gradientUnits="userSpaceOnUse" x1="0" x2="18" y1="16" y2="16"><stop offset="0" stop-color="#2a3887"/><stop offset="1" stop-color="#4c56b9"/></linearGradient><mask id="i" height="30" maskUnits="userSpaceOnUse" width="16" x="9" y="0"><path d="m17 10c2.7615 0 5-2.23853 5-5s-2.2385-5-5-5-5 2.23853-5 5 2.2385 5 5 5z" fill="url(#g)"/><path d="m10.2258 11c-.67697 0-1.2258.5488-1.2258 1.2258v9.7742c0 4.4183 3.5817 8 8 8s8-3.5817 8-8v-9.7742c0-.677-.5488-1.2258-1.2258-1.2258z" fill="url(#g)"/></mask><path d="m19 13.9032c0-.4988.4044-.9032.9032-.9032h11.1936c.4988 0 .9032.4044.9032.9032v6.5968c0 3.5899-2.9101 6.5-6.5 6.5s-6.5-2.9101-6.5-6.5z" fill="url(#b)"/><path d="m9 12.2258c0-.677.54881-1.2258 1.2258-1.2258h13.5484c.677 0 1.2258.5488 1.2258 1.2258v9.7742c0 4.4183-3.5817 8-8 8s-8-3.5817-8-8z" fill="url(#c)"/><circle cx="27" cy="8" fill="#34439e" r="3"/><circle cx="27" cy="8" fill="url(#d)" r="3"/><circle cx="18" cy="6" fill="url(#f)" r="4"/><g mask="url(#i)"><path d="m7 12c0-1.6569 1.34315-3 3-3h7c1.6569 0 3 1.3431 3 3v12c0 1.6569-1.3431 3-3 3h-10z" fill="#000" fill-opacity=".3"/></g><rect fill="url(#h)" height="18" rx="2" width="18" y="7"/><path d="m13 11h-8v1.8347h2.99494v8.1653h2.01016v-8.1653h2.9949z" fill="#fff"/></svg>