<svg xmlns="http://www.w3.org/2000/svg" xmlns:xlink="http://www.w3.org/1999/xlink" width="32" height="32" fill="none" viewBox="0 0 32 32"><linearGradient id="a"><stop offset="0" stop-color="#364088"/><stop offset="1" stop-color="#6e7ee1"/></linearGradient><linearGradient id="b" x1="19" x2="32.159" y1="13.737" y2="22.335" gradientUnits="userSpaceOnUse" xlink:href="#a"/><linearGradient id="c" x1="9" x2="25" y1="19.404" y2="19.404" gradientUnits="userSpaceOnUse"><stop offset="0" stop-color="#515fc4"/><stop offset="1" stop-color="#7084ea"/></linearGradient><linearGradient id="d" x1="24" x2="29.796" y1="5.316" y2="9.395" gradientUnits="userSpaceOnUse" xlink:href="#a"/><linearGradient id="e"><stop offset="0" stop-color="#4858ae"/><stop offset="1" stop-color="#4e60ce"/></linearGradient><linearGradient id="f" x1="15.143" x2="20.286" y1="3.143" y2="9.143" gradientUnits="userSpaceOnUse" xlink:href="#e"/><linearGradient id="g" x1="13.429" x2="19.857" y1="1.429" y2="8.929" gradientUnits="userSpaceOnUse" xlink:href="#e"/><linearGradient id="h" x1="0" x2="18" y1="16" y2="16" gradientUnits="userSpaceOnUse"><stop offset="0" stop-color="#2a3887"/><stop offset="1" stop-color="#4c56b9"/></linearGradient><mask id="i" width="16" height="30" x="9" y="0" maskUnits="userSpaceOnUse"><path fill="url(#g)" d="m17 10c2.7615 0 5-2.23853 5-5s-2.2385-5-5-5-5 2.23853-5 5 2.2385 5 5 5z"/><path fill="url(#g)" d="m10.2258 11c-.67697 0-1.2258.5488-1.2258 1.2258v9.7742c0 4.4183 3.5817 8 8 8s8-3.5817 8-8v-9.7742c0-.677-.5488-1.2258-1.2258-1.2258z"/></mask><path fill="url(#b)" d="m19 13.9032c0-.4988.4044-.9032.9032-.9032h11.1936c.4988 0 .9032.4044.9032.9032v6.5968c0 3.5899-2.9101 6.5-6.5 6.5s-6.5-2.9101-6.5-6.5z"/><path fill="url(#c)" d="m9 12.2258c0-.677.54881-1.2258 1.2258-1.2258h13.5484c.677 0 1.2258.5488 1.2258 1.2258v9.7742c0 4.4183-3.5817 8-8 8s-8-3.5817-8-8z"/><circle cx="27" cy="8" r="3" fill="#34439e"/><circle cx="27" cy="8" r="3" fill="url(#d)"/><circle cx="18" cy="6" r="4" fill="url(#f)"/><g mask="url(#i)"><path fill="#000" fill-opacity=".3" d="m7 12c0-1.6569 1.34315-3 3-3h7c1.6569 0 3 1.3431 3 3v12c0 1.6569-1.3431 3-3 3h-10z"/></g><rect width="18" height="18" y="7" fill="url(#h)" rx="2"/><path fill="#fff" d="m13 11h-8v1.8347h2.99494v8.1653h2.01016v-8.1653h2.9949z"/></svg>