<svg fill="none" height="32" viewBox="0 0 32 32" width="32" xmlns="http://www.w3.org/2000/svg"><path d="m26.5002 14.9998c1.3806 0 2.4998-1.1192 2.4998-2.4998s-1.1193-2.4998-2.4999-2.4998c-1.3807 0-2.5001 1.1193-2.5001 2.5v2.4996zm-7.0002 0c1.3807 0 2.5-1.1193 2.5-2.5v-6.99959c0-1.38071-1.1193-2.5-2.5-2.5s-2.5 1.11929-2.5 2.5v6.99959c0 1.3807 1.1193 2.5 2.5 2.5z" fill="#2eb67d"/><path d="m5.49979 17.0002c-1.3806 0-2.49979 1.1192-2.49979 2.4998s1.1193 2.4998 2.49989 2.4998c1.38071 0 2.50011-1.1193 2.50011-2.5v-2.4996zm7.00021 0c-1.3807 0-2.5 1.1193-2.5 2.5v6.9996c0 1.3807 1.1193 2.5 2.5 2.5s2.5-1.1193 2.5-2.5v-6.9996c0-1.3807-1.1193-2.5-2.5-2.5z" fill="#e01e5a"/><path d="m17.0002 26.5002c0 1.3806 1.1192 2.4998 2.4998 2.4998s2.4998-1.1193 2.4998-2.4999c0-1.3807-1.1193-2.5001-2.5-2.5001h-2.4996zm0-7.0002c0 1.3807 1.1193 2.5 2.5 2.5h6.9996c1.3807 0 2.5-1.1193 2.5-2.5s-1.1193-2.5-2.5-2.5h-6.9996c-1.3807 0-2.5 1.1193-2.5 2.5z" fill="#ecb22e"/><path d="m14.9998 5.49979c0-1.3806-1.1192-2.49979-2.4998-2.49979s-2.4998 1.1193-2.4998 2.49989c0 1.38072 1.1193 2.50011 2.5 2.50011h2.4996zm0 7.00021c0-1.3807-1.1193-2.5-2.5-2.5h-6.99962c-1.38071 0-2.5 1.1193-2.5 2.5s1.11929 2.5 2.5 2.5h6.99962c1.3807 0 2.5-1.1193 2.5-2.5z" fill="#36c5f0"/></svg>