<svg xmlns="http://www.w3.org/2000/svg" xmlns:vectornator="http://vectornator.io" xmlns:xlink="http://www.w3.org/1999/xlink" style="fill-rule:evenodd;clip-rule:evenodd;stroke-linecap:round;stroke-linejoin:round" version="1.1" viewBox="0 0 56 56" xml:space="preserve"><metadata><vectornator:setting key="DynamicGuides" value="1"/><vectornator:setting key="Units" value="Points"/><vectornator:setting key="GuidesVisible" value="1"/><vectornator:setting key="RulersVisible" value="1"/><vectornator:setting key="SnapToGuides" value="1"/><vectornator:setting key="GridSpacing" value="36"/></metadata><g id="Untitled" vectornator:layerName="Untitled"><path fill="#fff" d="M12.0156+53.1602C13.2344+53.1602+13.9375+52.5508+16.3047+50.1836L27.6719+38.8398C27.789+38.7461+27.9063+38.6524+28+38.6524C28.1172+38.6524+28.2109+38.7461+28.3281+38.8398L39.7187+50.1836C42.039+52.5039+42.789+53.1602+43.9844+53.1602C45.4609+53.1602+46.5859+52.2696+46.5859+50.1367L46.5859+10.1758C46.5859+5.3008+44.1719+2.8398+39.3203+2.8398L16.6797+2.8398C11.8516+2.8398+9.4141+5.3008+9.4141+10.1758L9.4141+50.1367C9.4141+52.2696+10.5625+53.1602+12.0156+53.1602ZM13.7734+47.4649C13.4453+47.793+13.1875+47.6992+13.1875+47.2539L13.1875+10.2461C13.1875+7.9024+14.4531+6.6133+16.8906+6.6133L39.1328+6.6133C41.5703+6.6133+42.8125+7.9024+42.8125+10.2461L42.8125+47.2539C42.8125+47.6992+42.5547+47.7695+42.2265+47.4649L29.1719+34.5508C28.7734+34.1289+28.3516+34.0118+28+34.0118C27.6719+34.0118+27.25+34.1289+26.8281+34.5508L13.7734+47.4649Z" opacity="1"/></g></svg>