<?xml version="1.0" encoding="UTF-8" standalone="no"?> <!-- Created with Vectornator for iOS (http://vectornator.io/) --><!DOCTYPE svg PUBLIC "-//W3C//DTD SVG 1.1//EN" "http://www.w3.org/Graphics/SVG/1.1/DTD/svg11.dtd">
<svg style="fill-rule:evenodd;clip-rule:evenodd;stroke-linecap:round;stroke-linejoin:round;" xmlns:vectornator="http://vectornator.io" xmlns:xlink="http://www.w3.org/1999/xlink" xmlns="http://www.w3.org/2000/svg" xml:space="preserve" version="1.1" viewBox="0 0 56 56">
<metadata>
<vectornator:setting key="DynamicGuides" value="1"/>
<vectornator:setting key="Units" value="Points"/>
<vectornator:setting key="GuidesVisible" value="1"/>
<vectornator:setting key="RulersVisible" value="1"/>
<vectornator:setting key="SnapToGuides" value="1"/>
<vectornator:setting key="GridSpacing" value="36"/>
</metadata>
<defs/>
<g id="Untitled" vectornator:layerName="Untitled">
<path d="M13.7851+49.5742L42.2382+49.5742C47.1366+49.5742+49.5743+47.1367+49.5743+42.3086L49.5743+13.6914C49.5743+8.8633+47.1366+6.4258+42.2382+6.4258L13.7851+6.4258C8.9101+6.4258+6.4257+8.8398+6.4257+13.6914L6.4257+42.3086C6.4257+47.1602+8.9101+49.5742+13.7851+49.5742ZM13.8554+45.8008C11.5117+45.8008+10.1992+44.5586+10.1992+42.1211L10.1992+13.8789C10.1992+11.4414+11.5117+10.1992+13.8554+10.1992L42.1679+10.1992C44.4882+10.1992+45.8007+11.4414+45.8007+13.8789L45.8007+42.1211C45.8007+44.5586+44.4882+45.8008+42.1679+45.8008L13.8554+45.8008ZM20.0195+37.8789C20.5351+37.8789+21.0039+37.668+21.3554+37.293L28.0117+30.6367L34.6679+37.293C35.0195+37.6445+35.4882+37.8789+36.0273+37.8789C37.0585+37.8789+37.9023+37.0352+37.9023+35.9805C37.9023+35.4414+37.6913+35.0196+37.3398+34.6445L30.6835+27.9883L37.3632+21.2852C37.7382+20.8867+37.9257+20.4883+37.9257+19.9727C37.9257+18.9414+37.082+18.0977+36.0507+18.0977C35.5585+18.0977+35.1366+18.2852+34.7382+18.6836L28.0117+25.3633L21.3085+18.7071C20.957+18.332+20.5351+18.1445+20.0195+18.1445C18.9648+18.1445+18.1444+18.9649+18.1444+19.9961C18.1444+20.5118+18.332+20.9571+18.707+21.3086L25.3632+27.9883L18.707+34.668C18.332+35.0196+18.1444+35.4649+18.1444+35.9805C18.1444+37.0352+18.9648+37.8789+20.0195+37.8789Z" opacity="1" fill="#ffffff"/>
</g>
</svg>
