<svg xmlns="http://www.w3.org/2000/svg" width="56" height="56" viewBox="0 0 56 56">
  <path d="M4 6L4 18C4 19.1045695 4.8954305 20 6 20L22 20C23.1045695 20 24 19.1045695 24 18L24 6C24 4.8954305 23.1045695 4 22 4L6 4C4.8954305 4 4 4.8954305 4 6zM4 0L24 0C26.209139 0 28 1.790861 28 4L28 20C28 22.209139 26.209139 24 24 24L4 24C1.790861 24 0 22.209139 0 20L0 4C0 1.790861 1.790861 0 4 0zM33 9.92249939L33 14.0775006C33 14.3812843 33.1380897 14.6685972 33.375305 14.8583694L35.375305 16.4583694C35.8065669 16.803379 36.4358593 16.7334576 36.7808688 16.3021957 36.9227192 16.1248826 37 15.9045721 37 15.6775006L37 8.32249939C37 7.77021464 36.5522847 7.32249939 36 7.32249939 35.7729285 7.32249939 35.552618 7.39978014 35.375305 7.54163058L33.375305 9.14163058C33.1380897 9.33140277 33 9.61871567 33 9.92249939zM30.7506099 7.39951208L36.7506099 2.59951208C37.6131338 1.90949298 38.8717185 2.04933573 39.5617376 2.9118596 39.8454385 3.2664857 40 3.7071067 40 4.16124969L40 19.8387503C40 20.9433198 39.1045695 21.8387503 38 21.8387503 37.545857 21.8387503 37.105236 21.6841888 36.7506099 21.4004879L30.7506099 16.6004879C30.2761794 16.2209436 30 15.6463177 30 15.0387503L30 8.96124969C30 8.35368225 30.2761794 7.77905645 30.7506099 7.39951208z" transform="translate(8 16)"/>
</svg>
