<svg xmlns="http://www.w3.org/2000/svg" xmlns:vectornator="http://vectornator.io" xmlns:xlink="http://www.w3.org/1999/xlink" style="fill-rule:evenodd;clip-rule:evenodd;stroke-linecap:round;stroke-linejoin:round" version="1.1" viewBox="0 0 56 56" xml:space="preserve"><metadata><vectornator:setting key="DynamicGuides" value="1"/><vectornator:setting key="Units" value="Points"/><vectornator:setting key="GuidesVisible" value="1"/><vectornator:setting key="GridSpacing" value="36"/><vectornator:setting key="SnapToGuides" value="1"/><vectornator:setting key="RulersVisible" value="1"/></metadata><g id="Untitled" vectornator:layerName="Untitled"><path fill="#fff" d="M12+22L12+34C12+35.1046+12.8954+36+14+36L30+36C31.1046+36+32+35.1046+32+34L32+22C32+20.8954+31.1046+20+30+20L14+20C12.8954+20+12+20.8954+12+22ZM12+16L32+16C34.2091+16+36+17.7909+36+20L36+36C36+38.2091+34.2091+40+32+40L12+40C9.79086+40+8+38.2091+8+36L8+20C8+17.7909+9.79086+16+12+16ZM41+25.9225L41+30.0775C41+30.3813+41.1381+30.6686+41.3753+30.8584L43.3753+32.4584C43.8066+32.8034+44.4359+32.7335+44.7809+32.3022C44.9227+32.1249+45+31.9046+45+31.6775L45+24.3225C45+23.7702+44.5523+23.3225+44+23.3225C43.7729+23.3225+43.5526+23.3998+43.3753+23.5416L41.3753+25.1416C41.1381+25.3314+41+25.6187+41+25.9225ZM38.7506+23.3995L44.7506+18.5995C45.6131+17.9095+46.8717+18.0493+47.5617+18.9119C47.8454+19.2665+48+19.7071+48+20.1612L48+35.8388C48+36.9433+47.1046+37.8388+46+37.8388C45.5459+37.8388+45.1052+37.6842+44.7506+37.4005L38.7506+32.6005C38.2762+32.2209+38+31.6463+38+31.0388L38+24.9612C38+24.3537+38.2762+23.7791+38.7506+23.3995Z" opacity="1"/></g></svg>