<svg xmlns="http://www.w3.org/2000/svg" fill="none" viewBox="-0.03 -0.03 166.5 32.03"><title>Venue</title><g clip-path="url(#clip0_1500:4959)"><path fill="#000" d="M161.488 14.3203C160.829 14.3187 160.176 14.4484 159.568 14.7019C158.959 14.9553 158.407 15.3275 157.944 15.7965C157.936 15.807 157.926 15.8165 157.916 15.8245L157.885 15.8549C157.877 15.8654 157.868 15.8746 157.858 15.8826L157.827 15.913C157.819 15.9235 157.81 15.933 157.799 15.9409L157.769 15.9714C157.76 15.9813 157.751 15.9904 157.741 15.999L157.711 16.0295L157.683 16.0599L157.652 16.0878C157.644 16.0977 157.634 16.1069 157.625 16.1155L157.594 16.1459C157.586 16.1558 157.576 16.1652 157.566 16.1739L157.536 16.2043L157.508 16.2347L157.478 16.2624L157.45 16.2928L157.419 16.3207L157.392 16.3512L157.361 16.3789L157.333 16.4093L157.303 16.4372L157.275 16.4676L157.245 16.4953L157.217 16.5257L157.187 16.5537L157.159 16.5841L157.128 16.6118L157.1 16.6422L157.07 16.6701L157.042 16.7006L157.012 16.7282L156.984 16.7587L156.954 16.7866L156.926 16.817L156.895 16.8447L156.867 16.8751L156.837 16.9031L156.809 16.9335L156.779 16.9612L156.751 16.9916L156.721 17.0195L156.693 17.0499L156.662 17.0776L156.635 17.1081L156.604 17.136L156.576 17.1664L156.546 17.1943L156.518 17.2245L156.488 17.2525L156.46 17.2829L156.429 17.3108L156.402 17.341L156.371 17.3689L156.343 17.3993L156.313 17.4273L156.285 17.4574L156.255 17.4854L156.227 17.5158L156.197 17.5437L156.169 17.5742L156.138 17.6018L156.11 17.6323L156.08 17.6602L156.052 17.6906L156.022 17.7183L155.994 17.7487L155.964 17.7767L155.936 17.8071L155.905 17.8348L155.877 17.8652L155.847 17.8931L155.819 17.9235L155.789 17.9512L155.758 17.9817L155.731 18.0096L155.7 18.04C155.692 18.0499 155.682 18.0591 155.672 18.0677L155.642 18.0981C155.633 18.108 155.624 18.1174 155.614 18.1261L155.584 18.1565C155.575 18.1664 155.566 18.1755 155.556 18.1842L155.525 18.2146L155.498 18.2425L155.467 18.2729C155.459 18.2835 155.45 18.2927 155.439 18.3006L155.409 18.331C155.401 18.3416 155.392 18.351 155.381 18.359L155.351 18.3894C155.343 18.3999 155.333 18.4091 155.323 18.4171L155.293 18.4475C155.285 18.458 155.275 18.4675 155.265 18.4755L155.234 18.5059C155.226 18.5164 155.217 18.5256 155.206 18.5336L155.176 18.564C155.168 18.5745 155.159 18.584 155.148 18.5919L155.118 18.6223C155.11 18.6328 155.101 18.6423 155.09 18.6503L155.06 18.6804C155.051 18.6903 155.042 18.6997 155.032 18.7084L155.001 18.7388C154.993 18.7493 154.984 18.7588 154.974 18.7667L154.943 18.7969C154.935 18.8074 154.926 18.8169 154.915 18.8248L154.885 18.8553C154.877 18.8658 154.868 18.8752 154.857 18.8832L154.827 18.9134C154.819 18.9239 154.809 18.9333 154.799 18.9413L154.768 18.9717L154.741 18.9997L154.71 19.0301L154.682 19.0602L154.652 19.0882L154.624 19.1186L154.594 19.1465L154.566 19.1767L154.535 19.2047L154.508 19.2351L154.477 19.263L154.449 19.2932L154.419 19.3211L154.391 19.3515L154.361 19.3795L154.333 19.4099L154.303 19.4376L154.275 19.468L154.244 19.4959L154.216 19.5264L154.186 19.554L154.158 19.5845L154.128 19.6124L154.1 19.6428L154.07 19.6705L154.042 19.7009L154.011 19.7289L153.984 19.7593L153.953 19.787L153.925 19.8174L153.895 19.8453L153.867 19.8757L153.837 19.9034L153.809 19.9339L153.778 19.9618L153.751 19.9922L153.72 20.0199L153.692 20.0503L153.662 20.0783L153.634 20.1087L153.604 20.1364L153.576 20.1668C153.107 20.6299 152.734 21.1819 152.481 21.7906C152.227 22.3993 152.098 23.0523 152.1 23.7116V26.9225C152.101 28.2436 152.626 29.5101 153.561 30.4443C154.495 31.3785 155.762 31.9041 157.083 31.9054C157.742 31.907 158.395 31.7774 159.004 31.5239C159.612 31.2705 160.164 30.8983 160.628 30.4292L160.658 30.4013L160.686 30.3709L160.716 30.3432L160.744 30.3128L160.774 30.2848L160.802 30.2544L160.833 30.2267L160.861 30.1963L160.891 30.1659L160.919 30.138L160.949 30.1078L160.977 30.0798L161.007 30.0494L161.035 30.0215L161.066 29.9911L161.093 29.9634L161.124 29.933L161.152 29.905L161.182 29.8746L161.21 29.8469L161.24 29.8165L161.268 29.7886L161.299 29.7581L161.326 29.7305L161.357 29.7L161.385 29.6721L161.415 29.6417L161.443 29.614L161.473 29.5836L161.501 29.5556L161.532 29.5252L161.559 29.4975L161.59 29.4671L161.618 29.4392L161.648 29.4088L161.676 29.3811L161.706 29.3506C161.716 29.342 161.725 29.3326 161.734 29.3227L161.764 29.2923C161.774 29.2837 161.784 29.2745 161.792 29.2646L161.823 29.2342L161.851 29.2062L161.881 29.1758L161.909 29.1481L161.939 29.1177L161.967 29.0898L161.997 29.0594L162.025 29.0317L162.056 29.0013L162.084 28.9733L162.114 28.9429L162.142 28.915L162.172 28.8848L162.2 28.8568L162.23 28.8264L162.258 28.7985L162.289 28.7683L162.316 28.7404L162.347 28.71L162.375 28.682L162.405 28.6519L162.433 28.6239L162.463 28.5935L162.491 28.5656L162.522 28.5351L162.549 28.5075L162.58 28.477C162.59 28.4684 162.599 28.459 162.608 28.4491L162.638 28.4187L162.666 28.391L162.696 28.3606L162.724 28.3326L162.755 28.3022L162.782 28.2745L162.813 28.2441C162.823 28.2355 162.832 28.2261 162.841 28.2162L162.871 28.1858C162.881 28.1771 162.89 28.168 162.899 28.1581L162.929 28.1276L162.957 28.0997L162.987 28.0693L163.015 28.0416L163.046 28.0112L163.074 27.9832L163.104 27.9528L163.132 27.9251L163.162 27.8947L163.19 27.8668L163.22 27.8364L163.248 27.8087L163.279 27.7783L163.306 27.7503L163.337 27.7199L163.365 27.6922L163.395 27.6618L163.423 27.6338L163.453 27.6034L163.481 27.5757L163.512 27.5453L163.539 27.5174L163.57 27.487L163.598 27.459L163.628 27.4289L163.656 27.3984L163.686 27.3705L163.714 27.3426L163.745 27.3124L163.775 27.2845L163.803 27.254L163.833 27.2261L163.861 27.1959L163.891 27.168L163.919 27.1376L163.95 27.1072L163.978 27.0792L164.008 27.0491L164.036 27.0211L164.066 26.9907L164.094 26.9628L164.124 26.9326L164.152 26.9046L164.183 26.8742L164.21 26.8463L164.241 26.8161L164.269 26.7882L164.299 26.7578L164.327 26.7298L164.357 26.6994L164.385 26.6717L164.416 26.6413L164.443 26.6134L164.474 26.583L164.502 26.5553L164.532 26.5248L164.56 26.4969L164.59 26.4665L164.618 26.4388L164.648 26.4084L164.676 26.3804L164.707 26.35C164.717 26.3414 164.726 26.3322 164.735 26.3223L164.765 26.2919C164.775 26.2833 164.784 26.2739 164.793 26.264L164.823 26.2336C164.833 26.2249 164.842 26.2158 164.851 26.2059L164.881 26.1754C164.891 26.1668 164.901 26.1574 164.909 26.1475L164.94 26.1171L164.968 26.0894L164.998 26.059C165.467 25.5955 165.839 25.0435 166.092 24.4349C166.346 23.8263 166.475 23.1734 166.474 22.5141V19.3033C166.473 17.9817 165.947 16.7147 165.012 15.7805C164.077 14.8462 162.81 14.321 161.488 14.3203Z"/><path fill="#0C0F13" d="M157.198 13.9143C157.198 11.1999 156.651 8.76936 155.57 6.69055C154.499 4.59903 152.833 2.87124 150.782 1.72511C148.834 0.628737 146.546 0.0488295 143.983 0.00831679H143.925C141.362 0.0488295 139.073 0.628737 137.126 1.72511C136.108 2.29569 135.178 3.01235 134.366 3.85213L134.339 3.87983L134.311 3.90777C134.301 3.91641 134.291 3.9258 134.283 3.93571C134.273 3.94435 134.264 3.9535 134.255 3.9634L134.227 3.99134L134.199 4.01929C134.191 4.02919 134.181 4.03834 134.171 4.04698C134.163 4.05689 134.153 4.06628 134.144 4.07492L134.116 4.10262L134.088 4.13056L134.062 4.1585L134.035 4.18372L134.007 4.21166L133.979 4.23936C133.969 4.248 133.96 4.25739 133.951 4.2673L133.923 4.29524L133.895 4.32293L133.868 4.35088C133.859 4.36078 133.85 4.37018 133.84 4.37882L133.812 4.40651L133.784 4.43445L133.756 4.46239L133.731 4.48762L133.703 4.51556L133.675 4.54325L133.647 4.57119L133.619 4.59913L133.592 4.62683L133.564 4.65477L133.536 4.68246C133.527 4.69237 133.518 4.70177 133.508 4.71041L133.48 4.73835L133.452 4.76604L133.424 4.79398L133.399 4.81921L133.371 4.84715L133.343 4.87509C133.334 4.88373 133.324 4.89287 133.316 4.90278C133.306 4.91142 133.296 4.92082 133.288 4.93072L133.26 4.95867L133.232 4.98636L133.204 5.0143C133.196 5.02421 133.186 5.0336 133.176 5.04224L133.148 5.06994L133.121 5.09788L133.093 5.12557L133.067 5.15104L133.04 5.17874L133.012 5.20668L132.984 5.23462C132.974 5.24326 132.965 5.25241 132.956 5.26231L132.928 5.29025L132.9 5.3182L132.872 5.34589L132.845 5.37383L132.817 5.40177L132.789 5.42947L132.764 5.45741L132.736 5.48263L132.708 5.51057L132.68 5.53851C132.67 5.54715 132.661 5.5563 132.652 5.56621L132.624 5.59415L132.596 5.62184L132.569 5.64979L132.541 5.67773C132.532 5.68763 132.523 5.69678 132.513 5.70542L132.485 5.73336L132.457 5.7613L132.432 5.789L132.404 5.81447L132.376 5.84216L132.348 5.8701C132.338 5.87874 132.329 5.88814 132.32 5.89804L132.293 5.92574L132.265 5.95368L132.237 5.98162C132.228 5.99153 132.219 6.00068 132.209 6.00932C132.2 6.01922 132.191 6.02862 132.181 6.03726L132.153 6.06495L132.125 6.09289L132.1 6.12084L132.072 6.14606L132.044 6.174L132.017 6.20169C132.007 6.21033 131.997 6.21973 131.989 6.22963C131.979 6.23827 131.97 6.24767 131.961 6.25758L131.933 6.28527L131.905 6.31321C131.897 6.32312 131.887 6.33251 131.877 6.34115L131.849 6.36885L131.822 6.39679L131.794 6.42473L131.766 6.45242L131.741 6.47789L131.713 6.50559L131.685 6.53353L131.657 6.56147L131.629 6.58916L131.601 6.61711L131.574 6.6448C131.565 6.65471 131.556 6.6641 131.546 6.67274L131.518 6.70068L131.49 6.72838L131.462 6.75632L131.434 6.78426L131.409 6.80948V2.12025C131.409 1.65017 131.222 1.19923 130.89 0.866839C130.557 0.534443 130.107 0.347819 129.636 0.347819H123.924C123.688 0.348115 123.455 0.395537 123.237 0.487279C123.02 0.579022 122.823 0.71308 122.658 0.881922L122.63 0.909864L122.605 0.937558C122.594 0.945526 122.585 0.954986 122.577 0.9655C122.567 0.973467 122.557 0.982928 122.549 0.993441C122.539 1.00141 122.529 1.01062 122.521 1.02114C122.511 1.0291 122.502 1.03856 122.494 1.04908L122.466 1.0743C122.457 1.08421 122.448 1.0936 122.438 1.10224C122.429 1.11215 122.42 1.12154 122.41 1.13018C122.401 1.14009 122.392 1.14924 122.382 1.15788L122.354 1.18582C122.346 1.19572 122.336 1.20512 122.326 1.21376L122.301 1.24145C122.291 1.25009 122.282 1.25949 122.273 1.26939C122.263 1.27803 122.254 1.28743 122.245 1.29734C122.235 1.3053 122.226 1.31452 122.218 1.32503C122.207 1.333 122.198 1.34246 122.19 1.35297L122.162 1.37819C122.153 1.3881 122.144 1.3975 122.134 1.40614C122.125 1.41604 122.116 1.42544 122.106 1.43408C122.098 1.44398 122.088 1.45313 122.078 1.46177C122.07 1.47168 122.06 1.48107 122.05 1.48971C122.042 1.49962 122.033 1.50877 122.023 1.51741C122.014 1.52731 122.005 1.53671 121.995 1.54535C121.986 1.55526 121.977 1.56465 121.967 1.57329L121.942 1.60098C121.931 1.60895 121.922 1.61841 121.914 1.62893C121.903 1.63689 121.894 1.64635 121.886 1.65687C121.875 1.66483 121.866 1.67405 121.858 1.68456C121.848 1.69253 121.838 1.70199 121.83 1.7125L121.802 1.73772C121.794 1.74763 121.784 1.75703 121.774 1.76567C121.766 1.77557 121.757 1.78497 121.747 1.79361L121.719 1.8213C121.71 1.83121 121.701 1.8406 121.691 1.84924C121.682 1.85915 121.673 1.86855 121.663 1.87718C121.654 1.88709 121.645 1.89624 121.635 1.90488L121.61 1.93282C121.599 1.94079 121.59 1.95 121.582 1.96051C121.572 1.96848 121.562 1.97794 121.554 1.98846C121.544 1.99642 121.534 2.00588 121.526 2.0164C121.516 2.02504 121.507 2.03418 121.499 2.04409L121.471 2.06956C121.462 2.07947 121.453 2.08862 121.443 2.09726C121.434 2.10716 121.425 2.11656 121.415 2.1252L121.387 2.15314L121.359 2.18083C121.351 2.19074 121.341 2.20013 121.331 2.20877C121.323 2.21868 121.313 2.22808 121.304 2.23672L121.278 2.26441C121.268 2.27238 121.258 2.28184 121.25 2.29235C121.24 2.30032 121.23 2.30978 121.222 2.32029C121.212 2.32826 121.203 2.33747 121.195 2.34799C121.185 2.35663 121.175 2.36602 121.167 2.37593L121.139 2.40115C121.13 2.41106 121.121 2.42045 121.111 2.42909C121.102 2.439 121.093 2.44815 121.083 2.45679C121.075 2.46669 121.065 2.47609 121.055 2.48473L121.028 2.51267L121 2.54036L120.974 2.5683C120.964 2.57627 120.954 2.58573 120.946 2.59625C120.936 2.60421 120.927 2.61343 120.919 2.62394C120.908 2.63191 120.899 2.64137 120.891 2.65188C120.88 2.65985 120.871 2.66931 120.863 2.67982L120.835 2.70505C120.826 2.71495 120.817 2.72435 120.807 2.73299C120.799 2.74289 120.789 2.75204 120.779 2.76068C120.771 2.77059 120.761 2.77998 120.752 2.78862C120.743 2.79853 120.734 2.80792 120.724 2.81656C120.715 2.82647 120.706 2.83562 120.696 2.84426L120.668 2.8722L120.643 2.89989C120.632 2.90786 120.623 2.91732 120.615 2.92784C120.604 2.9358 120.595 2.94526 120.587 2.95578C120.576 2.96374 120.567 2.97296 120.559 2.98347C120.549 2.99144 120.539 3.0009 120.531 3.01141L120.503 3.03663C120.495 3.04654 120.485 3.05594 120.476 3.06458C120.467 3.07448 120.458 3.08388 120.448 3.09252C120.439 3.10243 120.43 3.11157 120.42 3.12021L120.392 3.14815C120.383 3.15806 120.374 3.16746 120.364 3.17609C120.356 3.186 120.346 3.19515 120.336 3.20379L120.311 3.23173C120.3 3.2397 120.291 3.24916 120.283 3.25967C120.273 3.26764 120.263 3.27685 120.255 3.28737C120.245 3.29533 120.235 3.30479 120.227 3.31531C120.217 3.32328 120.207 3.33249 120.2 3.343L120.172 3.36847C120.163 3.37838 120.154 3.38777 120.144 3.39641C120.135 3.40632 120.126 3.41547 120.116 3.42411L120.088 3.45205C120.079 3.46196 120.07 3.4711 120.06 3.47974C120.052 3.48965 120.042 3.49904 120.032 3.50768C120.024 3.51759 120.014 3.52699 120.005 3.53563L119.979 3.56332C119.969 3.57129 119.959 3.58075 119.951 3.59126C119.941 3.59923 119.932 3.60869 119.924 3.6192C119.913 3.62717 119.904 3.63638 119.896 3.6469C119.885 3.65487 119.876 3.66433 119.868 3.67484L119.84 3.70006C119.831 3.70997 119.822 3.71936 119.812 3.728C119.803 3.73791 119.794 3.7473 119.784 3.75594L119.756 3.78364C119.748 3.79355 119.739 3.80294 119.729 3.81158C119.72 3.82149 119.711 3.83088 119.701 3.83952L119.675 3.86721L119.648 3.89516C119.637 3.90312 119.628 3.91234 119.62 3.92285C119.609 3.93082 119.6 3.94028 119.592 3.95079C119.581 3.95876 119.572 3.96822 119.564 3.97873C119.554 3.98737 119.545 3.99652 119.536 4.00643L119.508 4.0319C119.5 4.0418 119.49 4.05095 119.48 4.05959C119.472 4.0695 119.462 4.07889 119.453 4.08753L119.425 4.11547L119.397 4.14317C119.388 4.15308 119.379 4.16247 119.369 4.17111L119.344 4.19905C119.333 4.20702 119.324 4.21623 119.316 4.22675C119.305 4.23471 119.296 4.24417 119.288 4.25469C119.278 4.26265 119.268 4.27212 119.26 4.28263C119.25 4.2906 119.24 4.29981 119.232 4.31032L119.204 4.33579C119.196 4.3457 119.186 4.35485 119.177 4.36349C119.168 4.37339 119.159 4.38279 119.149 4.39143C119.14 4.40134 119.131 4.41048 119.121 4.41912L119.093 4.44706L119.065 4.47501L119.037 4.5027L119.012 4.53064C119.002 4.53861 118.992 4.54807 118.984 4.55858C118.974 4.56655 118.964 4.57576 118.956 4.58628C118.946 4.59424 118.936 4.6037 118.928 4.61422C118.918 4.62219 118.909 4.63165 118.901 4.64216L118.873 4.66738C118.864 4.67729 118.855 4.68668 118.845 4.69532C118.836 4.70523 118.827 4.71438 118.817 4.72302C118.808 4.73292 118.799 4.74232 118.789 4.75096C118.781 4.76087 118.771 4.77026 118.761 4.7789C118.753 4.78881 118.743 4.79796 118.733 4.80659L118.706 4.83454L118.68 4.86223C118.67 4.8702 118.66 4.87966 118.652 4.89017C118.642 4.89814 118.633 4.9076 118.625 4.91811C118.614 4.92608 118.605 4.93529 118.597 4.94581C118.586 4.95377 118.577 4.96324 118.569 4.97375L118.541 4.99897C118.532 5.00888 118.523 5.01827 118.513 5.02691C118.344 5.19175 118.21 5.38862 118.118 5.60602C118.027 5.82342 117.979 6.05697 117.979 6.29294V18.743C117.139 18.6044 116.375 18.1721 115.823 17.523C115.272 16.8738 114.969 16.0498 114.968 15.1981V2.11506C114.968 1.64498 114.782 1.19429 114.449 0.861893C114.117 0.529498 113.666 0.342626 113.196 0.342626H107.499C107.263 0.342922 107.029 0.390344 106.812 0.482086C106.594 0.573829 106.398 0.708135 106.233 0.876977L106.205 0.904671L106.177 0.932613C106.167 0.941252 106.158 0.950647 106.149 0.960554L106.121 0.988248L106.094 1.01619L106.066 1.04413L106.04 1.06935L106.012 1.09729L105.985 1.12499L105.957 1.15293C105.947 1.16157 105.938 1.17096 105.929 1.18087L105.901 1.20857L105.873 1.23651L105.845 1.2642L105.817 1.29214L105.79 1.32009L105.762 1.34778L105.737 1.37325L105.709 1.40094L105.681 1.42888L105.653 1.45683L105.625 1.48452L105.597 1.51246L105.569 1.5404L105.542 1.5681L105.514 1.59604C105.504 1.60468 105.494 1.61407 105.486 1.62398L105.458 1.65167L105.43 1.67962L105.405 1.70731L105.377 1.73278L105.349 1.76047L105.321 1.78841C105.311 1.79705 105.302 1.80645 105.293 1.81636L105.266 1.84405L105.238 1.87199L105.21 1.89993L105.182 1.92763C105.172 1.93627 105.163 1.94566 105.154 1.95557L105.126 1.98351L105.098 2.01121L105.073 2.03915L105.045 2.06437L105.017 2.09231L104.99 2.12025C104.98 2.12889 104.97 2.13804 104.962 2.14795L104.934 2.17589L104.906 2.20358L104.878 2.23152L104.85 2.25946L104.822 2.28716L104.795 2.3151L104.767 2.34304L104.739 2.37074L104.714 2.3962L104.686 2.4239L104.658 2.45184L104.63 2.47978L104.602 2.50748L104.574 2.53542L104.546 2.56336C104.537 2.572 104.527 2.58115 104.519 2.59105L104.491 2.619L104.463 2.64669L104.435 2.67463L104.41 2.7001L104.382 2.72779L104.354 2.75574L104.326 2.78343L104.298 2.81137L104.27 2.83931L104.243 2.86701L104.215 2.89495C104.205 2.90359 104.196 2.91298 104.187 2.92289L104.159 2.95058L104.131 2.97853L104.103 3.00647L104.078 3.03169L104.05 3.05963L104.022 3.08732L103.994 3.11527C103.985 3.12391 103.975 3.1333 103.967 3.14321L103.939 3.1709L103.911 3.19884L103.883 3.22654C103.873 3.23518 103.864 3.24457 103.855 3.25448L103.827 3.28242L103.799 3.31012L103.772 3.33806L103.746 3.36328L103.718 3.39122L103.691 3.41916L103.663 3.44686C103.653 3.45549 103.644 3.46489 103.635 3.4748L103.607 3.50274L103.579 3.53043L103.551 3.55837C103.541 3.56701 103.532 3.57641 103.524 3.58632L103.496 3.61401L103.468 3.64195L103.44 3.66965C103.293 3.47721 103.144 3.28985 102.984 3.11007C101.123 1.03126 98.5911 -0.0245701 95.4589 -0.0245701C93.2735 -0.0541078 91.1523 0.714769 89.4934 2.13781L89.2858 2.3151V2.10492C89.2858 1.63484 89.0991 1.18415 88.7667 0.851755C88.4343 0.51936 87.9835 0.332488 87.5134 0.332488H81.8011C81.5651 0.332784 81.3316 0.380206 81.1142 0.471948C80.8968 0.563691 80.6999 0.697996 80.5351 0.866839C80.5252 0.875478 80.5158 0.884625 80.5072 0.894533L80.4794 0.922475C80.4688 0.930442 80.4594 0.939903 80.4515 0.950416C80.441 0.958384 80.4316 0.967597 80.4237 0.97811C80.4138 0.98675 80.4044 0.996144 80.3958 1.00605C80.3859 1.01469 80.3766 1.02409 80.368 1.03399L80.3401 1.05922C80.3314 1.06912 80.3221 1.07852 80.3122 1.08716C80.3042 1.09767 80.2949 1.10688 80.2844 1.11485C80.2764 1.12536 80.267 1.13482 80.2565 1.14279L80.2287 1.17073L80.2033 1.19843C80.1934 1.20707 80.1842 1.21646 80.1755 1.22637C80.1656 1.23501 80.1563 1.24416 80.1476 1.25406C80.1377 1.2627 80.1284 1.2721 80.1198 1.28201C80.1093 1.28997 80.0999 1.29943 80.0919 1.30995C80.082 1.31859 80.0727 1.32773 80.0641 1.33764L80.0363 1.36311C80.0276 1.37302 80.0183 1.38217 80.0084 1.3908C79.9997 1.40071 79.9905 1.41011 79.9806 1.41875C79.9726 1.42926 79.9632 1.43872 79.9527 1.44669C79.9447 1.4572 79.9354 1.46641 79.9249 1.47438L79.8995 1.50232C79.8896 1.51096 79.8803 1.52036 79.8716 1.53026L79.8438 1.55796C79.8339 1.5666 79.8246 1.57599 79.8159 1.5859C79.8054 1.59387 79.7961 1.60333 79.7881 1.61384C79.7782 1.62248 79.7689 1.63163 79.7602 1.64154C79.7503 1.65018 79.7411 1.65957 79.7324 1.66948C79.7225 1.67812 79.7132 1.68726 79.7045 1.69717L79.6767 1.72264C79.668 1.73255 79.6587 1.74194 79.6488 1.75058C79.6409 1.7611 79.6315 1.77031 79.621 1.77828C79.6123 1.78818 79.6031 1.79758 79.5931 1.80622C79.5845 1.81613 79.5752 1.82527 79.5653 1.83391L79.54 1.86185C79.5301 1.87049 79.5207 1.87989 79.5121 1.8898L79.4842 1.91749C79.4737 1.92546 79.4644 1.93492 79.4564 1.94543C79.4465 1.95407 79.4372 1.96347 79.4285 1.97337C79.4186 1.98201 79.4093 1.99116 79.4007 2.00107C79.3908 2.00971 79.3815 2.0191 79.3728 2.02901L79.345 2.05423C79.3364 2.06414 79.327 2.07353 79.3171 2.08217C79.3092 2.09268 79.2998 2.10215 79.2893 2.11011C79.2807 2.12002 79.2713 2.12917 79.2614 2.13781L79.2361 2.16575L79.2083 2.19369C79.1984 2.20233 79.189 2.21148 79.1804 2.22138L79.1526 2.24933C79.1421 2.25729 79.1327 2.26651 79.1247 2.27702C79.1148 2.28566 79.1055 2.29505 79.0969 2.30496C79.087 2.3136 79.0776 2.323 79.069 2.3329C79.0591 2.34154 79.0498 2.35069 79.0411 2.3606L79.0133 2.38607C79.0053 2.39658 78.9959 2.40579 78.9854 2.41376C78.9774 2.42427 78.9681 2.43373 78.9576 2.4417C78.949 2.45161 78.9396 2.461 78.9297 2.46964L78.9019 2.49734L78.8766 2.52528C78.8666 2.53392 78.8574 2.54331 78.8487 2.55322C78.8382 2.56119 78.8288 2.5704 78.8209 2.58092C78.8103 2.58888 78.8009 2.59834 78.793 2.60886C78.7831 2.6175 78.7738 2.62689 78.7652 2.6368C78.7553 2.64544 78.7459 2.65459 78.7373 2.66449L78.7095 2.68996C78.7008 2.69987 78.6915 2.70902 78.6816 2.71766C78.6736 2.72817 78.6643 2.73763 78.6538 2.7456C78.6458 2.75611 78.6364 2.76532 78.6259 2.77329L78.598 2.80123L78.5727 2.82917C78.5628 2.83781 78.5535 2.84696 78.5448 2.85687L78.517 2.88481C78.5065 2.89278 78.4971 2.90224 78.4891 2.91275C78.4786 2.92072 78.4693 2.92993 78.4613 2.94045C78.4514 2.94909 78.4421 2.95848 78.4334 2.96839C78.4235 2.97703 78.4143 2.98642 78.4056 2.99633L78.3778 3.02155C78.3691 3.03146 78.3598 3.04085 78.3499 3.04949C78.3419 3.06001 78.3326 3.06922 78.3221 3.07719C78.3141 3.0877 78.3047 3.09716 78.2942 3.10513L78.2664 3.13307L78.241 3.16076C78.2311 3.1694 78.2218 3.1788 78.2132 3.18871C78.2033 3.19734 78.194 3.20649 78.1853 3.2164C78.1748 3.22437 78.1654 3.23383 78.1574 3.24434C78.1469 3.25231 78.1376 3.26177 78.1296 3.27228C78.1197 3.28092 78.1104 3.29007 78.1017 3.29998C78.0918 3.30862 78.0826 3.31801 78.0739 3.32792L78.046 3.35314C78.0374 3.36305 78.0281 3.37244 78.0182 3.38108C78.0103 3.3916 78.0009 3.40106 77.9903 3.40902C77.9817 3.41893 77.9724 3.42808 77.9625 3.43672C77.9539 3.44663 77.9445 3.45602 77.9346 3.46466L77.9093 3.4926L77.8815 3.52029C77.8716 3.52893 77.8622 3.53833 77.8536 3.54824C77.8431 3.5562 77.8337 3.56566 77.8258 3.57618C77.8153 3.58415 77.8059 3.59336 77.7979 3.60387C77.788 3.61251 77.7787 3.62191 77.7701 3.63181C77.7602 3.64045 77.7508 3.6496 77.7422 3.65951L77.7143 3.68498C77.7057 3.69488 77.6964 3.70428 77.6865 3.71292C77.6785 3.72343 77.6691 3.73265 77.6586 3.74061C77.65 3.75052 77.6407 3.75992 77.6308 3.76855C77.6222 3.77846 77.6128 3.78761 77.6029 3.79625L77.5776 3.82419C77.5677 3.83283 77.5584 3.84222 77.5498 3.85213L77.5219 3.87983C77.5114 3.88779 77.502 3.89725 77.4941 3.90777C77.4842 3.91641 77.4748 3.9258 77.4662 3.93571C77.4563 3.94435 77.447 3.9535 77.4384 3.9634C77.4285 3.97204 77.4191 3.98144 77.4105 3.99134L77.3827 4.01657C77.374 4.02647 77.3647 4.03587 77.3548 4.04451C77.3468 4.05502 77.3375 4.06448 77.327 4.07245C76.4667 3.12674 75.4606 2.32469 74.3468 1.69717C72.3971 0.600796 70.1081 0.0211353 67.5456 -0.0193775H67.4874C64.925 0.0211353 62.6385 0.600796 60.6888 1.69717C59.7802 2.20744 58.9426 2.83487 58.1974 3.56332L58.1695 3.59126C58.1596 3.5999 58.1503 3.6093 58.1417 3.6192C58.1317 3.62784 58.1224 3.63699 58.1138 3.6469C58.1039 3.65554 58.0946 3.66493 58.086 3.67484C58.076 3.68348 58.0667 3.69287 58.0581 3.70278L58.0302 3.73047L58.0024 3.75594C57.9944 3.76646 57.985 3.77567 57.9745 3.78364C57.9665 3.79415 57.9572 3.80361 57.9467 3.81158L57.9213 3.83952C57.9114 3.84816 57.9022 3.85731 57.8935 3.86721L57.8656 3.89516L57.8378 3.92285C57.8279 3.93149 57.8186 3.94088 57.8099 3.95079C57.8 3.95943 57.7907 3.96883 57.7821 3.97873C57.7722 3.98737 57.7629 3.99652 57.7542 4.00643C57.7443 4.01507 57.735 4.02446 57.7264 4.03437L57.6985 4.05959C57.6906 4.0701 57.6812 4.07957 57.6707 4.08753C57.6627 4.09805 57.6534 4.10751 57.6429 4.11547L57.6175 4.14317L57.5896 4.17111C57.5797 4.17975 57.5704 4.18914 57.5618 4.19905C57.5519 4.20769 57.5426 4.21684 57.5339 4.22675L57.5061 4.25469C57.4962 4.26333 57.4869 4.27272 57.4782 4.28263C57.4683 4.29127 57.4591 4.30042 57.4504 4.31032C57.4405 4.31896 57.4312 4.32836 57.4225 4.33826C57.4126 4.3469 57.4033 4.35605 57.3947 4.36596L57.3668 4.39143C57.3589 4.40194 57.3495 4.41115 57.339 4.41912C57.331 4.42964 57.3217 4.4391 57.3111 4.44706L57.2858 4.47501L57.258 4.5027L57.2301 4.53064C57.2202 4.53928 57.2109 4.54867 57.2022 4.55858L57.1744 4.58628C57.1645 4.59492 57.1552 4.60431 57.1465 4.61422C57.1366 4.62286 57.1273 4.63225 57.1187 4.64216C57.1088 4.6508 57.0995 4.65995 57.0908 4.66985L57.7719 2.67216C57.8625 2.40532 57.8882 2.12057 57.8468 1.84183C57.8055 1.56308 57.6982 1.29835 57.5339 1.06935C57.3701 0.840054 57.1539 0.653148 56.9033 0.524122C56.6528 0.395097 56.375 0.327751 56.0932 0.327543H50.0163C49.7794 0.329483 49.5453 0.378752 49.3279 0.47269C49.1104 0.566628 48.914 0.703122 48.7503 0.874257L48.7224 0.899726L48.6971 0.927667L48.6692 0.955361L48.6414 0.983303C48.6315 0.991942 48.6222 1.00109 48.6135 1.011C48.6036 1.01964 48.5944 1.02903 48.5857 1.03894L48.5578 1.06688L48.53 1.09457C48.52 1.10321 48.5108 1.11261 48.5021 1.12252C48.4922 1.13116 48.4829 1.14055 48.4743 1.15046L48.4464 1.17815L48.4186 1.20609L48.3907 1.23132L48.3654 1.25926L48.3376 1.2872L48.3097 1.31489L48.2818 1.34283C48.2719 1.35147 48.2626 1.36087 48.254 1.37078L48.2261 1.39847L48.1983 1.42641C48.1884 1.43505 48.1791 1.4442 48.1704 1.45411C48.1605 1.46274 48.1512 1.47214 48.1426 1.48205L48.1147 1.50999L48.0868 1.53768L48.059 1.56315L48.0337 1.59085L48.0059 1.61879C47.996 1.62743 47.9866 1.63682 47.978 1.64673L47.9502 1.67442L47.9223 1.70236L47.8945 1.73031L47.8666 1.758C47.8567 1.76664 47.8474 1.77603 47.8387 1.78594C47.8288 1.79458 47.8195 1.80398 47.8109 1.81388L47.783 1.84158L47.7552 1.86705C47.7472 1.87756 47.7378 1.88677 47.7273 1.89474L47.702 1.92268L47.6742 1.95038C47.6642 1.95902 47.6549 1.96841 47.6463 1.97832C47.6364 1.98696 47.6271 1.99635 47.6185 2.00626C47.6085 2.0149 47.5992 2.02405 47.5906 2.03395L47.5628 2.0619L47.5349 2.08984C47.525 2.09848 47.5157 2.10762 47.5071 2.11753L47.4792 2.14547L47.4514 2.17341L47.4235 2.19864C47.4155 2.20915 47.4061 2.21861 47.3956 2.22658L47.3703 2.25427C47.3604 2.26291 47.3511 2.27231 47.3424 2.28221C47.3325 2.29085 47.3233 2.30025 47.3146 2.31015C47.3047 2.31879 47.2954 2.32794 47.2867 2.33785L47.2589 2.36579L47.231 2.39348L47.2032 2.42143C47.1933 2.43007 47.184 2.43946 47.1753 2.44937L47.1475 2.47706L47.1197 2.505L47.0918 2.53023L47.0665 2.55817L47.0386 2.58611C47.0287 2.59475 47.0194 2.60389 47.0107 2.6138C47.0008 2.62244 46.9916 2.63184 46.9829 2.64174L46.955 2.66969L46.9272 2.69738L46.8993 2.72532L46.8715 2.75326C46.8616 2.7619 46.8523 2.77105 46.8436 2.78096L46.8158 2.8089L46.7879 2.83659L46.7601 2.86206L46.7348 2.89L46.7069 2.9177L46.6791 2.94564C46.6692 2.95428 46.6598 2.96343 46.6512 2.97333C46.6413 2.98197 46.632 2.99137 46.6234 3.00127L46.5955 3.02922L46.5676 3.05691L46.5398 3.08485C46.5299 3.09349 46.5206 3.10289 46.5119 3.11279L46.4841 3.14049L46.4562 3.16843L46.4284 3.19365L46.4031 3.22159L46.3752 3.24953L46.3474 3.27723L46.3195 3.30517C46.3096 3.31381 46.3003 3.3232 46.2917 3.33311L46.2638 3.36081L46.236 3.38875L46.2081 3.41644C46.1982 3.42508 46.1889 3.43448 46.1803 3.44438L46.1524 3.47232L46.1245 3.49755C46.1165 3.50806 46.1072 3.51752 46.0967 3.52549L46.0714 3.55318L46.0435 3.58112C46.0336 3.58976 46.0243 3.59916 46.0157 3.60906L45.9878 3.63676L45.96 3.6647L45.9321 3.69264L45.9043 3.72034C45.8944 3.72898 45.885 3.73837 45.8764 3.74828C45.8665 3.75692 45.8572 3.76631 45.8486 3.77622L45.8207 3.80391L45.7929 3.83186L45.765 3.85708L45.7397 3.88502L45.7118 3.91271C45.7019 3.92135 45.6926 3.93075 45.6839 3.94065C45.674 3.94929 45.6648 3.95869 45.6561 3.9686C45.6462 3.97723 45.6369 3.98638 45.6282 3.99629L45.6004 4.02423L45.5725 4.05217C45.5626 4.06081 45.5534 4.06996 45.5447 4.07987C45.5348 4.08851 45.5255 4.0979 45.5168 4.10781L45.489 4.13575L45.4611 4.16097C45.4532 4.17149 45.4438 4.18095 45.4333 4.18891L45.408 4.21661L45.3801 4.24455C45.3702 4.25319 45.3609 4.26258 45.3523 4.27249C45.3424 4.28113 45.333 4.29028 45.3244 4.30019L45.2966 4.32813L45.2687 4.35582L45.2408 4.38376C45.2309 4.3924 45.2217 4.4018 45.213 4.4117L45.1851 4.4394L45.1573 4.46734L45.1294 4.49256L45.1042 4.5205L45.0763 4.54844C45.0664 4.55708 45.057 4.56623 45.0484 4.57614C45.0385 4.58478 45.0292 4.59417 45.0206 4.60408L44.9927 4.63202L44.9649 4.65972L44.937 4.68766L44.9092 4.7156C44.8993 4.72424 44.8899 4.73339 44.8813 4.74329L44.8535 4.77123L44.8256 4.79893L44.7977 4.8244L44.7724 4.85234L44.7446 4.88003L44.7167 4.90798C44.7068 4.91661 44.6975 4.92576 44.6889 4.93567C44.679 4.94431 44.6697 4.9537 44.661 4.96361L44.6332 4.99155L44.6053 5.01925C44.3974 5.2261 44.2435 5.48103 44.1572 5.7613L42.5037 11.2203L39.5843 1.59851C39.4753 1.23307 39.2514 0.912427 38.9458 0.684353C38.6401 0.45628 38.2692 0.332935 37.8878 0.332488H31.8109C31.5644 0.332784 31.3206 0.384471 31.0952 0.484312C30.8698 0.584153 30.6677 0.729962 30.5018 0.912336L30.474 0.940278L30.4461 0.967972C30.4362 0.976611 30.4269 0.986006 30.4183 0.995914L30.3904 1.02386L30.3625 1.05155C30.3539 1.06146 30.3446 1.07085 30.3347 1.07949L30.3068 1.10743L30.279 1.13513L30.2511 1.1606L30.2258 1.18829C30.2159 1.19693 30.2066 1.20632 30.198 1.21623L30.1701 1.24417C30.1602 1.25281 30.1509 1.26196 30.1423 1.27187C30.1324 1.28051 30.123 1.2899 30.1144 1.29981L30.0866 1.3275L30.0587 1.35544C30.0501 1.36535 30.0408 1.37475 30.0309 1.38339L30.003 1.41108L29.9752 1.43902L29.9473 1.46696L29.9194 1.49219L29.8941 1.52013C29.8842 1.52877 29.8749 1.53791 29.8663 1.54782C29.8563 1.55646 29.8471 1.56585 29.8384 1.57576C29.8285 1.5844 29.8192 1.5938 29.8106 1.6037C29.8006 1.61234 29.7914 1.62149 29.7827 1.6314C29.7728 1.64004 29.7635 1.64943 29.7549 1.65934L29.727 1.68728C29.7184 1.69719 29.7091 1.70634 29.6992 1.71498C29.6905 1.72488 29.6812 1.73428 29.6713 1.74292L29.6435 1.77061L29.6156 1.79608L29.5903 1.82377L29.5624 1.85172C29.5525 1.86036 29.5432 1.86975 29.5346 1.87966C29.5247 1.8883 29.5154 1.89744 29.5067 1.90735L29.4788 1.93529C29.4689 1.94393 29.4597 1.95333 29.451 1.96323C29.4411 1.97187 29.4318 1.98102 29.4231 1.99093L29.3953 2.01887C29.3867 2.02878 29.3774 2.03817 29.3674 2.04681L29.3396 2.07451L29.3118 2.10245L29.2839 2.12767L29.2586 2.15561L29.2307 2.18355L29.2029 2.21125C29.193 2.21989 29.1836 2.22928 29.175 2.23919C29.1651 2.24783 29.1558 2.25697 29.1472 2.26688L29.1193 2.29482L29.0915 2.32277L29.0636 2.35046L29.0357 2.3784L29.0079 2.40634L28.98 2.43404L28.9522 2.45951L28.9269 2.4872C28.917 2.49584 28.9077 2.50523 28.8991 2.51514L28.8712 2.54308L28.8433 2.57078C28.8334 2.57942 28.8241 2.58881 28.8155 2.59872C28.8056 2.60736 28.7962 2.61675 28.7876 2.62666L28.7598 2.65435L28.7319 2.6823L28.7041 2.70999L28.6762 2.73793L28.6484 2.76587L28.623 2.7911L28.5952 2.81904L28.5673 2.84673C28.5574 2.85537 28.5481 2.86476 28.5395 2.87467L28.5116 2.90261L28.4838 2.93031C28.4739 2.93895 28.4646 2.94834 28.4559 2.95825L28.4281 2.98619C28.4194 2.9961 28.4101 3.00525 28.4002 3.01389C28.3915 3.02379 28.3823 3.03319 28.3724 3.04183L28.3445 3.06977L28.3167 3.09746L28.2888 3.12293L28.2635 3.15063C28.2536 3.15927 28.2443 3.16866 28.2356 3.17857L28.2078 3.20651C28.1979 3.21515 28.1886 3.2243 28.1799 3.2342C28.17 3.24284 28.1607 3.25224 28.1521 3.26214L28.1242 3.28984L28.0964 3.31778C28.0877 3.32769 28.0784 3.33708 28.0685 3.34572L28.0407 3.37342L28.0128 3.40136L27.985 3.4293L27.9571 3.45452L27.9318 3.48246C27.9219 3.4911 27.9126 3.50025 27.9039 3.51016C27.894 3.5188 27.8847 3.52819 27.8761 3.5381C27.8662 3.54674 27.8569 3.55613 27.8482 3.56604C27.8383 3.57468 27.829 3.58383 27.8204 3.59373C27.8105 3.60237 27.8012 3.61177 27.7925 3.62168L27.7647 3.64962C27.7561 3.65952 27.7467 3.66867 27.7368 3.67731L27.7089 3.70525L27.6811 3.73295L27.6532 3.75842C27.6453 3.76893 27.6359 3.77814 27.6254 3.78611L27.6001 3.81405C27.5902 3.82269 27.5809 3.83209 27.5723 3.84199C27.5624 3.85063 27.553 3.85978 27.5444 3.86969L27.5165 3.89763C27.5066 3.90627 27.4973 3.91566 27.4887 3.92557L27.4608 3.95326L27.433 3.98121C27.4244 3.99111 27.415 4.00051 27.4051 4.00915L27.3773 4.03684L27.3494 4.06478L27.3216 4.09001C27.3136 4.10052 27.3042 4.10998 27.2937 4.11795L27.2684 4.14589L27.2406 4.17358C27.2306 4.18222 27.2213 4.19162 27.2127 4.20152C27.2028 4.21016 27.1935 4.21931 27.1849 4.22922L27.157 4.25716L27.1292 4.2851L27.1013 4.3128L27.0734 4.34074L27.0456 4.36868L27.0177 4.39637L26.9899 4.42431L26.9645 4.44954C26.9546 4.45818 26.9454 4.46757 26.9367 4.47748L26.9088 4.50542L26.881 4.53311C26.8711 4.54175 26.8618 4.55115 26.8531 4.56106C26.8432 4.56969 26.8339 4.57909 26.8253 4.589L26.7974 4.61669L26.7696 4.64463L26.7417 4.67233L26.7139 4.70027L26.6861 4.72821L26.6582 4.75343L26.6328 4.78137L26.605 4.80907C26.5951 4.81771 26.5858 4.8271 26.5771 4.83701L26.5493 4.86495L26.5214 4.89264C26.5115 4.90128 26.5023 4.91068 26.4936 4.92059L26.4657 4.94853L26.4379 4.97622C26.4292 4.98613 26.4199 4.99552 26.41 5.00416L26.3822 5.0321L26.3543 5.0598C26.298 5.11875 26.2455 5.1814 26.1973 5.24723C26.0331 5.47623 25.9259 5.74096 25.8845 6.0197C25.8431 6.29845 25.8687 6.58319 25.9593 6.85003L33.9935 30.4183C34.113 30.7686 34.3391 31.0728 34.6402 31.288C34.9412 31.5032 35.3022 31.6189 35.6723 31.6186H43.8862C44.1192 31.6183 44.3497 31.5718 44.5648 31.4823C44.7799 31.3928 44.9752 31.2619 45.1396 31.0969C45.1495 31.0882 45.1588 31.0788 45.1675 31.0689C45.1774 31.0603 45.1866 31.0511 45.1953 31.0412L45.2232 31.0157C45.2318 31.0058 45.2411 30.9967 45.251 30.9881C45.2589 30.9775 45.2683 30.9681 45.2788 30.9601C45.2868 30.9496 45.2962 30.9404 45.3067 30.9324L45.3345 30.9045L45.3599 30.8765C45.3698 30.8679 45.3791 30.8587 45.3877 30.8488C45.3976 30.8402 45.4069 30.8308 45.4156 30.8209C45.4261 30.8129 45.4354 30.8035 45.4434 30.793C45.4533 30.7843 45.4626 30.7752 45.4713 30.7653C45.4812 30.7566 45.4905 30.7472 45.4991 30.7373C45.509 30.7287 45.5183 30.7193 45.527 30.7094L45.5548 30.6842C45.5634 30.6743 45.5728 30.6649 45.5827 30.6562C45.5907 30.6457 45.6 30.6365 45.6106 30.6285C45.6185 30.618 45.6279 30.6085 45.6384 30.6006C45.647 30.5907 45.6564 30.5813 45.6663 30.5726L45.6915 30.5449C45.7015 30.5363 45.7108 30.5269 45.7194 30.517C45.7299 30.509 45.7393 30.4998 45.7472 30.4893C45.7571 30.4807 45.7665 30.4713 45.7751 30.4614C45.785 30.4527 45.7944 30.4433 45.803 30.4334C45.8129 30.4248 45.8222 30.4156 45.8308 30.4057C45.8407 30.3971 45.8501 30.3877 45.8587 30.3778L45.8865 30.3526C45.8952 30.3427 45.9045 30.3333 45.9144 30.3246C45.9224 30.3141 45.9317 30.3047 45.9422 30.2967C45.9502 30.2862 45.9596 30.277 45.9701 30.269C45.9787 30.2591 45.988 30.2497 45.9979 30.2411L46.0233 30.2131C46.0332 30.2045 46.0425 30.1953 46.0511 30.1854C46.061 30.1768 46.0703 30.1674 46.079 30.1575C46.0895 30.1495 46.0989 30.14 46.1068 30.1295C46.1167 30.1209 46.126 30.1117 46.1347 30.1018C46.1446 30.0932 46.1539 30.0838 46.1625 30.0739C46.1724 30.0653 46.1817 30.0561 46.1903 30.0462L46.2182 30.0207C46.2269 30.0108 46.2362 30.0014 46.2461 29.9928C46.2541 29.9823 46.2634 29.9731 46.2739 29.9651C46.2819 29.9546 46.2913 29.9451 46.3018 29.9372L46.3271 29.9095L46.355 29.8815C46.3649 29.8729 46.3741 29.8635 46.3828 29.8536C46.3927 29.8449 46.402 29.8358 46.4107 29.8259C46.4206 29.8172 46.4299 29.8078 46.4385 29.7979C46.4485 29.7893 46.4577 29.7799 46.4664 29.77C46.4763 29.7614 46.4856 29.7522 46.4942 29.7423L46.5221 29.7168C46.5307 29.7069 46.54 29.6978 46.5499 29.6891C46.5586 29.6792 46.5679 29.6698 46.5778 29.6612C46.5857 29.6507 46.5951 29.6412 46.6056 29.6333C46.6136 29.6227 46.6229 29.6135 46.6335 29.6056L46.6588 29.5776L46.6867 29.5497L46.7145 29.522C46.725 29.514 46.7344 29.5046 46.7424 29.494C46.7523 29.4854 46.7616 29.4763 46.7702 29.4664C46.7801 29.4577 46.7894 29.4483 46.7981 29.4384C46.808 29.4298 46.8173 29.4204 46.8259 29.4105L46.8538 29.3852C46.8624 29.3753 46.8717 29.3659 46.8817 29.3573C46.8903 29.3474 46.8996 29.3383 46.9095 29.3296C46.9174 29.3191 46.9268 29.3096 46.9374 29.3017L46.9652 29.2737L46.9905 29.246C47.0004 29.2374 47.0097 29.228 47.0183 29.2181L47.0462 29.1902C47.0567 29.1822 47.0661 29.173 47.074 29.1625C47.0839 29.1538 47.0933 29.1444 47.1019 29.1345C47.1118 29.1259 47.1212 29.1165 47.1298 29.1066C47.1397 29.0979 47.149 29.0888 47.1576 29.0789L47.1855 29.0534C47.1941 29.0435 47.2034 29.0344 47.2133 29.0257C47.2213 29.0152 47.2307 29.0057 47.2412 28.9978C47.2492 28.9873 47.2585 28.9781 47.269 28.9701L47.2969 28.9421L47.3222 28.9142C47.3321 28.9056 47.3414 28.8964 47.35 28.8865C47.36 28.8779 47.3693 28.8685 47.3779 28.8586C47.3884 28.8506 47.3978 28.8411 47.4057 28.8306C47.4157 28.822 47.425 28.8128 47.4336 28.8029C47.4435 28.7943 47.4528 28.7849 47.4614 28.775C47.4713 28.7663 47.4807 28.757 47.4893 28.747C47.4992 28.7384 47.5085 28.7293 47.5171 28.7194L47.545 28.6939C47.553 28.6834 47.5624 28.6742 47.5729 28.6662C47.5809 28.6557 47.5902 28.6462 47.6007 28.6382C47.6094 28.6283 47.6187 28.6189 47.6286 28.6103L47.6539 28.5826C47.6638 28.574 47.6731 28.5646 47.6818 28.5547C47.6923 28.5467 47.7016 28.5375 47.7096 28.527C47.7195 28.5183 47.7288 28.5089 47.7375 28.499C47.7474 28.4904 47.7567 28.481 47.7653 28.4711C47.7752 28.4625 47.7845 28.4533 47.7932 28.4434C47.8031 28.4348 47.8124 28.4254 47.821 28.4155L47.8489 28.3902C47.8575 28.3803 47.8668 28.3709 47.8767 28.3623C47.8847 28.3518 47.894 28.3423 47.9045 28.3344C47.9125 28.3238 47.9219 28.3146 47.9324 28.3067L47.9578 28.2787C47.9677 28.2701 47.977 28.2607 47.9856 28.2508C47.9955 28.2421 48.0048 28.233 48.0135 28.2231C48.0234 28.2144 48.0326 28.205 48.0413 28.1951C48.0518 28.1872 48.0612 28.1777 48.0692 28.1672C48.0791 28.1586 48.0883 28.1494 48.097 28.1395C48.1069 28.1309 48.1162 28.1215 48.1249 28.1116C48.1348 28.1029 48.144 28.0938 48.1527 28.0839L48.1806 28.0584C48.1892 28.0485 48.1985 28.0391 48.2084 28.0305C48.2164 28.0199 48.2257 28.0107 48.2363 28.0028C48.2442 27.9922 48.2536 27.9828 48.2641 27.9748L48.2894 27.9471L48.3173 27.9192C48.3272 27.9105 48.3365 27.9011 48.3451 27.8912C48.355 27.8826 48.3644 27.8735 48.373 27.8635C48.3835 27.8556 48.3929 27.8461 48.4009 27.8356C48.4108 27.827 48.4201 27.8176 48.4287 27.8077C48.4386 27.799 48.4479 27.7899 48.4566 27.78C48.4665 27.7713 48.4758 27.7619 48.4844 27.752L48.5123 27.7268C48.5202 27.7163 48.5296 27.7068 48.5401 27.6989C48.5481 27.6884 48.5575 27.6789 48.568 27.6709C48.5759 27.6604 48.5853 27.6512 48.5958 27.6432L48.6211 27.6153L48.649 27.5873L48.6768 27.5597C48.6873 27.5517 48.6967 27.5422 48.7047 27.5317C48.7146 27.5231 48.7239 27.5139 48.7325 27.504C48.7424 27.4954 48.7518 27.486 48.7604 27.4761C48.7703 27.4674 48.7796 27.458 48.7882 27.4481L48.8161 27.4229C48.8247 27.413 48.8341 27.4036 48.844 27.395C48.852 27.3845 48.8613 27.3752 48.8718 27.3673C48.8798 27.3568 48.8892 27.3473 48.8997 27.3393L48.925 27.3114L48.9529 27.2837C48.9628 27.2751 48.972 27.2657 48.9807 27.2558L49.0085 27.2278C49.0191 27.2198 49.0284 27.2106 49.0364 27.2001C49.0463 27.1915 49.0556 27.1821 49.0642 27.1722C49.0742 27.1635 49.0835 27.1541 49.0921 27.1442C49.102 27.1356 49.1113 27.1265 49.1199 27.1165L49.1478 27.0911C49.1565 27.0812 49.1657 27.072 49.1756 27.0634C49.1836 27.0529 49.193 27.0434 49.2035 27.0354C49.2115 27.0249 49.2208 27.0157 49.2313 27.0077L49.2592 26.9798L49.2846 26.9519C49.49 26.7561 49.6454 26.5138 49.7377 26.2454L50.8316 23.0324C51.0555 23.7537 51.3375 24.4557 51.6748 25.1315C52.7299 27.242 54.3828 28.9953 56.4275 30.1728C58.3746 31.3097 60.6889 31.9121 63.3095 31.9653H63.383C66.0036 31.9121 68.3179 31.3097 70.2651 30.1728C71.2831 29.5829 72.2109 28.8494 73.02 27.9951L73.0478 27.9672L73.0757 27.9395C73.0843 27.9296 73.0936 27.9202 73.1035 27.9115L73.1314 27.8838C73.14 27.8739 73.1493 27.8645 73.1592 27.8559L73.1871 27.8279L73.2124 27.8002C73.2229 27.7923 73.2323 27.7828 73.2402 27.7723C73.2507 27.7643 73.2601 27.7549 73.2681 27.7444L73.2959 27.7191L73.3238 27.6912L73.3516 27.6635L73.3795 27.6356C73.3881 27.6257 73.3974 27.6163 73.4073 27.6076C73.416 27.5977 73.4253 27.5886 73.4352 27.5799C73.4438 27.57 73.4532 27.5606 73.4631 27.552L73.4909 27.524L73.5188 27.4964L73.5441 27.4684L73.5719 27.4432L73.5997 27.4152L73.6276 27.3876L73.6555 27.3596C73.6654 27.351 73.6747 27.3416 73.6833 27.3317L73.7112 27.304C73.7198 27.2941 73.7291 27.2847 73.739 27.276C73.7477 27.2661 73.757 27.2567 73.7669 27.2481C73.7755 27.2382 73.7848 27.229 73.7947 27.2204C73.8034 27.2105 73.8127 27.2011 73.8226 27.1925L73.8479 27.1645C73.8585 27.1565 73.8678 27.1473 73.8758 27.1368L73.9036 27.1114L73.9315 27.0837L73.9593 27.0557C73.9692 27.0471 73.9785 27.0377 73.9872 27.0278L74.015 27.0001L74.0429 26.9721C74.0515 26.9622 74.0608 26.9531 74.0707 26.9444L74.0986 26.9165C74.1073 26.9066 74.1165 26.8972 74.1264 26.8886C74.1351 26.8787 74.1444 26.8695 74.1543 26.8609L74.1796 26.8329C74.1901 26.825 74.1995 26.8155 74.2075 26.805C74.218 26.797 74.2273 26.7878 74.2353 26.7773L74.2632 26.7518L74.2911 26.7241L74.3189 26.6962L74.3468 26.6682L74.3746 26.6406L74.4024 26.6126C74.4111 26.6027 74.4204 26.5933 74.4303 26.5847L74.4581 26.557L74.486 26.529L74.5138 26.5013L74.5392 26.4734L74.567 26.4479L74.5949 26.4202L74.6227 26.3923L74.6506 26.3646L74.6784 26.3367L74.7063 26.3087L74.7342 26.281L74.762 26.2531C74.7706 26.2432 74.78 26.2338 74.7899 26.2251L74.8151 26.1974C74.8257 26.1895 74.8351 26.18 74.843 26.1695C74.8535 26.1615 74.8629 26.1521 74.8708 26.1416L74.8987 26.1163L74.9265 26.0884L74.9544 26.0607C74.9643 26.0521 74.9737 26.0427 74.9823 26.0328L75.0101 26.0048C75.0188 25.9949 75.0281 25.9858 75.038 25.9771C75.0466 25.9672 75.0559 25.9578 75.0658 25.9492L75.0937 25.9215C75.1023 25.9116 75.1116 25.9022 75.1215 25.8935C75.1301 25.8836 75.1395 25.8742 75.1494 25.8656L75.1747 25.8379C75.1852 25.8299 75.1946 25.8205 75.2026 25.81L75.2304 25.7847L75.2583 25.7568L75.2861 25.7289L75.3139 25.7012L75.3418 25.6732C75.3505 25.6633 75.3597 25.6539 75.3696 25.6453C75.3783 25.6354 75.3876 25.6262 75.3975 25.6176C75.4062 25.6077 75.4155 25.5983 75.4254 25.5897L75.4532 25.5617L75.4811 25.534L75.5064 25.5061C75.5169 25.4981 75.5263 25.4889 75.5343 25.4784L75.5621 25.4529L75.59 25.4252L75.6178 25.3973L75.6457 25.3693L75.6735 25.3416C75.6822 25.3317 75.6915 25.3223 75.7014 25.3137C75.71 25.3038 75.7193 25.2944 75.7292 25.2858C75.7379 25.2758 75.7472 25.2667 75.7571 25.2581C75.7657 25.2482 75.775 25.2388 75.7849 25.2301L75.8128 25.2022L75.8381 25.1745L75.8558 25.1567V29.8462C75.8558 30.3162 76.0426 30.7669 76.375 31.0993C76.7074 31.4317 77.1582 31.6186 77.6283 31.6186H83.3431C83.5789 31.6186 83.8123 31.5714 84.0297 31.4801C84.2471 31.3888 84.4441 31.2551 84.6091 31.0867L84.637 31.059L84.6648 31.0311L84.6927 31.0031C84.7013 30.9932 84.7106 30.9841 84.7205 30.9754C84.7292 30.9655 84.7384 30.9561 84.7484 30.9475L84.7762 30.9196L84.8015 30.8919C84.812 30.8839 84.8214 30.8744 84.8294 30.8639C84.8399 30.856 84.8493 30.8465 84.8573 30.836L84.8851 30.8108C84.8937 30.8009 84.9031 30.7915 84.913 30.7828C84.9216 30.7729 84.9309 30.7638 84.9408 30.7551C84.9494 30.7452 84.9588 30.7358 84.9687 30.7272L84.9965 30.6992L85.0244 30.6715L85.0522 30.6436L85.0801 30.6159L85.1079 30.588L85.1332 30.56C85.1437 30.5521 85.1531 30.5428 85.1611 30.5323L85.1889 30.5069L85.2168 30.4792C85.2254 30.4693 85.2347 30.4599 85.2446 30.4512C85.2533 30.4413 85.2626 30.4319 85.2725 30.4233L85.3004 30.3956L85.3282 30.3677C85.3368 30.3577 85.3462 30.3484 85.3561 30.3397L85.3839 30.312L85.4118 30.2841L85.4371 30.2561C85.4476 30.2482 85.457 30.239 85.4649 30.2284C85.4755 30.2205 85.4849 30.211 85.4928 30.2005L85.5206 30.1753L85.5485 30.1473C85.5572 30.1374 85.5664 30.128 85.5763 30.1194C85.585 30.1095 85.5943 30.1003 85.6042 30.0917L85.632 30.0638L85.6599 30.0361C85.6686 30.0262 85.6778 30.0168 85.6877 30.0081C85.6964 29.9982 85.7057 29.9888 85.7156 29.9802L85.7435 29.9525L85.7688 29.9245C85.7793 29.9166 85.7887 29.9071 85.7967 29.8966C85.8072 29.8886 85.8165 29.8794 85.8245 29.8689L85.8524 29.8434L85.8802 29.8157C85.8888 29.8058 85.8981 29.7964 85.9081 29.7878C85.9167 29.7779 85.926 29.7685 85.9359 29.7599L85.9637 29.7322L85.9916 29.7042L86.0194 29.6763C86.0281 29.6664 86.0374 29.6572 86.0473 29.6486L86.0751 29.6206L86.1005 29.593C86.111 29.585 86.1204 29.5755 86.1284 29.565C86.1389 29.557 86.1482 29.5476 86.1562 29.5371L86.1841 29.5119L86.2119 29.4839C86.2205 29.474 86.2299 29.4649 86.2398 29.4562L86.2676 29.4283L86.2955 29.4003L86.3233 29.3726C86.3319 29.3627 86.3413 29.3533 86.3512 29.3447C86.3598 29.3348 86.3691 29.3254 86.379 29.3168L86.4043 29.2891C86.4148 29.2811 86.4242 29.2716 86.4322 29.2611C86.4427 29.2532 86.4521 29.2437 86.46 29.2332C86.4705 29.2252 86.4799 29.216 86.4879 29.2055L86.5157 29.18C86.5244 29.1701 86.5337 29.161 86.5436 29.1523C86.5522 29.1424 86.5616 29.133 86.5715 29.1244L86.5993 29.0967L86.6272 29.0687L86.655 29.0408C86.6636 29.0309 86.673 29.0217 86.6829 29.0131C86.6915 29.0032 86.7008 28.9938 86.7107 28.9852L86.736 28.9572C86.7465 28.9493 86.7559 28.94 86.7639 28.9295C86.7744 28.9216 86.7838 28.9121 86.7917 28.9016C86.8022 28.8936 86.8116 28.8842 86.8196 28.8736L86.8474 28.8484C86.8561 28.8385 86.8654 28.8291 86.8753 28.8205C86.8839 28.8106 86.8932 28.8014 86.9031 28.7928L86.931 28.7648L86.9588 28.7369L86.9867 28.7092L87.0146 28.6813L87.0424 28.6536L87.0703 28.6256L87.0956 28.5977C87.1061 28.5897 87.1155 28.5805 87.1234 28.57L87.1513 28.5445L87.1791 28.5168C87.1878 28.5069 87.1971 28.4975 87.207 28.4889C87.2156 28.479 87.2249 28.4696 87.2348 28.461C87.2435 28.451 87.2528 28.4419 87.2627 28.4333L87.2905 28.4053C87.2992 28.3954 87.3085 28.386 87.3184 28.3774L87.3462 28.3497L87.3741 28.3217L87.4019 28.2938L87.4273 28.2661C87.4378 28.2581 87.4472 28.2487 87.4552 28.2382L87.483 28.2129L87.5109 28.185C87.5195 28.1751 87.5288 28.1657 87.5387 28.1571C87.5473 28.1472 87.5566 28.138 87.5666 28.1294L87.5944 28.1014L87.6223 28.0737C87.6309 28.0638 87.6402 28.0544 87.6501 28.0458C87.6587 28.0359 87.668 28.0265 87.6779 28.0178L87.7058 27.9902L87.7311 27.9622C87.7416 27.9542 87.751 27.9448 87.759 27.9343C87.7695 27.9263 87.7788 27.9171 87.7868 27.9066L87.8147 27.8811L87.8425 27.8534C87.8511 27.8435 87.8605 27.8341 87.8704 27.8255C87.879 27.8156 87.8884 27.8062 87.8983 27.7975L87.9261 27.7698L87.954 27.7419L87.9818 27.7139C87.9904 27.704 87.9998 27.6949 88.0097 27.6863L88.0375 27.6583L88.0628 27.6306C88.0733 27.6227 88.0827 27.6132 88.0907 27.6027C88.1012 27.5947 88.1106 27.5853 88.1185 27.5747L88.1464 27.5495L88.1742 27.5216C88.1829 27.5117 88.1922 27.5025 88.2021 27.4939C88.2107 27.484 88.22 27.4746 88.2299 27.4659L88.2578 27.438L88.2856 27.4103C88.2943 27.4004 88.3036 27.391 88.3135 27.3824C88.3221 27.3725 88.3315 27.3631 88.3414 27.3544L88.3692 27.3267L88.3945 27.2988C88.4051 27.2908 88.4144 27.2814 88.4224 27.2708C88.4329 27.2629 88.4423 27.2537 88.4502 27.2431L88.4781 27.2177L88.5059 27.19C88.5146 27.1801 88.5239 27.1707 88.5338 27.162L88.5616 27.1343L88.5895 27.1064L88.6173 27.0785C88.626 27.0686 88.6353 27.0594 88.6452 27.0508C88.6538 27.0409 88.6631 27.0315 88.673 27.0228L88.7009 26.9949L88.7262 26.9672C88.7367 26.9592 88.7461 26.9498 88.7541 26.9393C88.9229 26.7744 89.0572 26.5775 89.1489 26.3601C89.2406 26.1427 89.2881 25.9092 89.2884 25.6732V13.2232C90.1294 13.3607 90.8941 13.7926 91.4461 14.442C91.998 15.0913 92.3012 15.9158 92.3015 16.768V29.8511C92.3015 30.3212 92.4882 30.7721 92.8206 31.1045C93.153 31.4369 93.6038 31.6235 94.0739 31.6235H99.7685C100.004 31.6236 100.238 31.5766 100.455 31.4853C100.672 31.394 100.869 31.2603 101.034 31.0919C101.044 31.0833 101.054 31.0739 101.062 31.064C101.072 31.0553 101.082 31.0459 101.09 31.036C101.1 31.0274 101.109 31.0182 101.118 31.0083C101.128 30.9997 101.137 30.9903 101.146 30.9804L101.174 30.9524C101.184 30.9438 101.193 30.9347 101.202 30.9248C101.211 30.9161 101.221 30.9067 101.229 30.8968C101.239 30.8882 101.249 30.879 101.257 30.8691C101.267 30.8605 101.277 30.8511 101.285 30.8412L101.313 30.8157C101.321 30.8052 101.33 30.796 101.341 30.788L101.366 30.7601L101.394 30.7324C101.404 30.7237 101.413 30.7143 101.422 30.7044C101.432 30.6958 101.441 30.6864 101.45 30.6765C101.46 30.6679 101.469 30.6587 101.478 30.6488C101.488 30.6402 101.497 30.6308 101.505 30.6209C101.515 30.6122 101.525 30.6028 101.533 30.5929C101.543 30.5843 101.553 30.5751 101.561 30.5652C101.571 30.5566 101.58 30.5472 101.589 30.5373L101.617 30.5121C101.625 30.5015 101.634 30.4921 101.645 30.4841C101.653 30.4736 101.662 30.4641 101.673 30.4562C101.681 30.4457 101.69 30.4364 101.7 30.4285L101.726 30.4005L101.754 30.3726C101.764 30.364 101.773 30.3548 101.781 30.3449C101.791 30.3363 101.801 30.3269 101.809 30.317L101.837 30.2893C101.847 30.2806 101.856 30.2712 101.865 30.2613C101.875 30.2527 101.884 30.2433 101.893 30.2334C101.903 30.2247 101.912 30.2156 101.921 30.2057L101.949 30.1802C101.957 30.1697 101.966 30.1605 101.976 30.1525C101.984 30.142 101.994 30.1326 102.004 30.1246L102.03 30.0966C102.039 30.088 102.049 30.0789 102.057 30.069C102.067 30.0603 102.077 30.0509 102.085 30.041L102.113 30.0131C102.123 30.0044 102.132 29.9953 102.141 29.9854C102.151 29.9767 102.16 29.9673 102.169 29.9574C102.179 29.9488 102.188 29.9394 102.197 29.9295C102.207 29.9209 102.216 29.9117 102.225 29.9018C102.234 29.8932 102.244 29.8838 102.252 29.8739L102.28 29.8486C102.288 29.8381 102.298 29.8287 102.308 29.8207C102.316 29.8102 102.325 29.801 102.336 29.793L102.361 29.7651L102.389 29.7371C102.399 29.7285 102.408 29.7193 102.417 29.7094L102.445 29.6815L102.473 29.6535C102.483 29.6449 102.492 29.6357 102.501 29.6258C102.51 29.6172 102.52 29.6078 102.528 29.5979C102.538 29.5893 102.548 29.5799 102.556 29.57C102.566 29.5613 102.575 29.5522 102.584 29.5423L102.612 29.5168C102.62 29.5063 102.629 29.4971 102.64 29.4891C102.648 29.4786 102.657 29.4691 102.668 29.4612L102.693 29.4332L102.721 29.4055L102.749 29.3776C102.759 29.3689 102.768 29.3598 102.777 29.3499L102.804 29.3219C102.814 29.3133 102.824 29.3039 102.832 29.294C102.842 29.2854 102.851 29.2762 102.86 29.2663C102.87 29.2577 102.879 29.2483 102.888 29.2384C102.898 29.2297 102.907 29.2203 102.916 29.2104L102.944 29.1852C102.952 29.1747 102.961 29.1652 102.971 29.1573C102.979 29.1468 102.989 29.1375 102.999 29.1296L103.025 29.1016C103.035 29.093 103.044 29.0836 103.053 29.0737C103.062 29.065 103.072 29.0559 103.08 29.046C103.09 29.0374 103.1 29.028 103.108 29.0181C103.118 29.0094 103.127 29 103.136 28.9901C103.146 28.9815 103.155 28.9723 103.164 28.9624C103.174 28.9538 103.183 28.9444 103.192 28.9345C103.202 28.9258 103.211 28.9167 103.22 28.9068C103.23 28.8981 103.239 28.8887 103.247 28.8788L103.275 28.8534C103.283 28.8429 103.293 28.8336 103.303 28.8257L103.329 28.7977C103.338 28.7891 103.348 28.7799 103.356 28.77C103.366 28.7614 103.376 28.752 103.384 28.7421C103.394 28.7335 103.403 28.7241 103.412 28.7142C103.422 28.7055 103.431 28.6964 103.44 28.6865C103.45 28.6778 103.459 28.6684 103.468 28.6585C103.478 28.6499 103.487 28.6405 103.496 28.6306C103.506 28.6219 103.515 28.6128 103.524 28.6029C103.533 28.5942 103.543 28.5849 103.551 28.5749L103.579 28.5497C103.587 28.5392 103.597 28.5297 103.607 28.5218C103.615 28.5113 103.624 28.5018 103.635 28.4938L103.66 28.4661L103.688 28.4382L103.716 28.4103C103.726 28.4016 103.735 28.3925 103.744 28.3826C103.754 28.3739 103.763 28.3645 103.772 28.3546L103.799 28.3269C103.809 28.3183 103.819 28.3089 103.827 28.299C103.974 28.4914 104.124 28.6788 104.283 28.8586C106.147 30.9374 108.676 31.9907 111.808 31.9907C113.994 32.0207 116.116 31.2527 117.776 29.8308L117.981 29.6535V29.8612C117.981 30.3313 118.168 30.7823 118.501 31.1147C118.833 31.4471 119.284 31.6337 119.754 31.6337H125.469C125.705 31.6337 125.938 31.5868 126.155 31.4955C126.373 31.4041 126.57 31.2704 126.735 31.102L126.763 31.0741L126.79 31.0462C126.799 31.0363 126.808 31.0271 126.818 31.0185L126.844 30.9905C126.854 30.9819 126.863 30.9725 126.871 30.9626C126.882 30.9546 126.891 30.9454 126.899 30.9349C126.91 30.9269 126.919 30.9175 126.927 30.9069C126.938 30.899 126.947 30.8895 126.955 30.879C126.965 30.8704 126.974 30.8612 126.983 30.8513L127.011 30.8258C127.019 30.8159 127.029 30.8068 127.039 30.7982C127.047 30.7882 127.057 30.7788 127.066 30.7702C127.075 30.7603 127.084 30.7512 127.094 30.7425C127.103 30.7326 127.112 30.7232 127.122 30.7146L127.15 30.6866L127.175 30.6589C127.186 30.651 127.195 30.6415 127.203 30.631C127.214 30.623 127.223 30.6136 127.231 30.6031C127.242 30.5951 127.251 30.5859 127.259 30.5754C127.269 30.5674 127.279 30.5579 127.287 30.5474L127.315 30.5222C127.323 30.5123 127.333 30.5029 127.342 30.4943C127.351 30.4843 127.36 30.475 127.37 30.4663C127.379 30.4564 127.388 30.4473 127.398 30.4386L127.426 30.4107L127.454 30.3827C127.463 30.3728 127.472 30.3637 127.482 30.355L127.507 30.3271L127.535 30.2994C127.545 30.2914 127.555 30.282 127.563 30.2715C127.573 30.2635 127.583 30.254 127.591 30.2435C127.601 30.2356 127.61 30.2263 127.618 30.2158L127.646 30.1904C127.655 30.1805 127.664 30.1713 127.674 30.1627C127.683 30.1528 127.692 30.1434 127.702 30.1347C127.711 30.1248 127.72 30.1154 127.73 30.1068C127.738 30.0969 127.748 30.0877 127.758 30.0791L127.786 30.0511C127.794 30.0412 127.804 30.0318 127.813 30.0232L127.839 29.9955C127.849 29.9875 127.859 29.9781 127.867 29.9676C127.877 29.9596 127.886 29.9501 127.894 29.9396C127.905 29.9317 127.914 29.9224 127.922 29.9119C127.933 29.904 127.942 29.8945 127.95 29.884L127.978 29.8588C127.987 29.8489 127.996 29.8395 128.006 29.8308C128.014 29.8209 128.024 29.8115 128.034 29.8029C128.042 29.793 128.052 29.7838 128.062 29.7752C128.07 29.7653 128.08 29.7559 128.089 29.7473C128.098 29.7373 128.107 29.7282 128.117 29.7196L128.145 29.6916L128.17 29.6637C128.181 29.6557 128.19 29.6465 128.198 29.636C128.209 29.628 128.218 29.6186 128.226 29.608C128.237 29.6001 128.246 29.5906 128.254 29.5801C128.264 29.5721 128.274 29.5629 128.282 29.5524L128.31 29.5269C128.318 29.517 128.328 29.5079 128.338 29.4992C128.346 29.4893 128.355 29.4799 128.365 29.4713L128.393 29.4434L128.421 29.4157C128.43 29.4058 128.439 29.3964 128.449 29.3877L128.474 29.3598C128.484 29.3511 128.493 29.342 128.502 29.3321C128.513 29.3241 128.522 29.3147 128.53 29.3041C128.541 29.2962 128.55 29.287 128.558 29.2764C128.568 29.2685 128.578 29.259 128.586 29.2485C128.596 29.2399 128.605 29.2305 128.614 29.2206L128.641 29.1953C128.65 29.1854 128.659 29.176 128.669 29.1674C128.678 29.1575 128.687 29.1483 128.697 29.1397L128.725 29.1118L128.753 29.0838C128.761 29.0739 128.771 29.0648 128.781 29.0561L128.806 29.0282C128.816 29.0196 128.825 29.0102 128.834 29.0002C128.844 28.9923 128.854 28.9831 128.862 28.9726C128.872 28.9646 128.882 28.9551 128.89 28.9446C128.9 28.9366 128.909 28.9272 128.917 28.9167C128.927 28.908 128.937 28.8989 128.945 28.889L128.973 28.8635C128.982 28.8536 128.991 28.8445 129.001 28.8358C129.01 28.8259 129.019 28.8165 129.029 28.8079L129.057 28.7802C129.065 28.7703 129.075 28.7609 129.085 28.7522L129.112 28.7243L129.138 28.6966C129.148 28.6886 129.158 28.6792 129.166 28.6687C129.176 28.6607 129.185 28.6512 129.193 28.6407C129.204 28.6328 129.213 28.6235 129.221 28.613C129.232 28.6051 129.241 28.5956 129.249 28.5851L129.277 28.5599C129.286 28.55 129.295 28.5406 129.305 28.5319C129.313 28.522 129.323 28.5126 129.333 28.504C129.341 28.4941 129.351 28.4849 129.361 28.4763C129.368 28.4658 129.378 28.4563 129.388 28.4483L129.416 28.4204C129.425 28.4105 129.434 28.4013 129.444 28.3927L129.469 28.3648L129.497 28.3371C129.508 28.3291 129.517 28.3196 129.525 28.3091C129.536 28.3012 129.545 28.2917 129.553 28.2812C129.563 28.2732 129.573 28.264 129.581 28.2535L129.609 28.228C129.617 28.2181 129.627 28.209 129.636 28.2003C129.645 28.1904 129.654 28.181 129.664 28.1724C129.673 28.1625 129.682 28.1531 129.692 28.1444C129.701 28.1345 129.71 28.1254 129.72 28.1168L129.748 28.0888C129.757 28.0789 129.766 28.0695 129.776 28.0609L129.801 28.0332C129.811 28.0245 129.82 28.0151 129.829 28.0052C129.839 27.9973 129.849 27.9878 129.857 27.9773C129.867 27.9693 129.877 27.9601 129.885 27.9496C129.895 27.9416 129.905 27.9322 129.912 27.9217L129.94 27.8964C129.949 27.8865 129.958 27.8771 129.968 27.8685L129.983 27.8534C130.823 28.7744 131.798 29.5616 132.875 30.1879C134.822 31.3248 137.139 31.9274 139.757 31.9806H139.833C142.454 31.9274 144.768 31.3248 146.715 30.1879C147.733 29.598 148.661 28.8647 149.47 28.0104L149.498 27.9825L149.523 27.9545C149.533 27.9459 149.542 27.9368 149.551 27.9268L149.579 27.8989L149.607 27.871C149.617 27.863 149.627 27.8538 149.635 27.8433C149.645 27.8353 149.654 27.8258 149.662 27.8153C149.672 27.8067 149.682 27.7973 149.69 27.7874L149.718 27.7622C149.726 27.7517 149.736 27.7422 149.746 27.7342L149.774 27.7065C149.782 27.6966 149.792 27.6872 149.802 27.6786C149.81 27.6687 149.82 27.6593 149.83 27.6506L149.855 27.623L149.883 27.595C149.893 27.5864 149.902 27.5772 149.911 27.5673L149.938 27.5394C149.949 27.5314 149.958 27.5219 149.966 27.5114C149.977 27.5035 149.986 27.4943 149.994 27.4837L150.022 27.4583C150.03 27.4478 150.039 27.4385 150.05 27.4306C150.058 27.4201 150.067 27.4106 150.078 27.4026C150.086 27.3921 150.095 27.3827 150.106 27.3747L150.133 27.347C150.142 27.3371 150.151 27.3277 150.161 27.3191L150.187 27.2911C150.197 27.2825 150.206 27.2733 150.214 27.2634L150.242 27.2355C150.252 27.2268 150.261 27.2174 150.27 27.2075C150.281 27.1996 150.29 27.1904 150.298 27.1798C150.308 27.1712 150.317 27.1618 150.326 27.1519L150.354 27.1267C150.362 27.1162 150.371 27.1067 150.382 27.0987C150.389 27.0882 150.399 27.079 150.409 27.071C150.418 27.0611 150.427 27.0517 150.437 27.0431L150.465 27.0152C150.474 27.0053 150.483 26.9961 150.493 26.9875L150.518 26.9595C150.528 26.9509 150.537 26.9415 150.546 26.9316C150.556 26.9229 150.565 26.9138 150.574 26.9039C150.584 26.8953 150.593 26.8859 150.602 26.876C150.612 26.868 150.622 26.8585 150.63 26.848C150.64 26.8394 150.649 26.8302 150.658 26.8203C150.667 26.8117 150.677 26.8023 150.685 26.7924L150.713 26.7672C150.721 26.7566 150.731 26.7472 150.741 26.7392L150.769 26.7113C150.778 26.7014 150.787 26.6922 150.797 26.6836L150.825 26.6556L150.85 26.6279C150.86 26.6193 150.869 26.6099 150.878 26.6C150.888 26.5914 150.897 26.582 150.906 26.5721L150.934 26.5444C150.944 26.5364 150.953 26.5269 150.961 26.5164C150.971 26.5078 150.981 26.4984 150.989 26.4885L151.017 26.4633C151.025 26.4527 151.034 26.4433 151.045 26.4353C151.053 26.4248 151.062 26.4156 151.073 26.4076C151.081 26.3971 151.09 26.3876 151.101 26.3797C151.109 26.3698 151.119 26.3604 151.129 26.3517C151.137 26.3418 151.146 26.3327 151.156 26.324L151.182 26.2961L151.209 26.2682C151.219 26.2595 151.229 26.2504 151.237 26.2405C151.247 26.2318 151.257 26.2224 151.265 26.2125C151.276 26.2046 151.285 26.1953 151.293 26.1848C151.303 26.1762 151.312 26.1668 151.321 26.1569L151.349 26.1314C151.357 26.1209 151.366 26.1117 151.377 26.1037C151.385 26.0932 151.394 26.0838 151.404 26.0758C151.413 26.0659 151.422 26.0567 151.432 26.0481L151.458 26.0201L151.486 25.9922C151.495 25.9836 151.505 25.9744 151.513 25.9645L151.541 25.9366L151.569 25.9086C151.579 25.9 151.588 25.8908 151.597 25.8809C151.607 25.873 151.617 25.8635 151.625 25.853C151.635 25.8444 151.644 25.835 151.653 25.8251L151.68 25.7998C151.688 25.7893 151.698 25.7799 151.708 25.7719C151.716 25.7614 151.726 25.7522 151.736 25.7442C151.745 25.7343 151.754 25.7249 151.764 25.7163C151.773 25.7063 151.782 25.697 151.792 25.6883L151.817 25.6606L151.845 25.6327C151.855 25.624 151.864 25.6149 151.873 25.605L151.901 25.577C151.911 25.5691 151.921 25.5596 151.929 25.5491C151.939 25.5411 151.949 25.5319 151.956 25.5214C151.966 25.5128 151.976 25.5034 151.984 25.4935L152.012 25.4682C152.02 25.4577 152.029 25.4483 152.04 25.4403C152.048 25.4298 152.057 25.4203 152.068 25.4124L152.096 25.3847C152.104 25.3748 152.114 25.3654 152.124 25.3567L152.149 25.3288C152.159 25.3201 152.168 25.311 152.177 25.3011L152.205 25.2731C152.215 25.2645 152.224 25.2551 152.232 25.2452C152.243 25.2372 152.252 25.228 152.26 25.2175C152.27 25.2089 152.28 25.1995 152.288 25.1896L152.316 25.1643C152.324 25.1538 152.333 25.1444 152.344 25.1364C152.352 25.1259 152.361 25.1167 152.372 25.1087C152.38 25.0982 152.389 25.0887 152.4 25.0808L152.427 25.0528C152.436 25.0429 152.445 25.0338 152.455 25.0251L152.481 24.9972C152.49 24.9886 152.5 24.9792 152.508 24.9693C152.518 24.9606 152.528 24.9515 152.536 24.9416C152.546 24.9329 152.556 24.9235 152.564 24.9136C152.575 24.9056 152.584 24.8962 152.592 24.8857C152.602 24.877 152.611 24.8679 152.62 24.858L152.648 24.8325C152.656 24.822 152.665 24.8128 152.676 24.8048C152.684 24.7943 152.693 24.7848 152.703 24.7769L152.731 24.7489C152.74 24.739 152.749 24.7299 152.759 24.7212L152.787 24.6933L152.812 24.6656C152.822 24.657 152.832 24.6476 152.84 24.6377C152.85 24.629 152.859 24.6196 152.868 24.6097L152.896 24.582C152.906 24.5741 152.916 24.5646 152.924 24.5541C152.934 24.5454 152.943 24.5361 152.952 24.5261L152.979 24.5009C152.987 24.4904 152.997 24.4809 153.007 24.473C153.015 24.4625 153.025 24.4533 153.035 24.4453C153.044 24.4354 153.053 24.426 153.063 24.4173C153.072 24.4074 153.081 24.398 153.091 24.3894L153.116 24.3617C153.126 24.3531 153.135 24.3437 153.144 24.3338L153.172 24.3058C153.182 24.2972 153.191 24.288 153.2 24.2781C153.21 24.2695 153.219 24.2601 153.228 24.2502C153.238 24.2422 153.247 24.233 153.255 24.2225C153.265 24.2139 153.275 24.2045 153.283 24.1946L153.311 24.1691C153.319 24.1586 153.328 24.1494 153.339 24.1414C153.347 24.1309 153.356 24.1214 153.367 24.1134C153.375 24.1035 153.385 24.0944 153.395 24.0858L153.423 24.0578L153.448 24.0299C153.458 24.0212 153.467 24.0121 153.476 24.0022L153.504 23.9742L153.531 23.9463C153.542 23.9383 153.551 23.9291 153.559 23.9186C153.57 23.9106 153.579 23.9012 153.587 23.8907C153.597 23.882 153.606 23.8726 153.615 23.8627C154.428 23.0037 155.11 22.0306 155.641 20.9739C156.13 19.9922 156.505 18.9572 156.757 17.8897C156.861 17.4615 156.801 17.0102 156.59 16.6236C156.909 16.3241 157.105 15.9174 157.142 15.4817C157.185 14.9348 157.198 14.4182 157.198 13.9143Z"/><path fill="#FCFCFC" d="M123.914 9.8493V15.2123C123.914 16.6353 123.349 18 122.343 19.0062C121.337 20.0124 119.972 20.5776 118.549 20.5776C117.844 20.5779 117.146 20.4394 116.495 20.1699C115.844 19.9003 115.253 19.5052 114.754 19.007C114.256 18.5087 113.861 17.917 113.591 17.2659C113.322 16.6148 113.183 15.917 113.183 15.2123V2.12928H107.486V16.0555C107.486 19.3303 108.246 21.8157 109.765 23.5122C111.284 25.2087 113.353 26.0527 115.971 26.0443C117.733 26.0711 119.445 25.4524 120.782 24.3047C122.078 23.2408 123.117 21.8974 123.821 20.3751C123.97 20.0181 124.147 19.8407 124.357 19.8407H124.492C124.545 19.8443 124.597 19.8592 124.645 19.884C124.693 19.9089 124.734 19.9432 124.768 19.9852C124.802 20.0271 124.826 20.0755 124.84 20.1273C124.854 20.1792 124.857 20.2335 124.849 20.2866C124.81 20.5344 124.735 20.7749 124.626 21.0004C124.4 21.4731 124.22 21.9668 124.089 22.4742C123.959 23.0455 123.899 23.6304 123.909 24.2162V25.6872H129.624V2.11914H123.912L123.914 9.8493Z"/><path fill="#FCFCFC" d="M49.9974 2.12891L44.7738 19.3594C44.5459 20.2025 44.441 21.074 44.4623 21.9471C44.4623 22.3953 44.2825 22.6182 43.9255 22.6182C43.5685 22.6182 43.3913 22.3953 43.3913 21.9471C43.4132 21.0738 43.3074 20.2021 43.0773 19.3594L37.8562 2.12891H31.7793L39.8135 25.697H48.0274L56.0616 2.12891H49.9974Z"/><path fill="#FCFCFC" d="M148.828 15.3411H155.356C155.397 14.8752 155.422 14.4015 155.422 13.9128C155.422 11.4736 154.946 9.33833 153.994 7.50681C153.082 5.72077 151.661 4.24576 149.91 3.26836C148.206 2.30956 146.22 1.81306 143.949 1.7793C141.684 1.81475 139.698 2.31124 137.991 3.26836C136.24 4.24576 134.819 5.72077 133.907 7.50681C132.955 9.33833 132.479 11.4736 132.479 13.9128C132.438 16.0833 132.912 18.2326 133.861 20.1848C134.758 21.9875 136.168 23.485 137.913 24.4893C139.613 25.4785 141.621 25.9959 143.939 26.0414C146.256 25.9933 148.269 25.4794 149.965 24.4893C151.715 23.4866 153.129 21.989 154.029 20.1848C154.457 19.3257 154.784 18.4199 155.004 17.4856H148.636C148.35 18.5112 147.735 19.4148 146.887 20.0585C146.039 20.7022 145.004 21.0508 143.939 21.0508C142.645 21.0508 141.404 20.5369 140.489 19.6218C139.574 18.7068 139.06 17.4657 139.06 16.1717V15.3411H148.828ZM139.07 11.2898C139.07 10.649 139.196 10.0146 139.441 9.42266C139.686 8.83069 140.046 8.29272 140.499 7.83964C140.952 7.38656 141.49 7.02702 142.082 6.78182C142.674 6.53661 143.308 6.41042 143.949 6.41042C144.59 6.41009 145.225 6.53624 145.817 6.78132C146.409 7.02641 146.947 7.38575 147.4 7.8389C147.853 8.29205 148.213 8.83004 148.458 9.42217C148.703 10.0143 148.829 10.649 148.828 11.2898V11.4087H139.07V11.2898Z"/><path fill="#FCFCFC" d="M73.4526 3.26836C71.7511 2.30871 69.7609 1.81475 67.4947 1.7793C65.226 1.81475 63.2392 2.31124 61.5343 3.26836C59.7833 4.24576 58.3619 5.72077 57.4501 7.50681C56.498 9.33833 56.022 11.4736 56.022 13.9128C55.9809 16.0836 56.4556 18.2332 57.407 20.1848C58.303 21.988 59.7126 23.4858 61.4583 24.4893C63.1547 25.4794 65.1677 25.9933 67.4846 26.0414C69.8005 25.9942 71.8093 25.4768 73.5108 24.4893C75.2565 23.4858 76.6661 21.988 77.5621 20.1848C77.9908 19.3258 78.3188 18.42 78.5395 17.4856H72.1688C71.883 18.511 71.2693 19.4145 70.4216 20.0582C69.574 20.702 68.5388 21.0506 67.4744 21.0508C66.1804 21.0508 64.9393 20.5369 64.0243 19.6218C63.1092 18.7068 62.5952 17.4657 62.5952 16.1717V15.3411H78.8813C78.9218 14.8752 78.9446 14.4015 78.9446 13.9128C78.9446 11.4736 78.4686 9.33833 77.5166 7.50681C76.6102 5.72362 75.1961 4.24893 73.4526 3.26836ZM72.374 11.4139H62.6154V11.2947C62.6154 10.0007 63.1295 8.75962 64.0445 7.84459C64.9596 6.92955 66.2006 6.41561 67.4947 6.41561C68.7888 6.41561 70.0298 6.92955 70.9449 7.84459C71.8599 8.75962 72.374 10.0007 72.374 11.2947V11.4139Z"/><path fill="#FCFCFC" d="M95.4354 1.77228C93.6729 1.74612 91.9617 2.36572 90.6245 3.5143C89.3292 4.57812 88.2905 5.92047 87.5861 7.44144C87.4392 7.79846 87.2595 7.97827 87.0518 7.97827H86.9176C86.8639 7.97435 86.8117 7.95937 86.7641 7.93425C86.7165 7.90913 86.6745 7.87448 86.641 7.83238C86.6074 7.79028 86.583 7.74172 86.5692 7.6897C86.5553 7.63769 86.5524 7.58316 86.5606 7.52997C86.5975 7.28186 86.6726 7.04114 86.7834 6.8161C87.0096 6.34428 87.1894 5.85145 87.3202 5.34484C87.4488 4.77334 87.5083 4.1885 87.4975 3.60282V2.12934H81.7852V25.6974H87.4975V12.6143C87.4975 11.1913 88.0627 9.82668 89.0689 8.82047C90.0751 7.81426 91.4399 7.24907 92.8629 7.24907C94.2859 7.24907 95.6506 7.81426 96.6568 8.82047C97.663 9.82668 98.2282 11.1913 98.2282 12.6143V25.6974H103.925V11.7711C103.925 8.49636 103.166 6.01172 101.647 4.31694C100.127 2.62215 98.0569 1.77397 95.4354 1.77228Z"/><path fill="#FED363" d="M161.49 16.0938C162.341 16.0938 163.158 16.432 163.76 17.0341C164.362 17.6362 164.701 18.4528 164.701 19.3043V22.5151C164.701 23.3666 164.362 24.1832 163.76 24.7853C163.158 25.3874 162.341 25.7257 161.49 25.7257C160.638 25.7257 159.822 25.3874 159.22 24.7853C158.618 24.1832 158.279 23.3666 158.279 22.5151V19.3043C158.279 18.4528 158.618 17.6362 159.22 17.0341C159.822 16.432 160.638 16.0937 161.49 16.0938Z"/><path fill="#FCFCFC" d="M21.4067 16.1246C21.4061 15.7047 21.2869 15.2934 21.0629 14.9382C20.839 14.583 20.5193 14.2984 20.1407 14.1168L20.0369 14.0686C19.2621 13.7293 17.7352 13.4686 17.1579 12.7444C16.5806 12.0203 15.9856 10.0654 15.5374 9.42484C15.3378 9.09979 15.0582 8.83138 14.7253 8.64519C14.3924 8.45901 14.0173 8.36122 13.6359 8.36133C13.2545 8.36171 12.8796 8.45955 12.5468 8.64569C12.2139 8.83183 11.9342 9.10012 11.7343 9.42484C11.2861 10.0654 10.7214 11.9823 10.1137 12.7444C9.50605 13.5066 8.00964 13.7293 7.23231 14.0686L7.12345 14.1168C6.7452 14.2989 6.42583 14.5836 6.20193 14.9387C5.97804 15.2938 5.85867 15.7048 5.85742 16.1246C5.85867 16.5444 5.97804 16.9554 6.20193 17.3105C6.42583 17.6656 6.7452 17.9504 7.12345 18.1325C7.85774 18.4971 9.50859 18.7479 10.1137 19.5075C10.7189 20.2671 11.2861 22.1863 11.7343 22.8244C11.9342 23.1491 12.2139 23.4174 12.5468 23.6036C12.8796 23.7897 13.2545 23.8875 13.6359 23.8879C14.0173 23.888 14.3924 23.7902 14.7253 23.6041C15.0582 23.4179 15.3378 23.1495 15.5374 22.8244C15.9856 22.1863 16.5502 20.2697 17.1579 19.5075C17.7656 18.7454 19.414 18.4945 20.1457 18.1325C20.523 17.9497 20.8413 17.6646 21.0643 17.3095C21.2873 16.9545 21.4059 16.5439 21.4067 16.1246Z" class="sparkle"/><path fill="#FCFCFC" d="M6.00083 4.99577H4.50188V3.50696C4.50188 3.23834 4.39516 2.98081 4.20522 2.79086C4.01528 2.60092 3.75768 2.49414 3.48906 2.49414C3.22044 2.49414 2.96284 2.60092 2.7729 2.79086C2.58296 2.98081 2.47624 3.23834 2.47624 3.50696V4.99577H0.987428C0.718812 4.99577 0.46115 5.10256 0.27121 5.2925C0.0812696 5.48244 -0.0253906 5.73997 -0.0253906 6.00859C-0.0253906 6.27721 0.0812696 6.53499 0.27121 6.72493C0.46115 6.91487 0.718812 7.02141 0.987428 7.02141H2.47624V8.51022C2.47624 8.77884 2.58296 9.03662 2.7729 9.22656C2.96284 9.4165 3.22044 9.52304 3.48906 9.52304C3.75768 9.52304 4.01528 9.4165 4.20522 9.22656C4.39516 9.03662 4.50188 8.77884 4.50188 8.51022V7.0088H5.99069C6.25931 7.0088 6.51697 6.90201 6.70691 6.71207C6.89685 6.52213 7.00351 6.2646 7.00351 5.99598C7.00022 5.73131 6.89345 5.47844 6.70605 5.29151C6.51864 5.10458 6.26551 4.9984 6.00083 4.99577Z" class="sparkle"/></g><defs><clipPath id="clip0_1500:4959"><rect width="166.474" height="32" fill="#fff"/></clipPath></defs></svg>