<svg xmlns="http://www.w3.org/2000/svg" viewBox="0 0 1329.08 1329.08" shape-rendering="geometricPrecision" text-rendering="geometricPrecision" image-rendering="optimizeQuality" fill-rule="evenodd" clip-rule="evenodd"><defs><style>.fil1{fill:#fff;fill-rule:nonzero}</style></defs><g id="Layer_x0020_1"><g id="_2116467169744"><path d="M664.54 0c367.02 0 664.54 297.52 664.54 664.54s-297.52 664.54-664.54 664.54S0 1031.56 0 664.54 297.52 0 664.54 0z" fill="#e5e5e4" fill-rule="nonzero"/><path class="fil1" d="M664.54 12.94c359.87 0 651.6 291.73 651.6 651.6s-291.73 651.6-651.6 651.6-651.6-291.73-651.6-651.6 291.74-651.6 651.6-651.6z"/><path d="M664.54 65.21c331 0 599.33 268.33 599.33 599.33 0 331-268.33 599.33-599.33 599.33-331 0-599.33-268.33-599.33-599.33 0-331 268.33-599.33 599.33-599.33z" fill="#4a8cff" fill-rule="nonzero"/><path class="fil1" d="M273.53 476.77v281.65c.25 63.69 52.27 114.95 115.71 114.69h410.55c11.67 0 21.06-9.39 21.06-20.81V570.65c-.25-63.69-52.27-114.95-115.7-114.69H294.6c-11.67 0-21.06 9.39-21.06 20.81zm573.45 109.87l169.5-123.82c14.72-12.18 26.13-9.14 26.13 12.94v377.56c0 25.12-13.96 22.08-26.13 12.94l-169.5-123.57V586.64z"/></g></g></svg>