<svg width="47" height="47" viewBox="0 0 47 47" fill="none" xmlns="http://www.w3.org/2000/svg">
<path d="M36.8167 0H10.1833C4.55923 0 0 4.55923 0 10.1833V36.8167C0 42.4408 4.55923 47 10.1833 47H36.8167C42.4408 47 47 42.4408 47 36.8167V10.1833C47 4.55923 42.4408 0 36.8167 0Z" fill="#673AB7"/>
<path d="M9.79166 35.4458C9.79166 34.4724 10.5588 33.6833 11.5052 33.6833H21.7865C22.7328 33.6833 23.5 34.4724 23.5 35.4458C23.5 36.4192 22.7328 37.2083 21.7865 37.2083H11.5052C10.5588 37.2083 9.79166 36.4192 9.79166 35.4458Z" fill="white"/>
<path fill-rule="evenodd" clip-rule="evenodd" d="M18.3672 9.79166C13.6311 9.79166 9.79166 13.6056 9.79166 18.3104V23.4217C9.79166 25.3036 11.3274 26.8292 13.2219 26.8292H28.6328C33.3689 26.8292 37.2083 23.0152 37.2083 18.3104C37.2083 13.6056 33.3689 9.79166 28.6328 9.79166H18.3672ZM18.3545 13.1954C15.5128 13.1954 13.2092 15.4837 13.2092 18.3066V21.7141C13.2092 22.6551 13.9771 23.4179 14.9243 23.4179H28.6264C31.468 23.4179 33.7717 21.1295 33.7717 18.3066C33.7717 15.4837 31.468 13.1954 28.6264 13.1954H18.3545Z" fill="white"/>
</svg>
