<svg width="47" height="47" viewBox="0 0 47 47" fill="none" xmlns="http://www.w3.org/2000/svg">
<rect width="47" height="47" rx="5" fill="#673AB7"/>
<path d="M20.7045 20.1557C25.2347 20.5884 35.617 19.5758 37.6708 15.3727C35.0286 10.5443 18.9003 11.2513 12.4633 14.6357C8.95765 16.4588 9.44311 18.7676 12.4981 20.8886C9.83255 21.335 4.80878 16.3176 10.8601 11.9468C18.7796 6.22677 40.3998 6.08663 39.1013 15.786C38.3457 21.4326 30.2194 23.4529 21.1419 23.1785C20.2288 28.5855 15.9786 36.2065 11.1144 38.1011L11.8645 37.1132L11.0222 37.3398L11.8179 36.4335L11.0222 36.7417C15.0004 31.6441 16.2507 28.1324 15.9826 19.403C15.9826 19.403 18.1903 19.9156 20.7045 20.1557Z" fill="white"/>
</svg>
