<svg id="Layer_1" data-name="Layer 1" xmlns="http://www.w3.org/2000/svg" viewBox="0 0 1110.71 1037.94"><defs><style>.cls-1{fill:#6ac186;}</style></defs><g id="SvgjsG1178"><path class="cls-1" d="M761.43,216.69c1.44,14.55-1.68,26.81-13.71,33.55-8.9,5-17.67.84-25.85-4.93-5.89-4.09-11.79-8.18-18-11.79-57.11-33.07-114.47-68.9-171.47-102-27.41-15.87-25.73-15.15-1.8-33.31,32.7-25,58.32-20.68,94.63-.36,35.59,20,62.17,35,94.15,54.23C746,165.58,760,180.85,761.43,216.69Z" transform="translate(-44.64 -81.03)"/><path class="cls-1" d="M1012.86,548.81c-11.9,8.53-24.17,11.9-36,4.81-8.78-5.3-9.5-15-8.66-24.9.6-7.21,1.21-14.3,1.21-21.52.24-66,2.76-133.59,3.12-199.37.12-31.62.36-29.82,28-18.15,38,16,47,40.28,47.38,81.88.48,40.77.72,71.31-.25,108.58C1049.54,510.09,1043.29,529.69,1012.86,548.81Z" transform="translate(-44.64 -81.03)"/><path class="cls-1" d="M850.05,932.27c-13.23-6.13-22.24-15-22-28.74.24-10.22,8.29-15.75,17.19-19.84,6.49-3,13-6.13,19.24-9.62C921.84,841.36,981.72,810,1039,777.51c27.53-15.63,26.09-14.55,29.7,15.15,5,40.89-11.55,60.73-47.38,81.89-35.11,20.68-61.56,36.07-94.27,53.87C901.88,944.77,881.68,949.1,850.05,932.27Z" transform="translate(-44.64 -81.03)"/><path class="cls-1" d="M436.41,981.93c-1.33-14.55,1.92-26.81,13.94-33.43,9-4.93,17.68-.72,25.86,5,5.89,4.21,11.78,8.18,17.91,11.91,56.88,33.43,114,69.74,170.63,103.29,27.3,16.11,25.61,15.39,1.57,33.31-33,24.77-58.44,20.32-94.64-.36-35.47-20.21-61.92-35.36-93.67-55C451.44,1033.16,437.61,1017.76,436.41,981.93Z" transform="translate(-44.64 -81.03)"/><path class="cls-1" d="M187.38,647.89c11.9-8.42,24.17-11.67,36-4.57,8.78,5.29,9.38,15,8.42,24.89-.72,7.21-1.33,14.31-1.33,21.52-.72,66-3.72,133.6-4.56,199.37-.37,31.63-.61,29.82-28.14,18-37.88-16.24-46.66-40.65-46.78-82.25-.12-40.76-.12-71.31,1-108.58C150.46,686.49,157,666.77,187.38,647.89Z" transform="translate(-44.64 -81.03)"/><path class="cls-1" d="M353.2,265.75c13.22,6.13,22.12,15.15,21.76,29-.24,10.22-8.42,15.63-17.44,19.72-6.49,3-13,6-19.23,9.5-57.6,32.22-117.73,63.25-175.2,95.23-27.66,15.39-26.1,14.31-29.58-15.39-4.69-40.88,12-60.73,48-81.53,35.36-20.44,61.81-35.59,94.76-53.15C301.37,252.88,321.69,248.67,353.2,265.75Z" transform="translate(-44.64 -81.03)"/><path class="cls-1" d="M877,132.51a87.2,87.2,0,0,0-42.33,163.42q-.72,115.44-.36,230.75c.12,21-8.54,30.66-25.49,44.13-9.86,7.94-17.8,14.91-24,21.64a23.2,23.2,0,0,1-22.25,6.62l-56.15-13a75.23,75.23,0,0,1-16,70.47l72.15,16.71a20.87,20.87,0,0,0,7.7.24c3.36,1.32,8-.48,13.83-3.73,17.67-10.22,75.63-42.56,87.17-49.66,25.62-15.63,37-29.94,36.32-60.48-1.81-86-2.17-172.19.36-258.17A87.33,87.33,0,0,0,877,132.51Zm31.14,135.16a57.1,57.1,0,1,1,26-47.86A57.15,57.15,0,0,1,908.13,267.67Z" transform="translate(-44.64 -81.03)"/><path class="cls-1" d="M663.91,634.06l-9.74,10.34-2.28,2.53-12.15,12.86a40,40,0,0,1-38.24,11.67l-14.19-3.25-2.4-.6-18.28-4.21a40,40,0,0,1-29.34-27.66l-3.85-13-.72-2.65-5.41-18.4a40.46,40.46,0,0,1,9.14-38.6l9.74-10.34,2.28-2.4,12.27-13.11A39.85,39.85,0,0,1,590,524.64a36.79,36.79,0,0,1,8.9,1l14.07,3.24,2.64.61,18,4.2A39.8,39.8,0,0,1,663,561.31l3.85,13.23.72,2.64,5.41,18.4A39.6,39.6,0,0,1,663.91,634.06Z" transform="translate(-44.64 -81.03)"/><path class="cls-1" d="M1068.18,568.16A87.4,87.4,0,0,0,981,651.62q-100.65,57-200.81,114.83c-18.16,10.58-30.78,7.82-50.87-.24-12.62-5.05-23.2-8.54-32.58-10.58a23.34,23.34,0,0,1-17.68-16.36l-15.87-54a74.35,74.35,0,0,1-52.79,21.89,71.42,71.42,0,0,1-16.71-1.92l20.92,71.42A18.45,18.45,0,0,0,622.43,787c1.68,2.41,4.81,4.57,8.89,7,17.68,10.34,74.56,44.37,86.46,50.86,26.33,14.43,44.37,17.2,70.59,1.44,72.62-43.89,146.21-86.45,221-126.62a87.17,87.17,0,1,0,58.8-151.51Zm0,144.42a56.33,56.33,0,0,1-30.18-8.66,57.06,57.06,0,0,1-27.06-48.58,55.92,55.92,0,0,1,5.17-23.69,57.17,57.17,0,1,1,52.07,80.93Z" transform="translate(-44.64 -81.03)"/><path class="cls-1" d="M790.29,942.73a86.08,86.08,0,0,0-45.69,13q-99.21-58.8-199.13-116.64c-18.16-10.46-22-22.85-25.13-44.37a223.73,223.73,0,0,0-7-33.07,24,24,0,0,1,5.17-23.33l39-41.48a74.44,74.44,0,0,1-52.78-49.3l-50.51,54a16.85,16.85,0,0,0-4.81,10.58v.12c-1.32,2.64-1.68,6.49-1.68,11.18-.12,20.44-1.44,86.82-1.08,100.41.72,30.06,7.21,47.13,33.91,61.92,75.51,42.09,150.42,85.38,223.77,131.19a95,95,0,0,0-1,13.11,87.18,87.18,0,0,0,174.36,0C877.71,981.93,838.39,942.73,790.29,942.73Zm0,144.3a57.16,57.16,0,0,1-57-53.15c-.12-1.33-.12-2.65-.12-4a57,57,0,0,1,43.29-55.43,57.69,57.69,0,0,1,13.83-1.69,57.12,57.12,0,0,1,0,114.24Z" transform="translate(-44.64 -81.03)"/><path class="cls-1" d="M510.12,540.51l-72.27-16.84a18.81,18.81,0,0,0-12.63,1.57,37.26,37.26,0,0,0-8.05,3.6c-17.8,10.11-76,42-87.66,49.06-25.62,15.52-37.16,29.71-36.8,60.25,1.2,87.78.84,175.68-2.52,263.46a87.24,87.24,0,1,0,73.23,0c1.08-76.72,1.92-153.44,2-230.15.12-21.05,8.9-30.55,25.85-43.89,10.46-8.18,18.88-15.52,25.26-22.61a23.53,23.53,0,0,1,22.24-6.73l54.71,12.62A76.13,76.13,0,0,1,510.12,540.51Zm-125.9,440.1a57,57,0,1,1-20.92-44.37A57.09,57.09,0,0,1,384.22,980.61Z" transform="translate(-44.64 -81.03)"/><path class="cls-1" d="M585.63,420.38a18.88,18.88,0,0,0-10.22-11.78h-.12a47.81,47.81,0,0,0-4.45-2.89c-17.56-10.46-74.19-45-86.1-51.58-26.33-14.55-44.25-17.56-70.58-1.93-77.08,45.7-155.24,90.07-234.72,131.55a86.27,86.27,0,0,0-47.62-14.19A87.18,87.18,0,1,0,219,556.74a102.28,102.28,0,0,0-.6-10.58q101.91-56.64,203.22-114.11c18.27-10.46,30.9-7.58,50.86.6a221.85,221.85,0,0,0,32.23,10.7,23.35,23.35,0,0,1,17.07,16.23l15.15,52.07a75,75,0,0,1,69.5-20.08ZM131.94,614a57.12,57.12,0,0,1,0-114.23,58.49,58.49,0,0,1,18.4,3h0a57.17,57.17,0,0,1,38.84,54.11,50.36,50.36,0,0,1-.36,6A57.23,57.23,0,0,1,131.94,614Z" transform="translate(-44.64 -81.03)"/><path class="cls-1" d="M752.65,375.05c-.84-30.06-7.57-47-34.39-61.69-78.64-42.92-156.8-87.41-233-134.55.12-1.44.12-2.89.12-4.33a87.18,87.18,0,1,0-87.18,87.18,86.14,86.14,0,0,0,52.67-17.8q101,58.8,202.61,116.76c18.28,10.34,22.24,22.73,25.61,44.13,2.05,13,4.21,23.45,7,32.47a22.89,22.89,0,0,1-5.42,22.84L643,500.23a74.23,74.23,0,0,1,52.67,49.42l50.62-54a18.08,18.08,0,0,0,4.81-10.1v-.12a33.92,33.92,0,0,0,1.2-10C752.17,455,753,388.64,752.65,375.05ZM421.25,226.67a57.12,57.12,0,1,1,32.83-63.25,57.12,57.12,0,0,1-32.83,63.25Z" transform="translate(-44.64 -81.03)"/></g></svg>