<?xml version="1.0" encoding="UTF-8" standalone="no"?>
<svg
   xmlns:dc="http://purl.org/dc/elements/1.1/"
   xmlns:cc="http://creativecommons.org/ns#"
   xmlns:rdf="http://www.w3.org/1999/02/22-rdf-syntax-ns#"
   xmlns:svg="http://www.w3.org/2000/svg"
   xmlns="http://www.w3.org/2000/svg"
   xmlns:sodipodi="http://sodipodi.sourceforge.net/DTD/sodipodi-0.dtd"
   xmlns:inkscape="http://www.inkscape.org/namespaces/inkscape"
   id="icon-uc_logo_no_wordmark"
   viewBox="-1.01 -1.01 102.02 102.02"
   width="100"
   height="100"
   x="27169"
   version="1.1"
   sodipodi:docname="uberconference.svg"
   inkscape:version="1.0.1 (c497b03c, 2020-09-10)">
  <metadata
     id="metadata65">
    <rdf:RDF>
      <cc:Work
         rdf:about="">
        <dc:format>image/svg+xml</dc:format>
        <dc:type
           rdf:resource="http://purl.org/dc/dcmitype/StillImage" />
      </cc:Work>
    </rdf:RDF>
  </metadata>
  <sodipodi:namedview
     pagecolor="#ffffff"
     bordercolor="#666666"
     borderopacity="1"
     objecttolerance="10"
     gridtolerance="10"
     guidetolerance="10"
     inkscape:pageopacity="0"
     inkscape:pageshadow="2"
     inkscape:window-width="731"
     inkscape:window-height="480"
     id="namedview63"
     showgrid="false"
     inkscape:zoom="2.74"
     inkscape:cx="50"
     inkscape:cy="50"
     inkscape:window-x="28"
     inkscape:window-y="36"
     inkscape:window-maximized="0"
     inkscape:current-layer="icon-uc_logo_no_wordmark"
     inkscape:document-rotation="0" />
  <defs
     id="defs58">
    <style
       id="style50">
                .kjcls-1{}
            </style>
    <symbol
       id="ucsvg_uc_logo_no_wordmark"
       data-name="uc_logo_no_wordmark"
       viewBox="0 0 100 100">
      <path
         id="uc_logo_no_wordmark-3"
         data-name="uc_logo_no_wordmark"
         class="kjcls-1"
         d="M50 0a50 50 0 1 0 50 50A50 50 0 0 0 50 0zm27.56 40.45h-6.84v22.42a13 13 0 0 1-1.4 6 12.87 12.87 0 0 1-4.15 4.64 19.92 19.92 0 0 1-6.5 2.82 30.31 30.31 0 0 1-4.61.76c-1.28.12-2.63.19-4.05.19a35.45 35.45 0 0 1-8.66-1 20 20 0 0 1-6.51-2.82 12.48 12.48 0 0 1-5.56-10.63V40.45h-6.84v-7.13h21.19v7.13h-6.86v22.68a4.65 4.65 0 0 0 .7 2.46 6.65 6.65 0 0 0 2.26 2.22 14.48 14.48 0 0 0 4.19 1.71 25.57 25.57 0 0 0 6.11.66 28.66 28.66 0 0 0 4.05-.28 20.61 20.61 0 0 0 2-.38 14.5 14.5 0 0 0 4.19-1.71 6.86 6.86 0 0 0 2.27-2.22 4.76 4.76 0 0 0 .68-2.46V40.45h-6.84v-7.13h21.18v7.13z" />
    </symbol>
    <symbol
       id="symbol56"
       data-name="uc_logo_no_wordmark"
       viewBox="0 0 100 100">
      <path
         id="path54"
         data-name="uc_logo_no_wordmark"
         class="kjcls-1"
         d="M50 0a50 50 0 1 0 50 50A50 50 0 0 0 50 0zm27.56 40.45h-6.84v22.42a13 13 0 0 1-1.4 6 12.87 12.87 0 0 1-4.15 4.64 19.92 19.92 0 0 1-6.5 2.82 30.31 30.31 0 0 1-4.61.76c-1.28.12-2.63.19-4.05.19a35.45 35.45 0 0 1-8.66-1 20 20 0 0 1-6.51-2.82 12.48 12.48 0 0 1-5.56-10.63V40.45h-6.84v-7.13h21.19v7.13h-6.86v22.68a4.65 4.65 0 0 0 .7 2.46 6.65 6.65 0 0 0 2.26 2.22 14.48 14.48 0 0 0 4.19 1.71 25.57 25.57 0 0 0 6.11.66 28.66 28.66 0 0 0 4.05-.28 20.61 20.61 0 0 0 2-.38 14.5 14.5 0 0 0 4.19-1.71 6.86 6.86 0 0 0 2.27-2.22 4.76 4.76 0 0 0 .68-2.46V40.45h-6.84v-7.13h21.18v7.13z" />
    </symbol>
  </defs>
</svg>
