<?xml version="1.0" encoding="UTF-8"?>
<!-- Generated by Pixelmator Pro 2.3.8 -->
<svg width="28" height="30" viewBox="0 0 28 30" xmlns="http://www.w3.org/2000/svg" xmlns:xlink="http://www.w3.org/1999/xlink">
    <g id="Group">
        <path id="Path" fill="#8039e9" stroke="none" d="M 27.028433 12.825439 L 18.893085 12.825439 C 18.428209 12.825439 18.074017 13.301384 18.240046 13.744125 L 20.199169 18.813498 C 20.287718 19.034868 20.11062 19.278374 19.867115 19.267305 L 17.365633 19.112347 C 17.254948 19.101278 17.144262 19.15662 17.077852 19.256237 L 15.129796 22.012293 C 15.03018 22.167253 14.819879 22.222595 14.653851 22.11191 L 11.776041 20.152786 C 11.665356 20.075306 11.510397 20.075306 11.399712 20.152786 L 7.415052 22.8535 C 7.160477 23.030596 6.817353 22.787088 6.905901 22.488239 L 8.012751 18.514648 C 8.057025 18.348619 7.979546 18.182592 7.813518 18.116182 L 5.699435 17.252838 C 5.489133 17.164291 5.422722 16.909716 5.566613 16.73262 L 7.437189 14.430371 C 7.525737 14.319687 7.536806 14.153659 7.448257 14.031905 L 5.876531 11.762863 C 5.73264 11.552563 5.865462 11.264782 6.131106 11.242643 L 8.566176 11.05448 C 8.743272 11.043411 8.887162 10.888451 8.876094 10.700287 L 8.687929 7.291189 C 8.676861 7.047682 8.920368 6.870586 9.152806 6.959135 L 12.174507 8.209875 C 12.307329 8.265217 12.462288 8.232012 12.550836 8.121326 L 14.631714 5.796942 C 14.797741 5.608778 15.096591 5.66412 15.196207 5.88549 L 16.446947 9.106422 C 16.612976 9.50489 17.111057 9.648781 17.46525 9.383137 L 22.357527 5.7416 C 22.910952 5.332066 22.556759 4.446585 21.870512 4.546202 L 18.64958 4.977873 C 18.494619 5 18.350729 4.911461 18.295387 4.76757 L 16.601906 0.41765 C 16.413742 -0.036158 15.827112 -0.146843 15.495057 0.218418 L 11.809246 4.214146 C 11.70963 4.313763 11.56574 4.34697 11.432918 4.291626 L 6.584915 2.243954 C 6.153243 2.066858 5.677298 2.365707 5.655161 2.841652 L 5.478065 7.844614 C 5.466996 8.021709 5.334174 8.154533 5.168147 8.1656 L 0.740747 8.453381 C 0.220527 8.486588 -0.056185 9.073217 0.231596 9.49382 L 3.175817 13.832672 C 3.264365 13.954426 3.253296 14.120454 3.15368 14.242208 L 0.165185 17.673443 C -0.133665 18.016565 -0.011911 18.547853 0.408692 18.724949 L 3.839927 20.208128 C 3.994886 20.27454 4.072365 20.440567 4.028091 20.595526 L 1.836528 29.162544 C 1.681569 29.771313 2.367816 30.236189 2.876967 29.870928 L 11.111931 23.96035 C 11.222616 23.88287 11.377575 23.871801 11.499329 23.96035 L 15.25155 26.594652 C 15.561468 26.816023 15.982071 26.727474 16.192371 26.417557 L 18.538895 22.820293 C 18.605305 22.70961 18.738127 22.654266 18.85988 22.676403 L 24.471609 23.351582 C 24.925419 23.417994 25.379227 23.041664 25.2132 22.621061 L 22.877747 16.57766 C 22.811335 16.411633 22.877747 16.234537 23.076979 16.13492 L 27.338352 14.120454 C 27.969255 13.799467 27.747887 12.825439 27.028433 12.825439 Z"/>
    </g>
</svg>
