<?xml version="1.0" encoding="UTF-8" standalone="no"?> <!-- Created with Vectornator for iOS (http://vectornator.io/) --><!DOCTYPE svg PUBLIC "-//W3C//DTD SVG 1.1//EN" "http://www.w3.org/Graphics/SVG/1.1/DTD/svg11.dtd">
<svg style="fill-rule:evenodd;clip-rule:evenodd;stroke-linecap:round;stroke-linejoin:round;" xmlns:vectornator="http://vectornator.io" xmlns:xlink="http://www.w3.org/1999/xlink" xmlns="http://www.w3.org/2000/svg" xml:space="preserve" version="1.1" viewBox="0 0 56 56">
<metadata>
<vectornator:setting key="DynamicGuides" value="1"/>
<vectornator:setting key="Units" value="Points"/>
<vectornator:setting key="GuidesVisible" value="1"/>
<vectornator:setting key="RulersVisible" value="1"/>
<vectornator:setting key="SnapToGuides" value="1"/>
<vectornator:setting key="GridSpacing" value="36"/>
</metadata>
<defs/>
<g id="Untitled" vectornator:layerName="Untitled">
<path d="M28+50.8281C28.6094+50.8281+29.1719+50.7578+29.8047+50.711L31.1641+53.2891C31.4219+53.8047+31.9375+54.0859+32.5704+53.9922C33.1563+53.875+33.5782+53.4532+33.6485+52.8203L34.0704+49.9844C35.2188+49.6797+36.3672+49.2344+37.4922+48.7422L39.6016+50.6406C40.0469+51.0625+40.6094+51.1563+41.1953+50.8281C41.711+50.5469+41.9219+49.9844+41.8047+49.375L41.2188+46.5625C42.1797+45.8828+43.1407+45.1094+44.0078+44.2422L46.6328+45.3438C47.2189+45.5781+47.7579+45.461+48.2034+44.9219C48.6018+44.5+48.6483+43.8906+48.3205+43.375L46.797+40.9375C47.5002+39.9532+48.0627+38.8984+48.6018+37.7735L51.4611+37.9141C52.0703+37.9375+52.5858+37.6094+52.797+37.0235C52.9842+36.4375+52.797+35.875+52.3045+35.5L50.0783+33.7188C50.3831+32.5937+50.6173+31.375+50.7109+30.1094L53.4296+29.2657C54.0157+29.0547+54.3906+28.6094+54.3906+27.9766C54.3906+27.3672+54.0157+26.9219+53.4296+26.711L50.7109+25.8437C50.6173+24.5781+50.3831+23.4063+50.0783+22.2578L52.3045+20.4532C52.797+20.1016+52.9842+19.5625+52.797+18.9766C52.5858+18.3906+52.0703+18.0625+51.4611+18.0859L48.6018+18.2032C48.0627+17.0781+47.5002+16.0235+46.797+15.0391L48.3205+12.6016C48.6483+12.1094+48.6018+11.5+48.2034+11.0781C47.7579+10.5391+47.2189+10.3984+46.6328+10.6563L44.0078+11.711C43.1407+10.8906+42.1797+10.0937+41.2188+9.4141L41.8047+6.625C41.9219+5.9922+41.711+5.4297+41.1953+5.1484C40.6094+4.8437+40.0469+4.8906+39.6016+5.3594L37.4922+7.211C36.3672+6.7188+35.2188+6.3203+34.0704+5.9922L33.6485+3.1563C33.5782+2.5469+33.1563+2.1016+32.5704+2.0078C31.9375+1.9141+31.4219+2.1719+31.1641+2.6875L29.8047+5.2657C29.1719+5.2188+28.6094+5.1719+28+5.1719C27.3672+5.1719+26.8047+5.2188+26.1485+5.2657L24.8126+2.6875C24.5547+2.1719+24.0391+1.9141+23.3829+2.0078C22.7969+2.1016+22.3985+2.5469+22.3047+3.1563L21.9063+5.9688C20.7344+6.3203+19.586+6.7188+18.4844+7.211L16.3751+5.3594C15.9063+4.8906+15.3438+4.8437+14.7813+5.1484C14.2657+5.4297+14.0547+5.9922+14.1719+6.625L14.7578+9.4141C13.7735+10.0937+12.8126+10.8906+11.9453+11.711L9.3438+10.6563C8.7578+10.3984+8.1953+10.5391+7.75+11.0781C7.3751+11.5+7.3282+12.1094+7.6329+12.5781L9.1797+15.0391C8.4766+16.0235+7.9141+17.0781+7.3751+18.2032L4.4922+18.0859C3.8829+18.0625+3.3672+18.3906+3.1797+18.9766C2.9922+19.5625+3.1563+20.1016+3.6485+20.4532L5.8985+22.2578C5.5938+23.4063+5.336+24.5781+5.2657+25.8437L2.5469+26.711C1.9375+26.8984+1.6094+27.3437+1.6094+27.9766C1.6094+28.6094+1.9375+29.0547+2.5469+29.2657L5.2657+30.1328C5.336+31.375+5.5938+32.5937+5.8985+33.7188L3.6485+35.5C3.1563+35.875+2.9922+36.4375+3.1797+37.0235C3.3672+37.6094+3.8829+37.9375+4.4922+37.9141L7.3751+37.7735C7.9141+38.8984+8.4766+39.9532+9.1563+40.9375L7.6563+43.375C7.3047+43.8906+7.3516+44.5+7.75+44.9219C8.1953+45.461+8.7578+45.5781+9.3438+45.3438L11.9453+44.2422C12.8126+45.1094+13.7735+45.8828+14.7578+46.5625L14.1719+49.375C14.0547+49.9844+14.2657+50.5469+14.7813+50.8281C15.3672+51.1563+15.9297+51.0625+16.3751+50.6406L18.461+48.7422C19.586+49.2344+20.7344+49.6797+21.9063+49.9844L22.3047+52.8203C22.3985+53.4532+22.7969+53.875+23.3829+53.9922C24.0391+54.0859+24.5547+53.8047+24.8126+53.2891L26.1485+50.711C26.7813+50.7578+27.3672+50.8281+28+50.8281ZM33.8829+26.5C32.7813+23.5469+30.6251+21.9297+27.9297+21.9297C27.5313+21.9297+27.0626+21.9766+26.3126+22.1406L19.586+10.6563C22.0938+9.4141+24.9531+8.7344+28+8.7344C38.2188+8.7344+46.2344+16.4922+46.9611+26.5L33.8829+26.5ZM8.9688+28C8.9688+21.4844+12.0391+15.7422+16.8907+12.2735L23.6641+23.8281C22.3985+25.1406+21.8126+26.5703+21.8126+28.0937C21.8126+29.5703+22.3751+30.9297+23.6641+32.2891L16.7266+43.6328C11.9922+40.1406+8.9688+34.4688+8.9688+28ZM25.1172+28.0703C25.1172+26.4766+26.4766+25.2344+27.9766+25.2344C29.5704+25.2344+30.8829+26.4766+30.8829+28.0703C30.8829+29.6406+29.5704+30.9297+27.9766+30.9297C26.4766+30.9297+25.1172+29.6406+25.1172+28.0703ZM28+47.2656C24.8829+47.2656+21.9766+46.5391+19.4219+45.2735L26.3126+34C27.0391+34.1875+27.5313+34.2344+27.9297+34.2344C30.6485+34.2344+32.8047+32.5703+33.8829+29.5469L46.9611+29.5469C46.2109+39.5078+38.1953+47.2656+28+47.2656Z" opacity="1" fill="#ffffff"/>
</g>
</svg>
