<svg xmlns="http://www.w3.org/2000/svg" xmlns:xlink="http://www.w3.org/1999/xlink" width="24" height="24"><defs><symbol id="slapp_icon" viewBox="0 0 24 24"><path fill-rule="nonzero" stroke="none" d="M21.913 22.5145c-.9716-.8367-5.0204-4.292-5.0746-4.3373-.2847-.2442-.7004-.5653.0632-1.9628 0 0 1.83-2.6232 2.047-3.885 0 0 .7547-3.638 0-5.3294-1.4796.1452-2.8927 2.804-3.1134 4.2756-.452 2.587 1.464-4.7036-1.6177-8.539 0 0-1.0032.8097-1.8708 3.0484 0 0 0-2.4965-2.6706-4.3192-.2533.6937-.4055 1.4203-.4518 2.1574 0 0-.452-1.4383-1.324-1.972-.3465.3894-.535.8943-.5287 1.4157 0 0-1.288-1.357-4.207-2.067 0 0-.4067 3.3242.75 5.106-.3008-.0953-.6208-.114-.9307-.054.0948.7337.5514 1.3708 1.2155 1.696-.728.067-1.439.2597-2.1012.5697 0 0 1.1704 2.3292 3.0322 2.4875 0 0-2.7113.1493-4.1302.873 0 0 1.9612 4.4186 8.9382 4.197 0 0-3.755 1.583-5.3593 3.704 0 0 6.2675 1.081 9.5752-.9045.1274-.077.264-.138.4067-.181.4518-.1355 1.3058-.416 1.9068.0454l5.061 4.3916c.059.0505.136.075.2133.0683.0774-.007.1488-.0446.198-.1046.0894-.115.0777-.2788-.027-.38z"/></symbol></defs><use fill="#354C66" stroke="#354C66" xlink:href="#slapp_icon"/></svg>