<svg xmlns="http://www.w3.org/2000/svg" width="500" height="500" fill="none" viewBox="0 0 500 500"><rect width="500" height="500" fill="#4358D8" rx="250"/><path fill="#fff" fill-rule="evenodd" d="M145.837 88.4292C142.993 83.5099 144.68 77.2198 149.606 74.3796C154.532 71.5395 160.831 73.225 163.675 78.1442L185.546 115.974C185.83 116.025 186.115 116.089 186.399 116.165L236.727 129.635C242.222 131.105 245.482 136.746 244.011 142.233C242.539 147.72 236.891 150.976 231.397 149.505L185.957 137.343L173.793 182.689C172.321 188.176 166.674 191.432 161.179 189.961C155.685 188.491 152.424 182.85 153.896 177.363L167.378 127.102C167.462 126.791 167.559 126.487 167.668 126.191L145.837 88.4292ZM252.512 252.565C272.36 241.121 279.16 215.774 267.699 195.949C256.238 176.125 230.856 169.332 211.008 180.776C191.159 192.22 184.36 217.568 195.821 237.392C207.282 257.216 232.663 264.009 252.512 252.565ZM241.779 234.399C251.599 228.737 254.963 216.196 249.292 206.388C243.622 196.58 231.065 193.219 221.245 198.881C211.425 204.543 208.061 217.084 213.731 226.892C219.401 236.7 231.959 240.061 241.779 234.399ZM181.446 245.862C192.907 265.686 186.108 291.034 166.259 302.478C146.411 313.922 121.029 307.128 109.568 287.304C98.107 267.48 104.906 242.132 124.755 230.688C144.604 219.244 169.985 226.038 181.446 245.862ZM162.879 255.944C168.549 265.752 165.185 278.293 155.365 283.955C145.545 289.617 132.987 286.256 127.317 276.448C121.647 266.64 125.011 254.099 134.831 248.437C144.651 242.776 157.208 246.137 162.879 255.944ZM259.676 358.127C279.525 346.683 286.324 321.335 274.863 301.511C263.402 281.687 238.021 274.894 218.172 286.338C198.323 297.782 191.524 323.13 202.985 342.954C214.446 362.778 239.828 369.571 259.676 358.127ZM248.623 339.492C258.443 333.83 261.807 321.289 256.137 311.481C250.467 301.673 237.909 298.312 228.089 303.974C218.269 309.636 214.905 322.177 220.576 331.985C226.246 341.793 238.803 345.154 248.623 339.492ZM361.407 356.826C372.868 376.65 366.069 401.997 346.22 413.441C326.371 424.885 300.99 418.092 289.529 398.268C278.068 378.444 284.867 353.096 304.716 341.652C324.565 330.208 349.946 337.002 361.407 356.826ZM342.979 367.133C348.649 376.941 345.285 389.481 335.465 395.143C325.645 400.805 313.087 397.444 307.417 387.636C301.747 377.828 305.111 365.288 314.931 359.626C324.751 353.964 337.308 357.325 342.979 367.133ZM346.245 308.215C366.094 296.771 372.893 271.423 361.432 251.599C349.971 231.775 324.589 224.981 304.741 236.425C284.892 247.869 278.093 273.217 289.554 293.041C301.015 312.865 326.396 319.659 346.245 308.215ZM335.893 289.936C345.713 284.274 349.077 271.733 343.406 261.925C337.736 252.117 325.179 248.756 315.359 254.418C305.539 260.08 302.175 272.621 307.845 282.429C313.515 292.236 326.073 295.598 335.893 289.936ZM354.268 146.037C365.729 165.861 358.929 191.209 339.081 202.653C319.232 214.097 293.85 207.304 282.389 187.48C270.928 167.655 277.728 142.308 297.576 130.864C317.425 119.42 342.807 126.213 354.268 146.037ZM335.706 155.978C341.376 165.786 338.012 178.326 328.192 183.988C318.372 189.65 305.815 186.289 300.145 176.481C294.474 166.673 297.838 154.133 307.658 148.471C317.478 142.809 330.036 146.17 335.706 155.978Z" clip-rule="evenodd"/></svg>