<svg fill="none" height="32" viewBox="0 0 32 32" width="32" xmlns="http://www.w3.org/2000/svg" xmlns:xlink="http://www.w3.org/1999/xlink"><clipPath id="a"><path d="m0 0h32v32h-32z"/></clipPath><g clip-path="url(#a)"><path d="m18.1029 16.1657 3.1195 3.5657 4.1947 2.6807.7315-6.2244-.7315-6.0855-4.2752 2.3552z" fill="#00832d"/><path d="m0 21.8343v4.9757c0 1.2123.981943 2.19 2.19429 2.19h5.30285l1.09715-3.6768-1.09715-3.4889-3.63885-1.0971z" fill="#0066da"/><path d="m7.49714 3-7.49714 7.4971 3.85829 1.0972 3.63885-1.0972 1.07886-3.44133z" fill="#e94235"/><path d="m7.49714 10.4971h-7.49714v11.3372h7.49714z" fill="#2684fc"/><path d="m30.208 6.1744-4.7909 3.9278v12.3099l4.8128 3.9461c.7205.5632 1.7738.0493 1.7738-.8668v-18.46854c0-.92709-1.0771-1.43543-1.7957-.84846zm-12.1051 9.9913v5.6686h-10.60575v7.1657h15.72575c1.2123 0 2.1942-.9777 2.1942-2.19v-4.3979z" fill="#00ac47"/><path d="m23.2229 3h-15.72575v7.4971h10.60575v5.6686l7.3142-6.0599v-4.91151c0-1.21235-.9819-2.19429-2.1942-2.19429z" fill="#ffba00"/></g></svg>