<svg xmlns="http://www.w3.org/2000/svg" enable-background="new 0 0 192 192" height="192" viewBox="0 0 192 192" width="192"><rect fill="none" height="192" width="192"/><g><g><path d="M184,101c-2.41,46.45-40.96,83-88,83c-48.59,0-88-39.4-88-88S47.41,8,96,8l0,0l0,0h74 c7.67,0,14,6.33,14,14V101z" fill="#1A73E8"/></g><path d="M170,8H96l0,0C47.4,8,8,47.38,8,95.95 c0,0.17,0-0.19,0-0.02C8.27,47.59,47.57,9,96,9l0,0h74c7.68,0,14,6.33,14,14v-1C184,14.33,177.68,8,170,8z" enable-background="new" fill="#FFFFFF" opacity=".2"/><g><g><path d="M184,101v-2c-2.41,46.46-40.95,84-88,84c-48.43,0-87.72-39.62-87.99-88 c0,0.17-0.01,0.83-0.01,1c0,48.61,39.4,88.09,88,88c47.79-0.09,85.87-36.62,88-84" fill="#1A237E" fill-opacity=".2"/></g></g><path d="M132,113c0,8.48-6.6,13.99-15,14H67c-8.39,0.01-14.99-5.46-15-13.93V118 c0.01,8.48,6.61,15.01,15,15h50c8.39-0.01,15.01-6.52,15-15V113L132,113z" fill="#185ABC"/><path d="M156,117c-0.03,2.47-3.31,3.82-5,2l-19-19v5l19,19c2,1.91,5,0.71,5-2V117z" fill="#185ABC"/><g><path d="M151,69l-19,19v12.01L151,119c1.77,1.88,5,0.58,5-2V71C156,68.48,152.81,67.22,151,69z" fill="#F1F3F4"/><path d="M117,60H67c-8.39,0.01-15.01,6.74-15,15v38c0.01,8.26,6.61,15.01,15,15h50 c8.39-0.01,15.01-6.74,15-15V75C131.99,66.74,125.39,59.99,117,60z" fill="#FFFFFF"/><g><polygon fill="#BDC1C6" points="132,101.2 132.01,100 136,104 136,84 132,88"/></g></g></g></svg>