<?xml version="1.0" encoding="UTF-8" standalone="no"?>
<svg
   xmlns:vectornator="http://vectornator.io"
   xmlns:dc="http://purl.org/dc/elements/1.1/"
   xmlns:cc="http://creativecommons.org/ns#"
   xmlns:rdf="http://www.w3.org/1999/02/22-rdf-syntax-ns#"
   xmlns:svg="http://www.w3.org/2000/svg"
   xmlns="http://www.w3.org/2000/svg"
   xmlns:sodipodi="http://sodipodi.sourceforge.net/DTD/sodipodi-0.dtd"
   xmlns:inkscape="http://www.inkscape.org/namespaces/inkscape"
   style="fill-rule:evenodd;clip-rule:evenodd;stroke-linecap:round;stroke-linejoin:round"
   version="1.1"
   viewBox="0 0 16 16"
   xml:space="preserve"
   id="svg41"
   sodipodi:docname="Icon-Calendar_dark.svg"
   inkscape:version="1.0.1 (c497b03c, 2020-09-10)"><defs
     id="defs45" /><sodipodi:namedview
     pagecolor="#ffffff"
     bordercolor="#666666"
     borderopacity="1"
     objecttolerance="10"
     gridtolerance="10"
     guidetolerance="10"
     inkscape:pageopacity="0"
     inkscape:pageshadow="2"
     inkscape:window-width="1680"
     inkscape:window-height="1005"
     id="namedview43"
     showgrid="false"
     inkscape:zoom="14.41536"
     inkscape:cx="21.353812"
     inkscape:cy="8"
     inkscape:window-x="0"
     inkscape:window-y="23"
     inkscape:window-maximized="1"
     inkscape:current-layer="svg41" /><metadata
     id="metadata32"><vectornator:setting
       key="DynamicGuides"
       value="1" /><vectornator:setting
       key="Units"
       value="Pixels" /><vectornator:setting
       key="GuidesVisible"
       value="1" /><vectornator:setting
       key="RulersVisible"
       value="1" /><vectornator:setting
       key="SnapToGuides"
       value="1" /><vectornator:setting
       key="GridSpacing"
       value="36" /><rdf:RDF><cc:Work
         rdf:about=""><dc:format>image/svg+xml</dc:format><dc:type
           rdf:resource="http://purl.org/dc/dcmitype/StillImage" /><dc:title></dc:title></cc:Work></rdf:RDF></metadata><path
     fill="none"
     d="m 0,0 h 16 v 0 16 0 H 0 v 0 z"
     opacity="1"
     id="path34" /><path
     fill="#ffffff"
     d="m 13.4423,16 c 0.8442,0 1.4815,-0.231 1.912,-0.6929 C 15.7848,14.8452 16,14.1614 16,13.2558 V 2.74416 C 16,1.83856 15.7848,1.1548 15.3543,0.692877 14.9238,0.230959 14.2865,0 13.4423,0 H 2.55765 C 1.71349,0 1.07617,0.22944 0.645702,0.688319 0.215234,1.1472 0,1.83248 0,2.74416 V 13.2558 c 0,0.9117 0.215234,1.597 0.645702,2.0559 C 1.07617,15.7706 1.71349,16 2.55765,16 Z m 0.0504,-1.559 H 2.49895 C 2.15793,14.441 1.89658,14.3438 1.71488,14.1493 1.53319,13.9548 1.44235,13.6631 1.44235,13.2741 V 5.25128 C 1.44235,4.8623 1.53319,4.57056 1.71488,4.37607 1.89658,4.18158 2.15793,4.08433 2.49895,4.08433 H 13.4927 c 0.341,0 0.6037,0.09725 0.7882,0.29174 0.1845,0.19449 0.2768,0.48623 0.2768,0.87521 v 8.02282 c 0,0.389 -0.0923,0.6807 -0.2768,0.8752 -0.1845,0.1945 -0.4472,0.2917 -0.7882,0.2917 z M 6.92662,7.11111 c 0.13977,0 0.2376,-0.02735 0.29351,-0.08205 0.0559,-0.0547 0.08385,-0.15802 0.08385,-0.30997 V 6.20855 C 7.30398,6.0566 7.27603,5.95176 7.22013,5.89402 7.16422,5.83628 7.06639,5.80741 6.92662,5.80741 h -0.4696 c -0.13976,0 -0.2362,0.02887 -0.2893,0.08661 C 6.1146,5.95176 6.08805,6.0566 6.08805,6.20855 v 0.51054 c 0,0.15195 0.02655,0.25527 0.07967,0.30997 0.0531,0.0547 0.14954,0.08205 0.2893,0.08205 z m 2.60797,0 c 0.14535,0 0.24459,-0.02735 0.29769,-0.08205 C 9.8854,6.97436 9.91195,6.87104 9.91195,6.71909 V 6.20855 C 9.91195,6.0566 9.8854,5.95176 9.83228,5.89402 9.77918,5.83628 9.67994,5.80741 9.53459,5.80741 h -0.4696 c -0.13976,0 -0.2362,0.02887 -0.28931,0.08661 C 8.72257,5.95176 8.69602,6.0566 8.69602,6.20855 v 0.51054 c 0,0.15195 0.02655,0.25527 0.07966,0.30997 0.05311,0.0547 0.14955,0.08205 0.28931,0.08205 z m 2.60801,0 c 0.1453,0 0.2459,-0.02735 0.3018,-0.08205 0.0559,-0.0547 0.0839,-0.15802 0.0839,-0.30997 V 6.20855 c 0,-0.15195 -0.028,-0.25679 -0.0839,-0.31453 C 12.3885,5.83628 12.2879,5.80741 12.1426,5.80741 h -0.4613 c -0.1397,0 -0.2362,0.02887 -0.2893,0.08661 -0.0531,0.05774 -0.0796,0.16258 -0.0796,0.31453 v 0.51054 c 0,0.15195 0.0265,0.25527 0.0796,0.30997 0.0531,0.0547 0.1496,0.08205 0.2893,0.08205 z M 4.31027,9.90997 c 0.13977,0 0.239,-0.02887 0.2977,-0.08661 C 4.66667,9.76562 4.69602,9.66078 4.69602,9.50883 V 9.00741 C 4.69602,8.85546 4.66667,8.75214 4.60797,8.69744 4.54927,8.64274 4.45004,8.61539 4.31027,8.61539 H 3.84906 c -0.13977,0 -0.2362,0.02735 -0.28931,0.08205 -0.05311,0.0547 -0.07967,0.15802 -0.07967,0.30997 v 0.50142 c 0,0.15195 0.02656,0.25679 0.07967,0.31453 0.05311,0.05774 0.14954,0.08661 0.28931,0.08661 z m 2.61635,0 c 0.13977,0 0.2376,-0.02887 0.29351,-0.08661 C 7.27603,9.76562 7.30398,9.66078 7.30398,9.50883 V 9.00741 C 7.30398,8.85546 7.27603,8.75214 7.22013,8.69744 7.16422,8.64274 7.06639,8.61539 6.92662,8.61539 h -0.4696 c -0.13976,0 -0.2362,0.02735 -0.2893,0.08205 C 6.1146,8.75214 6.08805,8.85546 6.08805,9.00741 v 0.50142 c 0,0.15195 0.02655,0.25679 0.07967,0.31453 0.0531,0.05774 0.14954,0.08661 0.2893,0.08661 z m 2.60797,0 c 0.14535,0 0.24459,-0.02887 0.29769,-0.08661 C 9.8854,9.76562 9.91195,9.66078 9.91195,9.50883 V 9.00741 C 9.91195,8.85546 9.8854,8.75214 9.83228,8.69744 9.77918,8.64274 9.67994,8.61539 9.53459,8.61539 h -0.4696 c -0.13976,0 -0.2362,0.02735 -0.28931,0.08205 -0.05311,0.0547 -0.07966,0.15802 -0.07966,0.30997 v 0.50142 c 0,0.15195 0.02655,0.25679 0.07966,0.31453 0.05311,0.05774 0.14955,0.08661 0.28931,0.08661 z m 2.60801,0 c 0.1453,0 0.2459,-0.02887 0.3018,-0.08661 0.0559,-0.05774 0.0839,-0.16258 0.0839,-0.31453 V 9.00741 c 0,-0.15195 -0.028,-0.25527 -0.0839,-0.30997 -0.0559,-0.0547 -0.1565,-0.08205 -0.3018,-0.08205 h -0.4613 c -0.1397,0 -0.2362,0.02735 -0.2893,0.08205 -0.0531,0.0547 -0.0796,0.15802 -0.0796,0.30997 v 0.50142 c 0,0.15195 0.0265,0.25679 0.0796,0.31453 0.0531,0.05774 0.1496,0.08661 0.2893,0.08661 z M 4.31027,12.7088 c 0.13977,0 0.239,-0.0288 0.2977,-0.0866 0.0587,-0.0577 0.08805,-0.1626 0.08805,-0.3145 v -0.5105 c 0,-0.152 -0.02935,-0.2553 -0.08805,-0.31 -0.0587,-0.0547 -0.15793,-0.0821 -0.2977,-0.0821 H 3.84906 c -0.13977,0 -0.2362,0.0274 -0.28931,0.0821 -0.05311,0.0547 -0.07967,0.158 -0.07967,0.31 v 0.5105 c 0,0.1519 0.02656,0.2568 0.07967,0.3145 0.05311,0.0578 0.14954,0.0866 0.28931,0.0866 z m 2.61635,0 c 0.13977,0 0.2376,-0.0288 0.29351,-0.0866 0.0559,-0.0577 0.08385,-0.1626 0.08385,-0.3145 v -0.5105 c 0,-0.152 -0.02795,-0.2553 -0.08385,-0.31 C 7.16422,11.4325 7.06639,11.4051 6.92662,11.4051 h -0.4696 c -0.13976,0 -0.2362,0.0274 -0.2893,0.0821 -0.05312,0.0547 -0.07967,0.158 -0.07967,0.31 v 0.5105 c 0,0.1519 0.02655,0.2568 0.07967,0.3145 0.0531,0.0578 0.14954,0.0866 0.2893,0.0866 z m 2.60797,0 c 0.14535,0 0.24459,-0.0288 0.29769,-0.0866 0.05312,-0.0577 0.07967,-0.1626 0.07967,-0.3145 v -0.5105 c 0,-0.152 -0.02655,-0.2553 -0.07967,-0.31 -0.0531,-0.0547 -0.15234,-0.0821 -0.29769,-0.0821 h -0.4696 c -0.13976,0 -0.2362,0.0274 -0.28931,0.0821 -0.05311,0.0547 -0.07966,0.158 -0.07966,0.31 v 0.5105 c 0,0.1519 0.02655,0.2568 0.07966,0.3145 0.05311,0.0578 0.14955,0.0866 0.28931,0.0866 z"
     opacity="1"
     id="path36"
     style="fill:#ffffff;fill-opacity:1" /></svg>
