<svg xmlns="http://www.w3.org/2000/svg" xmlns:vectornator="http://vectornator.io" xmlns:xlink="http://www.w3.org/1999/xlink" style="fill-rule:evenodd;clip-rule:evenodd;stroke-linecap:round;stroke-linejoin:round" version="1.1" viewBox="0 0 16 16" xml:space="preserve"><metadata><vectornator:setting key="DynamicGuides" value="1"/><vectornator:setting key="Units" value="Pixels"/><vectornator:setting key="GuidesVisible" value="1"/><vectornator:setting key="RulersVisible" value="1"/><vectornator:setting key="SnapToGuides" value="1"/><vectornator:setting key="GridSpacing" value="36"/></metadata><g id="Page-1" vectornator:layerName="Page-1"><g opacity="1"><path fill="none" d="M0+0L16+0L16+0L16+16L16+16L0+16L0+16L0+0L0+0Z" opacity="1"/><path fill="#000" d="M13.4423+16C14.2865+16+14.9238+15.769+15.3543+15.3071C15.7848+14.8452+16+14.1614+16+13.2558L16+2.74416C16+1.83856+15.7848+1.1548+15.3543+0.692877C14.9238+0.230959+14.2865+0+13.4423+0L2.55765+0C1.71349+0+1.07617+0.22944+0.645702+0.688319C0.215234+1.1472+0+1.83248+0+2.74416L0+13.2558C0+14.1675+0.215234+14.8528+0.645702+15.3117C1.07617+15.7706+1.71349+16+2.55765+16L13.4423+16ZM13.4927+14.441L2.49895+14.441C2.15793+14.441+1.89658+14.3438+1.71488+14.1493C1.53319+13.9548+1.44235+13.6631+1.44235+13.2741L1.44235+5.25128C1.44235+4.8623+1.53319+4.57056+1.71488+4.37607C1.89658+4.18158+2.15793+4.08433+2.49895+4.08433L13.4927+4.08433C13.8337+4.08433+14.0964+4.18158+14.2809+4.37607C14.4654+4.57056+14.5577+4.8623+14.5577+5.25128L14.5577+13.2741C14.5577+13.6631+14.4654+13.9548+14.2809+14.1493C14.0964+14.3438+13.8337+14.441+13.4927+14.441ZM6.92662+7.11111C7.06639+7.11111+7.16422+7.08376+7.22013+7.02906C7.27603+6.97436+7.30398+6.87104+7.30398+6.71909L7.30398+6.20855C7.30398+6.0566+7.27603+5.95176+7.22013+5.89402C7.16422+5.83628+7.06639+5.80741+6.92662+5.80741L6.45702+5.80741C6.31726+5.80741+6.22082+5.83628+6.16772+5.89402C6.1146+5.95176+6.08805+6.0566+6.08805+6.20855L6.08805+6.71909C6.08805+6.87104+6.1146+6.97436+6.16772+7.02906C6.22082+7.08376+6.31726+7.11111+6.45702+7.11111L6.92662+7.11111ZM9.53459+7.11111C9.67994+7.11111+9.77918+7.08376+9.83228+7.02906C9.8854+6.97436+9.91195+6.87104+9.91195+6.71909L9.91195+6.20855C9.91195+6.0566+9.8854+5.95176+9.83228+5.89402C9.77918+5.83628+9.67994+5.80741+9.53459+5.80741L9.06499+5.80741C8.92523+5.80741+8.82879+5.83628+8.77568+5.89402C8.72257+5.95176+8.69602+6.0566+8.69602+6.20855L8.69602+6.71909C8.69602+6.87104+8.72257+6.97436+8.77568+7.02906C8.82879+7.08376+8.92523+7.11111+9.06499+7.11111L9.53459+7.11111ZM12.1426+7.11111C12.2879+7.11111+12.3885+7.08376+12.4444+7.02906C12.5003+6.97436+12.5283+6.87104+12.5283+6.71909L12.5283+6.20855C12.5283+6.0566+12.5003+5.95176+12.4444+5.89402C12.3885+5.83628+12.2879+5.80741+12.1426+5.80741L11.6813+5.80741C11.5416+5.80741+11.4451+5.83628+11.392+5.89402C11.3389+5.95176+11.3124+6.0566+11.3124+6.20855L11.3124+6.71909C11.3124+6.87104+11.3389+6.97436+11.392+7.02906C11.4451+7.08376+11.5416+7.11111+11.6813+7.11111L12.1426+7.11111ZM4.31027+9.90997C4.45004+9.90997+4.54927+9.8811+4.60797+9.82336C4.66667+9.76562+4.69602+9.66078+4.69602+9.50883L4.69602+9.00741C4.69602+8.85546+4.66667+8.75214+4.60797+8.69744C4.54927+8.64274+4.45004+8.61539+4.31027+8.61539L3.84906+8.61539C3.70929+8.61539+3.61286+8.64274+3.55975+8.69744C3.50664+8.75214+3.48008+8.85546+3.48008+9.00741L3.48008+9.50883C3.48008+9.66078+3.50664+9.76562+3.55975+9.82336C3.61286+9.8811+3.70929+9.90997+3.84906+9.90997L4.31027+9.90997ZM6.92662+9.90997C7.06639+9.90997+7.16422+9.8811+7.22013+9.82336C7.27603+9.76562+7.30398+9.66078+7.30398+9.50883L7.30398+9.00741C7.30398+8.85546+7.27603+8.75214+7.22013+8.69744C7.16422+8.64274+7.06639+8.61539+6.92662+8.61539L6.45702+8.61539C6.31726+8.61539+6.22082+8.64274+6.16772+8.69744C6.1146+8.75214+6.08805+8.85546+6.08805+9.00741L6.08805+9.50883C6.08805+9.66078+6.1146+9.76562+6.16772+9.82336C6.22082+9.8811+6.31726+9.90997+6.45702+9.90997L6.92662+9.90997ZM9.53459+9.90997C9.67994+9.90997+9.77918+9.8811+9.83228+9.82336C9.8854+9.76562+9.91195+9.66078+9.91195+9.50883L9.91195+9.00741C9.91195+8.85546+9.8854+8.75214+9.83228+8.69744C9.77918+8.64274+9.67994+8.61539+9.53459+8.61539L9.06499+8.61539C8.92523+8.61539+8.82879+8.64274+8.77568+8.69744C8.72257+8.75214+8.69602+8.85546+8.69602+9.00741L8.69602+9.50883C8.69602+9.66078+8.72257+9.76562+8.77568+9.82336C8.82879+9.8811+8.92523+9.90997+9.06499+9.90997L9.53459+9.90997ZM12.1426+9.90997C12.2879+9.90997+12.3885+9.8811+12.4444+9.82336C12.5003+9.76562+12.5283+9.66078+12.5283+9.50883L12.5283+9.00741C12.5283+8.85546+12.5003+8.75214+12.4444+8.69744C12.3885+8.64274+12.2879+8.61539+12.1426+8.61539L11.6813+8.61539C11.5416+8.61539+11.4451+8.64274+11.392+8.69744C11.3389+8.75214+11.3124+8.85546+11.3124+9.00741L11.3124+9.50883C11.3124+9.66078+11.3389+9.76562+11.392+9.82336C11.4451+9.8811+11.5416+9.90997+11.6813+9.90997L12.1426+9.90997ZM4.31027+12.7088C4.45004+12.7088+4.54927+12.68+4.60797+12.6222C4.66667+12.5645+4.69602+12.4596+4.69602+12.3077L4.69602+11.7972C4.69602+11.6452+4.66667+11.5419+4.60797+11.4872C4.54927+11.4325+4.45004+11.4051+4.31027+11.4051L3.84906+11.4051C3.70929+11.4051+3.61286+11.4325+3.55975+11.4872C3.50664+11.5419+3.48008+11.6452+3.48008+11.7972L3.48008+12.3077C3.48008+12.4596+3.50664+12.5645+3.55975+12.6222C3.61286+12.68+3.70929+12.7088+3.84906+12.7088L4.31027+12.7088ZM6.92662+12.7088C7.06639+12.7088+7.16422+12.68+7.22013+12.6222C7.27603+12.5645+7.30398+12.4596+7.30398+12.3077L7.30398+11.7972C7.30398+11.6452+7.27603+11.5419+7.22013+11.4872C7.16422+11.4325+7.06639+11.4051+6.92662+11.4051L6.45702+11.4051C6.31726+11.4051+6.22082+11.4325+6.16772+11.4872C6.1146+11.5419+6.08805+11.6452+6.08805+11.7972L6.08805+12.3077C6.08805+12.4596+6.1146+12.5645+6.16772+12.6222C6.22082+12.68+6.31726+12.7088+6.45702+12.7088L6.92662+12.7088ZM9.53459+12.7088C9.67994+12.7088+9.77918+12.68+9.83228+12.6222C9.8854+12.5645+9.91195+12.4596+9.91195+12.3077L9.91195+11.7972C9.91195+11.6452+9.8854+11.5419+9.83228+11.4872C9.77918+11.4325+9.67994+11.4051+9.53459+11.4051L9.06499+11.4051C8.92523+11.4051+8.82879+11.4325+8.77568+11.4872C8.72257+11.5419+8.69602+11.6452+8.69602+11.7972L8.69602+12.3077C8.69602+12.4596+8.72257+12.5645+8.77568+12.6222C8.82879+12.68+8.92523+12.7088+9.06499+12.7088L9.53459+12.7088Z" opacity="1"/></g></g></svg>