<?xml version="1.0" encoding="UTF-8"?>
<svg width="16px" height="16px" viewBox="0 0 16 16" version="1.1" xmlns="http://www.w3.org/2000/svg" xmlns:xlink="http://www.w3.org/1999/xlink">
    <title>icon-calendar</title>
    <g id="Page-1" stroke="none" stroke-width="1" fill="none" fill-rule="evenodd">
        <g id="Artboard" transform="translate(-53.000000, -4.000000)">
            <g id="icon-calendar" transform="translate(53.000000, 4.000000)">
                <rect id="Rectangle" x="0" y="0" width="16" height="16"></rect>
                <path d="M13.442348,16 C14.2865129,16 14.9238295,15.7690408 15.3542977,15.3071225 C15.7847659,14.8452042 16,14.1614435 16,13.2558405 L16,2.74415954 C16,1.83855651 15.7847659,1.15479582 15.3542977,0.692877493 C14.9238295,0.230959164 14.2865129,0 13.442348,0 L2.55765199,0 C1.71348707,0 1.07617051,0.229439696 0.645702306,0.688319088 C0.215234102,1.14719848 0,1.83247863 0,2.74415954 L0,13.2558405 C0,14.1675214 0.215234102,14.8528015 0.645702306,15.3116809 C1.07617051,15.7705603 1.71348707,16 2.55765199,16 L13.442348,16 Z M13.4926625,14.4410256 L2.49895178,14.4410256 C2.15793152,14.4410256 1.89657582,14.3437797 1.7148847,14.1492877 C1.53319357,13.9547958 1.44234801,13.6630579 1.44234801,13.2740741 L1.44234801,5.25128205 C1.44234801,4.8622982 1.53319357,4.5705603 1.7148847,4.37606838 C1.89657582,4.18157645 2.15793152,4.08433048 2.49895178,4.08433048 L13.4926625,4.08433048 C13.8336827,4.08433048 14.0964361,4.18157645 14.2809224,4.37606838 C14.4654088,4.5705603 14.557652,4.8622982 14.557652,5.25128205 L14.557652,13.2740741 C14.557652,13.6630579 14.4654088,13.9547958 14.2809224,14.1492877 C14.0964361,14.3437797 13.8336827,14.4410256 13.4926625,14.4410256 Z M6.92662474,7.11111111 C7.06638714,7.11111111 7.16422082,7.08376068 7.22012579,7.02905983 C7.27603075,6.97435897 7.30398323,6.87103514 7.30398323,6.71908832 L7.30398323,6.20854701 C7.30398323,6.05660019 7.27603075,5.95175689 7.22012579,5.89401709 C7.16422082,5.8362773 7.06638714,5.80740741 6.92662474,5.80740741 L6.45702306,5.80740741 C6.31726066,5.80740741 6.2208246,5.8362773 6.16771488,5.89401709 C6.11460517,5.95175689 6.08805031,6.05660019 6.08805031,6.20854701 L6.08805031,6.71908832 C6.08805031,6.87103514 6.11460517,6.97435897 6.16771488,7.02905983 C6.2208246,7.08376068 6.31726066,7.11111111 6.45702306,7.11111111 L6.92662474,7.11111111 Z M9.53459119,7.11111111 C9.6799441,7.11111111 9.7791754,7.08376068 9.83228512,7.02905983 C9.88539483,6.97435897 9.91194969,6.87103514 9.91194969,6.71908832 L9.91194969,6.20854701 C9.91194969,6.05660019 9.88539483,5.95175689 9.83228512,5.89401709 C9.7791754,5.8362773 9.6799441,5.80740741 9.53459119,5.80740741 L9.06498952,5.80740741 C8.92522711,5.80740741 8.82879106,5.8362773 8.77568134,5.89401709 C8.72257163,5.95175689 8.69601677,6.05660019 8.69601677,6.20854701 L8.69601677,6.71908832 C8.69601677,6.87103514 8.72257163,6.97435897 8.77568134,7.02905983 C8.82879106,7.08376068 8.92522711,7.11111111 9.06498952,7.11111111 L9.53459119,7.11111111 Z M12.1425577,7.11111111 C12.2879106,7.11111111 12.3885395,7.08376068 12.4444444,7.02905983 C12.5003494,6.97435897 12.5283019,6.87103514 12.5283019,6.71908832 L12.5283019,6.20854701 C12.5283019,6.05660019 12.5003494,5.95175689 12.4444444,5.89401709 C12.3885395,5.8362773 12.2879106,5.80740741 12.1425577,5.80740741 L11.6813417,5.80740741 C11.5415793,5.80740741 11.4451433,5.8362773 11.3920335,5.89401709 C11.3389238,5.95175689 11.312369,6.05660019 11.312369,6.20854701 L11.312369,6.71908832 C11.312369,6.87103514 11.3389238,6.97435897 11.3920335,7.02905983 C11.4451433,7.08376068 11.5415793,7.11111111 11.6813417,7.11111111 L12.1425577,7.11111111 Z M4.31027254,9.90997151 C4.45003494,9.90997151 4.54926625,9.88110161 4.60796646,9.82336182 C4.66666667,9.76562203 4.69601677,9.66077873 4.69601677,9.50883191 L4.69601677,9.00740741 C4.69601677,8.85546059 4.66666667,8.75213675 4.60796646,8.6974359 C4.54926625,8.64273504 4.45003494,8.61538462 4.31027254,8.61538462 L3.8490566,8.61538462 C3.7092942,8.61538462 3.61285814,8.64273504 3.55974843,8.6974359 C3.50663871,8.75213675 3.48008386,8.85546059 3.48008386,9.00740741 L3.48008386,9.50883191 C3.48008386,9.66077873 3.50663871,9.76562203 3.55974843,9.82336182 C3.61285814,9.88110161 3.7092942,9.90997151 3.8490566,9.90997151 L4.31027254,9.90997151 Z M6.92662474,9.90997151 C7.06638714,9.90997151 7.16422082,9.88110161 7.22012579,9.82336182 C7.27603075,9.76562203 7.30398323,9.66077873 7.30398323,9.50883191 L7.30398323,9.00740741 C7.30398323,8.85546059 7.27603075,8.75213675 7.22012579,8.6974359 C7.16422082,8.64273504 7.06638714,8.61538462 6.92662474,8.61538462 L6.45702306,8.61538462 C6.31726066,8.61538462 6.2208246,8.64273504 6.16771488,8.6974359 C6.11460517,8.75213675 6.08805031,8.85546059 6.08805031,9.00740741 L6.08805031,9.50883191 C6.08805031,9.66077873 6.11460517,9.76562203 6.16771488,9.82336182 C6.2208246,9.88110161 6.31726066,9.90997151 6.45702306,9.90997151 L6.92662474,9.90997151 Z M9.53459119,9.90997151 C9.6799441,9.90997151 9.7791754,9.88110161 9.83228512,9.82336182 C9.88539483,9.76562203 9.91194969,9.66077873 9.91194969,9.50883191 L9.91194969,9.00740741 C9.91194969,8.85546059 9.88539483,8.75213675 9.83228512,8.6974359 C9.7791754,8.64273504 9.6799441,8.61538462 9.53459119,8.61538462 L9.06498952,8.61538462 C8.92522711,8.61538462 8.82879106,8.64273504 8.77568134,8.6974359 C8.72257163,8.75213675 8.69601677,8.85546059 8.69601677,9.00740741 L8.69601677,9.50883191 C8.69601677,9.66077873 8.72257163,9.76562203 8.77568134,9.82336182 C8.82879106,9.88110161 8.92522711,9.90997151 9.06498952,9.90997151 L9.53459119,9.90997151 Z M12.1425577,9.90997151 C12.2879106,9.90997151 12.3885395,9.88110161 12.4444444,9.82336182 C12.5003494,9.76562203 12.5283019,9.66077873 12.5283019,9.50883191 L12.5283019,9.00740741 C12.5283019,8.85546059 12.5003494,8.75213675 12.4444444,8.6974359 C12.3885395,8.64273504 12.2879106,8.61538462 12.1425577,8.61538462 L11.6813417,8.61538462 C11.5415793,8.61538462 11.4451433,8.64273504 11.3920335,8.6974359 C11.3389238,8.75213675 11.312369,8.85546059 11.312369,9.00740741 L11.312369,9.50883191 C11.312369,9.66077873 11.3389238,9.76562203 11.3920335,9.82336182 C11.4451433,9.88110161 11.5415793,9.90997151 11.6813417,9.90997151 L12.1425577,9.90997151 Z M4.31027254,12.7088319 C4.45003494,12.7088319 4.54926625,12.679962 4.60796646,12.6222222 C4.66666667,12.5644824 4.69601677,12.4596391 4.69601677,12.3076923 L4.69601677,11.797151 C4.69601677,11.6452042 4.66666667,11.5418803 4.60796646,11.4871795 C4.54926625,11.4324786 4.45003494,11.4051282 4.31027254,11.4051282 L3.8490566,11.4051282 C3.7092942,11.4051282 3.61285814,11.4324786 3.55974843,11.4871795 C3.50663871,11.5418803 3.48008386,11.6452042 3.48008386,11.797151 L3.48008386,12.3076923 C3.48008386,12.4596391 3.50663871,12.5644824 3.55974843,12.6222222 C3.61285814,12.679962 3.7092942,12.7088319 3.8490566,12.7088319 L4.31027254,12.7088319 Z M6.92662474,12.7088319 C7.06638714,12.7088319 7.16422082,12.679962 7.22012579,12.6222222 C7.27603075,12.5644824 7.30398323,12.4596391 7.30398323,12.3076923 L7.30398323,11.797151 C7.30398323,11.6452042 7.27603075,11.5418803 7.22012579,11.4871795 C7.16422082,11.4324786 7.06638714,11.4051282 6.92662474,11.4051282 L6.45702306,11.4051282 C6.31726066,11.4051282 6.2208246,11.4324786 6.16771488,11.4871795 C6.11460517,11.5418803 6.08805031,11.6452042 6.08805031,11.797151 L6.08805031,12.3076923 C6.08805031,12.4596391 6.11460517,12.5644824 6.16771488,12.6222222 C6.2208246,12.679962 6.31726066,12.7088319 6.45702306,12.7088319 L6.92662474,12.7088319 Z M9.53459119,12.7088319 C9.6799441,12.7088319 9.7791754,12.679962 9.83228512,12.6222222 C9.88539483,12.5644824 9.91194969,12.4596391 9.91194969,12.3076923 L9.91194969,11.797151 C9.91194969,11.6452042 9.88539483,11.5418803 9.83228512,11.4871795 C9.7791754,11.4324786 9.6799441,11.4051282 9.53459119,11.4051282 L9.06498952,11.4051282 C8.92522711,11.4051282 8.82879106,11.4324786 8.77568134,11.4871795 C8.72257163,11.5418803 8.69601677,11.6452042 8.69601677,11.797151 L8.69601677,12.3076923 C8.69601677,12.4596391 8.72257163,12.5644824 8.77568134,12.6222222 C8.82879106,12.679962 8.92522711,12.7088319 9.06498952,12.7088319 L9.53459119,12.7088319 Z" id="icon" fill="#1A2226" fill-rule="nonzero"></path>
            </g>
        </g>
    </g>
</svg>