<svg id="svg" version="1.1" xmlns="http://www.w3.org/2000/svg" xmlns:xlink="http://www.w3.org/1999/xlink" width="400" height="431.26684636118597" viewBox="0, 0, 400,431.26684636118597"><g id="svgg"><path id="path0" d="M247.000 87.450 C 245.252 87.931,88.131 88.059,69.724 87.594 C 67.703 87.543,65.543 87.632,64.924 87.791 C 64.306 87.951,62.900 88.227,61.800 88.406 C 58.484 88.944,54.968 89.926,53.338 90.769 C 52.492 91.208,50.810 91.720,49.600 91.907 C 48.150 92.132,46.800 92.683,45.640 93.524 C 44.672 94.226,43.635 94.800,43.336 94.800 C 41.816 94.800,34.856 100.562,33.120 103.256 C 32.745 103.837,31.230 105.007,29.751 105.856 C 27.134 107.360,27.050 107.459,26.562 109.600 C 26.287 110.810,25.760 112.790,25.391 114.000 C 25.022 115.210,24.490 117.124,24.207 118.252 C 23.925 119.381,23.314 120.821,22.849 121.452 C 22.384 122.084,21.964 123.095,21.915 123.700 C 21.866 124.305,21.688 124.800,21.521 124.800 C 20.592 124.800,19.533 128.305,19.185 132.530 C 18.599 139.644,18.671 320.331,19.260 322.690 C 19.523 323.741,20.192 325.410,20.748 326.400 C 23.414 331.150,23.770 332.158,23.999 335.600 C 24.289 339.957,25.269 341.695,30.460 347.056 C 30.916 347.526,31.626 348.664,32.038 349.585 C 33.551 352.964,36.517 355.662,40.043 356.865 C 40.789 357.120,41.850 357.676,42.400 358.100 C 42.950 358.525,44.008 359.127,44.752 359.438 C 45.984 359.953,46.085 360.120,45.889 361.328 C 45.677 362.636,47.243 363.950,48.600 363.602 C 49.878 363.274,51.208 363.293,52.800 363.663 C 54.996 364.172,58.014 364.653,63.800 365.417 C 69.568 366.178,244.268 366.056,253.200 365.285 C 261.011 364.610,267.976 363.639,269.688 362.984 C 271.148 362.427,272.400 362.543,272.400 363.236 C 272.400 363.429,273.030 363.286,273.801 362.919 C 274.931 362.380,275.186 362.045,275.120 361.186 C 274.973 359.260,276.657 357.750,281.600 355.373 C 286.764 352.891,287.519 352.168,289.036 348.262 C 289.801 346.291,290.758 344.818,292.450 343.011 C 295.157 340.117,296.034 338.322,295.941 335.868 C 295.905 334.910,295.978 333.959,296.105 333.754 C 296.231 333.550,296.450 332.577,296.591 331.592 C 296.733 330.606,297.208 329.100,297.647 328.245 C 300.193 323.284,301.024 317.623,299.607 314.904 C 299.059 313.852,298.823 312.643,298.844 310.991 C 298.860 309.676,298.938 268.910,299.018 220.400 C 299.175 124.483,299.225 126.949,296.989 121.009 C 296.445 119.564,296.000 117.871,296.000 117.248 C 296.000 116.624,295.370 114.905,294.600 113.428 C 293.830 111.951,293.192 110.260,293.183 109.671 C 293.148 107.446,289.531 103.306,285.310 100.662 C 284.381 100.079,283.301 98.984,282.910 98.227 C 281.600 95.687,276.935 93.062,272.200 92.199 C 268.129 91.457,265.846 90.883,261.800 89.583 C 259.820 88.947,257.480 88.310,256.600 88.166 C 255.720 88.023,254.017 87.656,252.816 87.353 C 250.257 86.705,249.670 86.715,247.000 87.450 M350.200 113.551 C 349.540 113.962,348.471 114.861,347.825 115.549 C 346.861 116.575,346.340 116.800,344.925 116.800 C 343.976 116.800,343.200 116.969,343.200 117.175 C 343.200 117.381,341.985 118.374,340.500 119.381 C 339.015 120.389,336.990 121.950,336.000 122.851 C 335.010 123.752,333.300 124.899,332.200 125.400 C 330.957 125.966,328.912 127.584,326.800 129.671 C 324.930 131.519,322.365 133.622,321.100 134.345 C 318.244 135.977,318.466 134.727,318.173 150.800 C 317.291 199.238,318.023 304.923,319.259 307.504 L 320.075 309.208 319.256 311.907 C 318.265 315.169,318.641 317.536,320.352 318.794 C 323.685 321.246,325.414 322.865,327.035 325.051 C 328.339 326.810,329.325 327.694,330.526 328.182 C 334.700 329.877,334.962 330.086,335.282 331.971 C 335.615 333.935,335.887 334.203,338.190 334.840 C 341.490 335.752,344.311 337.506,345.362 339.300 C 348.845 345.242,353.808 344.859,353.667 338.659 C 353.045 311.300,352.877 286.864,352.842 218.364 C 352.806 148.146,352.714 135.443,352.231 133.836 C 351.713 132.115,351.731 131.745,352.430 129.712 C 353.544 126.475,353.897 117.746,352.991 115.837 C 352.632 115.081,352.291 114.143,352.234 113.753 C 352.086 112.745,351.575 112.694,350.200 113.551 M146.299 124.000 L 187.280 124.000 188.682 125.402 L 190.084 126.804 196.742 126.367 C 203.971 125.892,205.683 126.018,207.979 127.189 C 208.807 127.611,210.415 128.081,211.554 128.232 C 213.537 128.495,214.903 129.192,219.117 132.092 C 220.061 132.742,221.412 133.434,222.120 133.629 C 222.832 133.826,224.646 135.164,226.180 136.624 C 227.705 138.076,229.863 139.724,230.976 140.286 C 235.705 142.674,237.537 144.771,238.566 148.976 C 238.724 149.622,239.201 150.640,239.627 151.237 C 240.052 151.835,240.400 152.438,240.400 152.579 C 240.400 152.719,241.102 153.772,241.960 154.917 C 242.819 156.063,243.958 157.900,244.493 159.000 C 245.028 160.100,245.845 161.662,246.309 162.471 C 246.774 163.280,247.279 165.080,247.433 166.471 C 247.586 167.862,247.875 169.439,248.074 169.975 C 248.683 171.610,248.967 189.291,248.430 192.120 C 247.223 198.481,246.616 200.761,245.585 202.800 C 244.974 204.010,243.781 206.553,242.935 208.452 C 241.801 210.998,240.691 212.677,238.705 214.852 C 231.386 222.867,230.787 223.628,231.195 224.391 C 231.630 225.204,234.447 227.705,237.197 229.719 C 238.406 230.605,239.452 231.898,240.397 233.671 C 242.035 236.747,244.888 240.605,245.943 241.170 C 246.612 241.527,247.690 244.259,248.166 246.800 C 248.381 247.945,249.675 251.406,250.820 253.896 C 251.249 254.828,251.600 255.799,251.600 256.053 C 251.600 256.306,251.949 257.703,252.375 259.157 C 252.802 260.611,253.258 262.840,253.389 264.111 C 253.521 265.382,253.780 266.822,253.965 267.311 C 254.273 268.125,254.247 273.836,253.908 279.800 C 253.833 281.120,253.491 282.830,253.148 283.600 C 252.806 284.370,252.403 285.653,252.254 286.452 C 252.032 287.635,251.772 287.946,250.845 288.131 C 249.832 288.334,249.681 288.570,249.451 290.304 C 248.931 294.220,247.152 298.359,245.197 300.200 C 244.496 300.860,243.135 302.961,242.173 304.869 C 241.210 306.778,240.235 308.455,240.006 308.597 C 239.776 308.738,239.248 309.521,238.833 310.336 C 238.417 311.151,237.249 312.645,236.238 313.657 C 235.227 314.668,234.400 315.633,234.400 315.802 C 234.400 316.433,232.350 317.976,231.024 318.342 C 230.268 318.551,229.053 319.176,228.324 319.732 C 225.209 322.107,219.122 324.736,215.662 325.200 C 213.827 325.447,211.847 325.837,211.262 326.068 C 210.678 326.298,208.964 326.629,207.454 326.802 C 205.734 327.000,204.301 327.419,203.618 327.924 C 203.018 328.367,201.554 328.854,200.364 329.005 C 199.174 329.156,197.840 329.485,197.400 329.736 C 196.814 330.070,183.806 330.203,148.800 330.232 C 113.529 330.261,100.705 330.394,99.874 330.736 C 97.316 331.790,93.237 331.339,91.854 329.849 C 91.164 329.107,90.217 328.382,89.750 328.238 C 87.163 327.445,86.173 321.133,87.571 314.341 C 88.278 310.906,88.295 310.326,87.779 307.397 C 87.307 304.717,87.214 290.621,87.208 220.199 L 87.200 136.197 85.815 134.250 C 84.527 132.438,84.469 132.228,84.983 131.251 C 85.990 129.337,89.054 126.668,89.970 126.908 C 90.426 127.027,90.900 126.962,91.023 126.762 C 91.146 126.563,91.687 126.400,92.224 126.400 C 92.761 126.400,93.200 126.225,93.200 126.010 C 93.200 125.364,95.460 124.403,97.080 124.360 C 97.916 124.338,99.050 124.166,99.600 123.976 C 100.150 123.787,101.661 123.715,102.959 123.816 C 104.256 123.917,123.759 124.000,146.299 124.000 M128.804 161.996 C 127.915 162.940,127.093 164.092,126.979 164.556 C 126.514 166.441,127.045 190.984,127.592 192.899 C 127.998 194.321,128.035 195.343,127.740 196.970 C 127.101 200.497,127.828 204.223,129.369 205.322 L 130.600 206.200 159.800 206.200 C 193.685 206.200,192.410 206.322,198.478 202.509 C 201.874 200.376,203.632 198.720,207.891 193.644 C 211.533 189.304,211.558 183.727,207.968 176.200 C 206.163 172.416,205.183 169.462,205.019 167.313 C 204.832 164.876,201.929 164.261,198.070 165.840 C 196.749 166.381,196.725 166.370,194.677 164.355 C 191.076 160.809,192.193 161.000,175.000 161.000 C 166.640 161.000,153.190 160.838,145.111 160.639 L 130.421 160.278 128.804 161.996 M192.800 192.567 C 192.800 192.659,192.900 192.996,193.023 193.316 C 193.266 193.949,192.229 195.204,191.471 195.194 C 190.203 195.177,189.843 194.498,190.541 193.434 C 191.092 192.592,192.800 191.937,192.800 192.567 M185.564 240.831 C 185.254 241.027,184.156 241.191,183.124 241.194 C 182.092 241.197,181.131 241.389,180.988 241.619 C 180.810 241.907,180.553 241.893,180.170 241.575 C 179.808 241.275,179.079 241.217,178.106 241.411 C 177.277 241.576,166.970 241.771,155.200 241.846 L 133.800 241.981 131.763 243.006 C 130.643 243.570,129.113 244.664,128.363 245.437 L 127.000 246.843 126.796 263.322 C 126.539 284.194,126.802 286.669,129.588 289.540 C 132.519 292.560,130.786 292.400,160.660 292.398 C 191.210 292.395,192.575 292.287,197.208 289.500 C 198.414 288.775,200.210 287.867,201.200 287.483 C 202.190 287.098,203.755 286.112,204.679 285.291 C 205.602 284.471,206.828 283.469,207.403 283.063 C 207.977 282.658,208.617 281.881,208.824 281.336 C 209.031 280.791,209.649 279.758,210.197 279.040 C 210.781 278.274,211.427 276.592,211.760 274.967 C 212.072 273.445,212.599 271.248,212.932 270.085 C 213.901 266.688,213.734 263.595,212.400 260.264 C 211.763 258.673,211.049 256.477,210.814 255.385 C 210.167 252.382,209.707 251.768,207.047 250.357 C 205.701 249.644,203.965 248.370,203.189 247.528 C 201.489 245.681,198.360 244.806,192.400 244.510 C 188.330 244.309,187.427 243.942,187.758 242.626 C 188.110 241.224,186.729 240.093,185.564 240.831 M193.114 280.352 C 192.948 281.215,190.604 281.260,190.592 280.400 C 190.587 280.070,190.854 279.693,191.185 279.562 C 192.139 279.185,193.251 279.640,193.114 280.352 M333.600 315.212 C 333.600 315.355,333.150 315.677,332.600 315.927 C 332.050 316.178,331.600 316.311,331.600 316.224 C 331.600 316.137,331.500 315.804,331.377 315.484 C 330.974 314.434,332.433 313.357,333.073 314.232 C 333.363 314.629,333.600 315.070,333.600 315.212 " stroke="none" fill="#1575c6" fill-rule="evenodd"></path><path id="path1" d="M59.061 81.796 C 58.629 82.228,57.596 82.400,55.429 82.400 C 53.003 82.400,52.400 82.519,52.400 83.000 C 52.400 83.433,51.956 83.600,50.800 83.600 C 49.644 83.600,49.200 83.767,49.200 84.200 C 49.200 84.633,48.756 84.800,47.600 84.800 C 46.720 84.800,46.000 84.980,46.000 85.200 C 46.000 85.420,45.577 85.600,45.060 85.600 C 44.486 85.600,43.761 86.068,43.200 86.800 C 42.507 87.704,41.956 88.000,40.964 88.000 C 40.240 88.000,39.536 88.180,39.400 88.400 C 39.264 88.620,38.798 88.800,38.364 88.800 C 37.930 88.800,37.471 89.070,37.345 89.400 C 37.218 89.730,36.864 90.000,36.557 90.000 C 36.251 90.000,36.000 90.270,36.000 90.600 C 36.000 90.941,35.641 91.200,35.169 91.200 C 34.322 91.200,32.000 93.210,32.000 93.943 C 32.000 94.165,31.507 94.404,30.903 94.473 C 30.207 94.554,29.754 94.876,29.663 95.356 C 29.584 95.772,29.088 96.513,28.560 97.002 C 28.032 97.491,27.600 98.096,27.600 98.346 C 27.600 98.596,27.406 98.800,27.169 98.800 C 26.609 98.800,24.400 101.009,24.400 101.569 C 24.400 101.806,24.130 102.000,23.800 102.000 C 23.427 102.000,23.200 102.378,23.200 103.000 C 23.200 103.622,22.973 104.000,22.600 104.000 C 22.248 104.000,21.995 104.372,21.987 104.900 C 21.973 105.932,21.128 107.200,20.456 107.200 C 20.191 107.200,20.000 107.869,20.000 108.800 C 20.000 109.956,19.833 110.400,19.400 110.400 C 19.070 110.400,18.800 110.670,18.800 111.000 C 18.800 111.330,18.620 111.600,18.400 111.600 C 18.180 111.600,18.000 112.031,18.000 112.557 C 18.000 113.084,17.730 113.618,17.400 113.745 C 17.022 113.890,16.800 114.502,16.800 115.400 C 16.800 116.298,16.578 116.910,16.200 117.055 C 15.813 117.204,15.600 117.823,15.600 118.800 C 15.600 119.778,15.387 120.396,14.999 120.545 C 14.174 120.861,14.275 332.025,15.100 332.300 C 15.387 332.396,15.600 333.136,15.600 334.033 C 15.600 335.159,15.769 335.600,16.200 335.600 C 16.600 335.600,16.800 336.000,16.800 336.800 C 16.800 337.460,16.978 338.000,17.195 338.000 C 17.413 338.000,17.706 338.720,17.846 339.600 C 17.987 340.480,18.259 341.200,18.451 341.200 C 18.643 341.200,18.800 341.920,18.800 342.800 C 18.800 343.956,18.967 344.400,19.400 344.400 C 19.730 344.400,20.000 344.670,20.000 345.000 C 20.000 345.330,20.270 345.600,20.600 345.600 C 20.973 345.600,21.200 345.978,21.200 346.600 C 21.200 347.150,21.380 347.600,21.600 347.600 C 21.820 347.600,22.000 347.870,22.000 348.200 C 22.000 348.530,22.270 348.800,22.600 348.800 C 22.930 348.800,23.200 349.070,23.200 349.400 C 23.200 349.730,23.393 350.000,23.629 350.000 C 24.266 350.000,25.200 351.053,25.200 351.771 C 25.200 352.469,26.574 354.000,27.200 354.000 C 27.420 354.000,27.600 354.194,27.600 354.431 C 27.600 354.991,29.809 357.200,30.369 357.200 C 30.606 357.200,30.800 357.470,30.800 357.800 C 30.800 358.130,31.070 358.400,31.400 358.400 C 31.730 358.400,32.000 358.670,32.000 359.000 C 32.000 359.373,32.378 359.600,33.000 359.600 C 33.550 359.600,34.000 359.780,34.000 360.000 C 34.000 360.220,34.270 360.400,34.600 360.400 C 34.930 360.400,35.200 360.670,35.200 361.000 C 35.200 361.330,35.470 361.600,35.800 361.600 C 36.130 361.600,36.355 361.825,36.300 362.100 C 36.244 362.381,36.681 362.655,37.300 362.727 C 37.905 362.796,38.400 363.034,38.400 363.255 C 38.400 363.767,39.422 364.800,39.929 364.800 C 40.141 364.800,40.418 365.070,40.545 365.400 C 40.677 365.746,41.275 366.000,41.955 366.000 C 43.102 366.000,45.664 367.095,45.933 367.700 C 46.007 367.865,46.772 368.000,47.633 368.000 C 48.759 368.000,49.200 368.169,49.200 368.600 C 49.200 369.054,49.690 369.200,51.213 369.200 C 52.632 369.200,53.293 369.377,53.455 369.800 C 53.806 370.714,266.305 370.714,266.655 369.800 C 266.805 369.409,267.428 369.200,268.443 369.200 C 269.560 369.200,270.000 369.031,270.000 368.600 C 270.000 368.139,270.511 368.000,272.200 368.000 C 273.410 368.000,274.400 367.820,274.400 367.600 C 274.400 367.380,274.766 367.200,275.213 367.200 C 275.659 367.200,276.129 366.930,276.255 366.600 C 276.382 366.270,276.897 366.000,277.400 366.000 C 277.903 366.000,278.418 365.730,278.545 365.400 C 278.671 365.070,279.141 364.800,279.587 364.800 C 280.034 364.800,281.120 364.080,282.000 363.200 C 282.880 362.320,283.960 361.600,284.400 361.600 C 284.844 361.600,285.200 361.333,285.200 361.000 C 285.200 360.670,285.470 360.400,285.800 360.400 C 286.130 360.400,286.400 360.220,286.400 360.000 C 286.400 359.780,286.850 359.600,287.400 359.600 C 288.022 359.600,288.400 359.373,288.400 359.000 C 288.400 358.670,288.670 358.400,289.000 358.400 C 289.330 358.400,289.600 358.207,289.600 357.971 C 289.600 357.418,290.618 356.400,291.171 356.400 C 291.407 356.400,291.600 356.130,291.600 355.800 C 291.600 355.470,291.870 355.200,292.200 355.200 C 292.530 355.200,292.800 354.930,292.800 354.600 C 292.800 354.270,293.081 354.000,293.424 354.000 C 293.767 354.000,293.948 353.839,293.826 353.642 C 293.704 353.445,293.874 353.181,294.202 353.054 C 294.531 352.928,294.800 352.369,294.800 351.813 C 294.800 351.179,295.025 350.800,295.400 350.800 C 295.738 350.800,296.000 350.442,296.000 349.981 C 296.000 349.530,296.450 348.745,297.000 348.235 C 297.550 347.725,298.000 346.924,298.000 346.454 C 298.000 345.962,298.254 345.600,298.600 345.600 C 298.930 345.600,299.200 345.330,299.200 345.000 C 299.200 344.670,299.470 344.400,299.800 344.400 C 300.173 344.400,300.400 344.022,300.400 343.400 C 300.400 342.850,300.580 342.400,300.800 342.400 C 301.020 342.400,301.200 341.860,301.200 341.200 C 301.200 340.400,301.400 340.000,301.800 340.000 C 302.130 340.000,302.400 339.749,302.400 339.443 C 302.400 339.136,302.670 338.782,303.000 338.655 C 303.377 338.511,303.600 337.899,303.600 337.013 C 303.600 336.236,303.780 335.600,304.000 335.600 C 304.220 335.600,304.400 335.150,304.400 334.600 C 304.400 333.978,304.627 333.600,305.000 333.600 C 305.532 333.600,305.600 321.783,305.600 229.643 C 305.600 137.605,305.669 125.659,306.200 125.455 C 306.530 125.329,306.800 124.859,306.800 124.413 C 306.800 123.957,306.536 123.600,306.200 123.600 C 305.767 123.600,305.600 123.156,305.600 122.000 C 305.600 120.844,305.433 120.400,305.000 120.400 C 304.567 120.400,304.400 119.956,304.400 118.800 C 304.400 117.920,304.220 117.200,304.000 117.200 C 303.780 117.200,303.600 116.744,303.600 116.187 C 303.600 115.631,303.330 115.071,303.000 114.945 C 302.670 114.818,302.400 114.368,302.400 113.945 C 302.400 113.521,302.130 113.071,301.800 112.945 C 301.458 112.813,301.200 112.217,301.200 111.557 C 301.200 110.921,301.020 110.400,300.800 110.400 C 300.580 110.400,300.400 110.034,300.400 109.587 C 300.400 109.141,300.130 108.671,299.800 108.545 C 299.409 108.395,299.200 107.772,299.200 106.757 C 299.200 105.640,299.031 105.200,298.600 105.200 C 298.270 105.200,298.000 104.930,298.000 104.600 C 298.000 104.270,297.820 104.000,297.600 104.000 C 297.380 104.000,297.200 103.634,297.200 103.187 C 297.200 102.741,296.930 102.271,296.600 102.145 C 296.270 102.018,296.000 101.664,296.000 101.357 C 296.000 101.051,295.730 100.800,295.400 100.800 C 295.070 100.800,294.800 100.607,294.800 100.371 C 294.800 99.838,293.790 98.800,293.271 98.800 C 293.059 98.800,292.782 98.530,292.655 98.200 C 292.529 97.870,291.969 97.600,291.413 97.600 C 290.856 97.600,290.400 97.407,290.400 97.171 C 290.400 96.618,289.382 95.600,288.829 95.600 C 288.593 95.600,288.400 95.330,288.400 95.000 C 288.400 94.670,288.130 94.400,287.800 94.400 C 287.470 94.400,287.200 94.206,287.200 93.969 C 287.200 93.409,284.991 91.200,284.431 91.200 C 284.194 91.200,284.000 90.930,284.000 90.600 C 284.000 90.270,283.749 90.000,283.443 90.000 C 283.136 90.000,282.782 89.730,282.655 89.400 C 282.529 89.070,282.059 88.800,281.613 88.800 C 281.166 88.800,280.800 88.620,280.800 88.400 C 280.800 88.180,280.080 88.000,279.200 88.000 C 278.044 88.000,277.600 87.833,277.600 87.400 C 277.600 87.070,277.349 86.800,277.043 86.800 C 276.736 86.800,276.382 86.530,276.255 86.200 C 276.129 85.870,275.659 85.600,275.213 85.600 C 274.766 85.600,274.400 85.420,274.400 85.200 C 274.400 84.980,273.410 84.800,272.200 84.800 C 270.511 84.800,270.000 84.661,270.000 84.200 C 270.000 83.834,269.627 83.600,269.043 83.600 C 268.516 83.600,267.982 83.330,267.855 83.000 C 267.680 82.542,266.930 82.400,264.693 82.400 C 262.880 82.400,261.569 82.209,261.260 81.900 C 260.432 81.072,59.888 80.969,59.061 81.796 M264.400 85.099 C 278.448 88.498,291.865 98.609,297.711 110.202 C 298.265 111.301,299.187 113.086,299.759 114.168 C 300.332 115.250,300.800 116.564,300.800 117.088 C 300.800 117.611,301.049 118.526,301.354 119.120 C 303.294 122.901,303.227 118.774,303.110 227.200 L 303.000 328.200 301.848 332.400 C 298.357 345.119,288.555 357.112,277.315 362.416 C 275.822 363.121,273.790 364.105,272.800 364.603 C 271.810 365.101,268.720 366.249,265.933 367.154 L 260.866 368.800 160.133 368.777 C 63.503 368.755,59.294 368.724,56.800 368.017 C 53.377 367.046,48.093 365.066,46.158 364.029 C 45.308 363.573,44.308 363.200,43.937 363.200 C 43.565 363.200,42.753 362.781,42.131 362.269 C 41.509 361.757,40.177 360.946,39.170 360.467 C 32.167 357.134,22.462 344.787,18.984 334.786 C 16.154 326.651,16.414 337.637,16.407 226.067 L 16.400 125.933 18.445 119.867 C 21.755 110.045,25.279 104.319,31.975 97.883 C 35.591 94.407,41.853 90.000,43.177 90.000 C 43.496 90.000,44.408 89.549,45.203 88.998 C 45.999 88.446,47.679 87.727,48.937 87.400 C 50.195 87.072,51.931 86.443,52.795 86.002 C 53.688 85.547,55.798 85.049,57.683 84.849 C 62.707 84.316,262.161 84.558,264.400 85.099 M354.100 99.344 C 353.605 99.589,353.200 100.017,353.200 100.295 C 353.200 100.573,352.840 100.800,352.400 100.800 C 351.370 100.800,350.000 102.170,350.000 103.200 C 350.000 103.822,349.733 104.000,348.800 104.000 C 348.000 104.000,347.600 104.200,347.600 104.600 C 347.600 104.973,347.222 105.200,346.600 105.200 C 346.050 105.200,345.600 105.380,345.600 105.600 C 345.600 105.820,345.299 106.000,344.931 106.000 C 344.564 106.000,343.487 106.810,342.538 107.800 C 341.590 108.790,340.708 109.600,340.578 109.600 C 340.180 109.600,339.200 110.718,339.200 111.171 C 339.200 111.407,338.930 111.600,338.600 111.600 C 338.270 111.600,338.000 111.870,338.000 112.200 C 338.000 112.573,337.622 112.800,337.000 112.800 C 336.450 112.800,336.000 112.980,336.000 113.200 C 336.000 113.420,335.730 113.600,335.400 113.600 C 335.070 113.600,334.800 113.870,334.800 114.200 C 334.800 114.530,334.530 114.800,334.200 114.800 C 333.870 114.800,333.600 114.993,333.600 115.229 C 333.600 115.464,333.343 115.914,333.029 116.229 C 332.714 116.543,332.264 116.800,332.029 116.800 C 331.793 116.800,331.600 117.070,331.600 117.400 C 331.600 117.773,331.222 118.000,330.600 118.000 C 329.978 118.000,329.600 118.227,329.600 118.600 C 329.600 118.930,329.330 119.200,329.000 119.200 C 328.670 119.200,328.400 119.470,328.400 119.800 C 328.400 120.130,328.196 120.400,327.946 120.400 C 327.696 120.400,327.075 120.850,326.565 121.400 C 326.055 121.950,325.270 122.400,324.819 122.400 C 324.358 122.400,324.000 122.662,324.000 123.000 C 324.000 123.330,323.719 123.600,323.376 123.600 C 323.033 123.600,322.864 123.780,323.000 124.000 C 323.136 124.220,322.967 124.400,322.624 124.400 C 322.281 124.400,322.000 124.670,322.000 125.000 C 322.000 125.330,321.730 125.600,321.400 125.600 C 321.070 125.600,320.800 125.870,320.800 126.200 C 320.800 126.530,320.530 126.800,320.200 126.800 C 319.870 126.800,319.600 126.980,319.600 127.200 C 319.600 127.420,319.234 127.600,318.787 127.600 C 318.341 127.600,317.871 127.870,317.745 128.200 C 317.618 128.530,317.084 128.800,316.557 128.800 C 315.973 128.800,315.600 129.034,315.600 129.400 C 315.600 129.730,315.330 130.000,315.000 130.000 C 314.670 130.000,314.400 130.270,314.400 130.600 C 314.400 130.930,314.130 131.200,313.800 131.200 C 313.427 131.200,313.200 131.578,313.200 132.200 C 313.200 132.820,312.973 133.200,312.604 133.200 C 312.077 133.200,312.006 143.579,312.002 222.100 C 311.999 280.771,311.861 311.045,311.598 311.133 C 311.069 311.311,311.070 318.400,311.600 318.400 C 311.820 318.400,312.000 319.036,312.000 319.813 C 312.000 320.699,312.223 321.311,312.600 321.455 C 312.930 321.582,313.200 321.936,313.200 322.243 C 313.200 322.549,313.470 322.800,313.800 322.800 C 314.130 322.800,314.400 323.070,314.400 323.400 C 314.400 323.738,314.758 324.000,315.219 324.000 C 315.670 324.000,316.455 324.450,316.965 325.000 C 317.475 325.550,318.276 326.000,318.746 326.000 C 319.238 326.000,319.600 326.254,319.600 326.600 C 319.600 326.930,319.870 327.200,320.200 327.200 C 320.530 327.200,320.800 327.470,320.800 327.800 C 320.800 328.130,320.993 328.400,321.229 328.400 C 321.782 328.400,322.800 329.418,322.800 329.971 C 322.800 330.207,323.004 330.400,323.254 330.400 C 323.504 330.400,324.125 330.850,324.635 331.400 C 325.145 331.950,325.750 332.400,325.981 332.400 C 326.211 332.400,326.400 332.670,326.400 333.000 C 326.400 333.373,326.778 333.600,327.400 333.600 C 328.022 333.600,328.400 333.827,328.400 334.200 C 328.400 334.530,328.670 334.800,329.000 334.800 C 329.330 334.800,329.600 334.980,329.600 335.200 C 329.600 335.420,330.050 335.600,330.600 335.600 C 331.222 335.600,331.600 335.827,331.600 336.200 C 331.600 336.530,331.870 336.800,332.200 336.800 C 332.530 336.800,332.800 336.994,332.800 337.231 C 332.800 337.985,335.106 340.000,335.969 340.000 C 336.441 340.000,336.800 340.259,336.800 340.600 C 336.800 340.930,337.070 341.200,337.400 341.200 C 337.730 341.200,338.000 341.470,338.000 341.800 C 338.000 342.130,338.186 342.400,338.412 342.400 C 338.639 342.400,339.697 343.300,340.762 344.400 C 341.828 345.500,342.903 346.400,343.150 346.400 C 343.398 346.400,343.600 346.670,343.600 347.000 C 343.600 347.373,343.978 347.600,344.600 347.600 C 345.222 347.600,345.600 347.827,345.600 348.200 C 345.600 348.530,345.870 348.800,346.200 348.800 C 346.530 348.800,346.800 349.081,346.800 349.424 C 346.800 349.767,346.980 349.936,347.200 349.800 C 347.420 349.664,347.600 349.833,347.600 350.176 C 347.600 350.603,347.980 350.800,348.800 350.800 C 349.460 350.800,350.000 350.966,350.000 351.169 C 350.000 351.650,352.350 354.000,352.831 354.000 C 353.034 354.000,353.200 354.270,353.200 354.600 C 353.200 355.061,353.686 355.193,355.300 355.168 C 356.455 355.151,357.168 355.044,356.883 354.930 C 356.521 354.784,356.669 354.442,357.383 353.780 L 358.400 352.838 358.400 227.091 L 358.400 101.344 357.264 100.072 C 356.069 98.733,355.567 98.617,354.100 99.344 M356.113 102.166 C 356.995 102.835,357.236 351.193,356.355 352.254 C 355.572 353.197,354.076 352.908,353.447 351.691 C 353.132 351.081,351.192 349.194,349.137 347.498 C 343.779 343.077,333.665 334.824,328.183 330.400 C 325.593 328.310,322.300 325.552,320.865 324.272 C 319.431 322.991,317.604 321.610,316.807 321.204 C 316.010 320.797,315.135 319.976,314.863 319.378 C 314.098 317.700,314.242 135.603,315.009 134.508 C 315.307 134.083,316.597 132.943,317.875 131.973 C 320.630 129.886,323.695 127.417,325.384 125.927 C 326.053 125.337,327.179 124.437,327.887 123.927 C 328.595 123.417,330.575 121.861,332.287 120.468 C 333.999 119.076,336.354 117.186,337.519 116.268 C 338.685 115.351,340.512 113.880,341.580 113.000 C 342.647 112.120,344.746 110.410,346.243 109.200 C 349.006 106.966,350.357 105.684,352.710 103.061 C 354.100 101.512,354.954 101.287,356.113 102.166 M91.258 128.530 C 90.607 129.315,90.587 325.061,91.238 325.846 C 92.376 327.217,201.627 326.466,203.883 325.072 C 204.140 324.914,206.116 324.418,208.275 323.970 C 210.490 323.511,212.810 322.759,213.600 322.244 C 214.370 321.741,215.696 321.219,216.547 321.083 C 220.706 320.417,233.306 310.808,237.375 305.200 C 241.168 299.972,245.600 292.059,245.600 290.516 C 245.600 290.217,246.043 289.100,246.584 288.032 C 249.794 281.696,249.981 259.835,246.876 253.749 C 246.440 252.895,245.867 251.393,245.603 250.412 C 245.108 248.573,242.631 243.612,240.572 240.335 C 238.818 237.545,231.934 230.549,228.038 227.600 C 223.880 224.452,223.729 224.008,226.262 222.402 C 231.745 218.924,241.109 205.765,242.564 199.492 C 242.894 198.070,243.515 196.298,243.944 195.554 C 246.147 191.731,245.986 174.032,243.695 168.200 C 243.263 167.100,242.782 165.500,242.626 164.644 C 242.470 163.789,241.726 161.878,240.971 160.398 C 240.217 158.918,239.600 157.596,239.600 157.460 C 239.600 156.645,235.497 150.652,232.077 146.474 C 228.968 142.675,220.574 136.056,217.474 134.958 C 216.634 134.660,215.428 134.047,214.794 133.595 C 214.159 133.144,212.416 132.434,210.920 132.019 C 209.424 131.604,207.216 130.980,206.014 130.632 C 198.059 128.334,195.428 128.231,141.553 128.106 C 100.135 128.010,91.630 128.082,91.258 128.530 M193.600 131.400 C 193.600 131.900,194.400 132.000,198.400 132.000 C 202.400 132.000,203.200 132.100,203.200 132.600 C 203.200 132.978,203.581 133.200,204.229 133.200 C 204.794 133.200,205.527 133.470,205.857 133.800 C 206.243 134.186,207.232 134.400,208.629 134.400 C 209.823 134.400,210.800 134.580,210.800 134.800 C 210.800 135.020,211.231 135.200,211.757 135.200 C 212.284 135.200,212.818 135.470,212.945 135.800 C 213.097 136.198,213.726 136.400,214.811 136.400 C 215.711 136.400,216.356 136.548,216.244 136.729 C 216.017 137.096,217.390 138.400,218.005 138.400 C 218.222 138.400,218.400 138.670,218.400 139.000 C 218.400 139.338,218.758 139.600,219.219 139.600 C 219.670 139.600,220.455 140.050,220.965 140.600 C 221.475 141.150,222.276 141.600,222.746 141.600 C 223.238 141.600,223.600 141.854,223.600 142.200 C 223.600 142.530,223.870 142.800,224.200 142.800 C 224.530 142.800,224.800 143.070,224.800 143.400 C 224.800 143.730,225.070 144.000,225.400 144.000 C 225.730 144.000,226.000 144.180,226.000 144.400 C 226.000 144.620,226.270 144.800,226.600 144.800 C 226.930 144.800,227.200 145.001,227.200 145.246 C 227.200 145.492,228.100 146.551,229.200 147.600 C 230.300 148.649,231.200 149.804,231.200 150.166 C 231.200 150.529,231.470 150.929,231.800 151.055 C 232.130 151.182,232.400 151.722,232.400 152.255 C 232.400 152.789,232.670 153.329,233.000 153.455 C 233.330 153.582,233.600 153.859,233.600 154.071 C 233.600 154.590,234.638 155.600,235.171 155.600 C 235.407 155.600,235.600 156.140,235.600 156.800 C 235.600 157.532,235.808 158.000,236.132 158.000 C 236.737 158.000,237.537 159.359,237.725 160.705 C 237.794 161.203,238.064 161.824,238.325 162.085 C 238.586 162.346,238.800 162.890,238.800 163.293 C 238.800 163.695,239.070 164.129,239.400 164.255 C 239.791 164.405,240.000 165.028,240.000 166.043 C 240.000 166.899,240.180 167.600,240.400 167.600 C 240.620 167.600,240.800 168.577,240.800 169.771 C 240.800 171.168,241.014 172.157,241.400 172.543 C 241.730 172.873,242.000 173.786,242.000 174.571 C 242.000 175.575,242.179 176.000,242.600 176.000 C 243.111 176.000,243.200 177.067,243.200 183.200 C 243.200 189.333,243.111 190.400,242.600 190.400 C 242.169 190.400,242.000 190.840,242.000 191.957 C 242.000 192.972,241.791 193.595,241.400 193.745 C 241.070 193.871,240.800 194.341,240.800 194.787 C 240.800 195.234,240.620 195.600,240.400 195.600 C 240.180 195.600,240.000 196.590,240.000 197.800 C 240.000 199.489,239.861 200.000,239.400 200.000 C 239.034 200.000,238.800 200.373,238.800 200.957 C 238.800 201.484,238.530 202.018,238.200 202.145 C 237.870 202.271,237.600 202.831,237.600 203.387 C 237.600 203.944,237.420 204.400,237.200 204.400 C 236.980 204.400,236.800 204.831,236.800 205.357 C 236.800 205.884,236.530 206.418,236.200 206.545 C 235.870 206.671,235.600 207.115,235.600 207.531 C 235.600 207.948,235.150 208.626,234.600 209.039 C 234.050 209.452,233.600 210.017,233.600 210.295 C 233.600 210.573,233.330 210.800,233.000 210.800 C 232.670 210.800,232.400 211.040,232.400 211.332 C 232.400 211.625,231.950 212.106,231.400 212.400 C 230.850 212.694,230.400 213.248,230.400 213.631 C 230.400 214.014,229.590 215.160,228.600 216.179 C 227.610 217.197,226.800 218.294,226.800 218.615 C 226.800 218.937,226.620 219.200,226.400 219.200 C 226.180 219.200,226.000 219.470,226.000 219.800 C 226.000 220.158,225.632 220.400,225.089 220.400 C 223.556 220.400,222.800 221.723,222.800 224.405 C 222.800 226.267,222.933 226.800,223.400 226.800 C 223.730 226.800,223.955 226.951,223.900 227.135 C 223.845 227.319,224.745 228.398,225.900 229.533 C 227.055 230.668,228.000 231.777,228.000 231.998 C 228.000 232.219,228.270 232.400,228.600 232.400 C 228.930 232.400,229.200 232.580,229.200 232.800 C 229.200 233.020,229.470 233.200,229.800 233.200 C 230.130 233.200,230.400 233.470,230.400 233.800 C 230.400 234.173,230.778 234.400,231.400 234.400 C 232.022 234.400,232.400 234.627,232.400 235.000 C 232.400 235.330,232.670 235.600,233.000 235.600 C 233.330 235.600,233.600 235.793,233.600 236.029 C 233.600 236.582,234.618 237.600,235.171 237.600 C 235.407 237.600,235.600 237.870,235.600 238.200 C 235.600 238.530,235.870 238.800,236.200 238.800 C 236.530 238.800,236.800 239.070,236.800 239.400 C 236.800 239.730,236.980 240.000,237.200 240.000 C 237.420 240.000,237.600 240.366,237.600 240.813 C 237.600 241.259,237.870 241.729,238.200 241.855 C 238.530 241.982,238.800 242.516,238.800 243.043 C 238.800 243.627,239.034 244.000,239.400 244.000 C 239.769 244.000,240.000 244.375,240.000 244.976 C 240.000 245.513,240.180 246.064,240.400 246.200 C 240.620 246.336,240.800 246.802,240.800 247.236 C 240.800 247.670,241.070 248.129,241.400 248.255 C 241.730 248.382,242.000 248.736,242.000 249.043 C 242.000 249.349,242.270 249.600,242.600 249.600 C 243.033 249.600,243.200 250.044,243.200 251.200 C 243.200 252.356,243.367 252.800,243.800 252.800 C 244.233 252.800,244.400 253.244,244.400 254.400 C 244.400 255.280,244.580 256.000,244.800 256.000 C 245.044 256.000,245.200 257.804,245.200 260.613 C 245.200 264.344,245.315 265.269,245.800 265.455 C 246.300 265.647,246.400 266.783,246.400 272.243 C 246.400 277.805,246.309 278.800,245.800 278.800 C 245.317 278.800,245.200 279.420,245.200 281.976 C 245.200 283.723,245.020 285.264,244.800 285.400 C 244.580 285.536,244.400 285.977,244.400 286.381 C 244.400 286.784,244.130 287.218,243.800 287.345 C 243.422 287.490,243.200 288.102,243.200 289.000 C 243.200 289.898,242.978 290.510,242.600 290.655 C 242.270 290.782,242.000 291.316,242.000 291.843 C 242.000 292.369,241.795 292.800,241.544 292.800 C 240.872 292.800,240.027 294.068,240.013 295.100 C 240.005 295.628,239.752 296.000,239.400 296.000 C 239.034 296.000,238.800 296.373,238.800 296.957 C 238.800 297.484,238.530 298.018,238.200 298.145 C 237.870 298.271,237.600 298.831,237.600 299.387 C 237.600 299.944,237.420 300.400,237.200 300.400 C 236.980 300.400,236.800 300.850,236.800 301.400 C 236.800 302.022,236.573 302.400,236.200 302.400 C 235.870 302.400,235.600 302.651,235.600 302.957 C 235.600 303.264,235.330 303.618,235.000 303.745 C 234.670 303.871,234.400 304.341,234.400 304.787 C 234.400 305.338,234.138 305.600,233.587 305.600 C 233.141 305.600,232.671 305.870,232.545 306.200 C 232.418 306.530,232.064 306.800,231.757 306.800 C 231.451 306.800,231.200 306.960,231.200 307.157 C 231.200 307.353,230.750 307.626,230.200 307.764 C 229.469 307.948,229.200 308.283,229.200 309.008 C 229.200 309.623,228.972 310.000,228.600 310.000 C 228.270 310.000,228.000 310.270,228.000 310.600 C 228.000 310.930,227.730 311.200,227.400 311.200 C 227.070 311.200,226.800 311.380,226.800 311.600 C 226.800 311.820,226.477 312.000,226.081 312.000 C 225.686 312.000,224.921 312.532,224.381 313.183 C 223.842 313.834,222.995 314.374,222.500 314.383 C 222.005 314.392,221.600 314.580,221.600 314.800 C 221.600 315.020,221.150 315.200,220.600 315.200 C 219.978 315.200,219.600 315.427,219.600 315.800 C 219.600 316.130,219.330 316.400,219.000 316.400 C 218.670 316.400,218.400 316.670,218.400 317.000 C 218.400 317.330,218.130 317.600,217.800 317.600 C 217.470 317.600,217.200 317.780,217.200 318.000 C 217.200 318.220,216.834 318.400,216.387 318.400 C 215.941 318.400,215.471 318.670,215.345 319.000 C 215.183 319.421,214.527 319.600,213.145 319.600 C 211.763 319.600,211.106 319.779,210.945 320.200 C 210.795 320.591,210.172 320.800,209.157 320.800 C 208.180 320.800,207.599 320.986,207.597 321.300 C 207.595 321.653,206.690 321.811,204.518 321.838 C 202.580 321.863,201.384 322.048,201.287 322.338 C 201.189 322.632,200.050 322.800,198.154 322.800 C 195.875 322.800,195.121 322.941,194.945 323.400 C 194.742 323.929,188.822 324.000,145.000 324.000 C 101.178 324.000,95.258 323.929,95.055 323.400 C 94.929 323.070,94.459 322.800,94.013 322.800 L 93.200 322.800 93.200 228.000 L 93.200 133.200 94.013 133.200 C 94.459 133.200,94.929 132.930,95.055 132.600 C 95.182 132.270,95.722 132.000,96.255 132.000 C 96.789 132.000,97.329 131.730,97.455 131.400 C 97.805 130.488,193.600 130.488,193.600 131.400 M122.800 155.173 C 122.800 155.378,122.440 155.660,122.000 155.800 C 121.489 155.962,121.200 156.405,121.200 157.027 C 121.200 157.562,121.020 158.000,120.800 158.000 C 120.574 158.000,120.400 159.133,120.400 160.600 C 120.400 162.067,120.574 163.200,120.800 163.200 C 121.062 163.200,121.200 170.533,121.200 184.400 C 121.200 198.267,121.062 205.600,120.800 205.600 C 120.580 205.600,120.400 206.230,120.400 207.000 C 120.400 207.770,120.580 208.400,120.800 208.400 C 121.020 208.400,121.200 208.940,121.200 209.600 C 121.200 210.260,121.389 210.800,121.619 210.800 C 121.850 210.800,122.455 211.250,122.965 211.800 C 123.756 212.654,124.245 212.800,126.303 212.800 C 128.077 212.800,128.775 212.958,128.945 213.400 C 129.071 213.730,129.541 214.000,129.987 214.000 C 130.443 214.000,130.800 213.736,130.800 213.400 C 130.800 213.000,131.200 212.800,132.000 212.800 C 132.660 212.800,133.200 212.620,133.200 212.400 C 133.200 212.137,143.804 212.000,164.213 212.000 C 191.410 212.000,195.253 211.926,195.455 211.400 C 195.598 211.028,196.207 210.800,197.055 210.800 C 197.904 210.800,198.513 210.572,198.655 210.200 C 198.782 209.870,199.136 209.600,199.443 209.600 C 199.749 209.600,200.000 209.330,200.000 209.000 C 200.000 208.578,200.426 208.400,201.431 208.400 C 202.853 208.400,205.200 206.676,205.200 205.631 C 205.200 205.394,205.710 205.200,206.332 205.200 C 207.131 205.200,207.623 204.905,208.000 204.200 C 208.294 203.650,208.775 203.200,209.068 203.200 C 209.360 203.200,209.600 202.930,209.600 202.600 C 209.600 202.270,209.870 202.000,210.200 202.000 C 210.530 202.000,210.800 201.730,210.800 201.400 C 210.800 201.070,210.977 200.800,211.192 200.800 C 211.408 200.800,211.698 200.350,211.836 199.800 C 211.974 199.250,212.247 198.800,212.443 198.800 C 212.640 198.800,212.800 198.350,212.800 197.800 C 212.800 197.178,213.027 196.800,213.400 196.800 C 213.800 196.800,214.000 196.400,214.000 195.600 C 214.000 194.800,214.200 194.400,214.600 194.400 C 215.072 194.400,215.200 193.844,215.200 191.800 C 215.200 190.333,215.374 189.200,215.600 189.200 C 215.851 189.200,216.000 186.600,216.000 182.200 C 216.000 177.800,215.851 175.200,215.600 175.200 C 215.380 175.200,215.200 174.750,215.200 174.200 C 215.200 173.578,214.973 173.200,214.600 173.200 C 214.200 173.200,214.000 172.800,214.000 172.000 C 214.000 171.200,213.800 170.800,213.400 170.800 C 213.027 170.800,212.800 170.422,212.800 169.800 C 212.800 169.250,212.640 168.800,212.443 168.800 C 212.247 168.800,211.974 168.350,211.836 167.800 C 211.698 167.250,211.408 166.800,211.192 166.800 C 210.977 166.800,210.800 166.530,210.800 166.200 C 210.800 165.870,210.530 165.600,210.200 165.600 C 209.800 165.600,209.600 165.200,209.600 164.400 C 209.600 163.740,209.439 163.200,209.242 163.200 C 209.045 163.200,208.460 162.753,207.942 162.207 C 207.424 161.661,206.595 161.211,206.100 161.207 C 205.570 161.203,205.200 160.954,205.200 160.600 C 205.200 160.227,204.822 160.000,204.200 160.000 C 203.650 160.000,203.200 159.820,203.200 159.600 C 203.200 159.380,202.930 159.200,202.600 159.200 C 202.270 159.200,202.000 159.022,202.000 158.805 C 202.000 157.888,200.567 156.800,199.360 156.800 C 198.666 156.800,197.874 156.530,197.600 156.200 C 197.326 155.870,196.595 155.600,195.975 155.600 C 195.355 155.600,194.736 155.420,194.600 155.200 C 194.274 154.672,122.800 154.645,122.800 155.173 M193.079 158.158 C 194.796 158.685,196.667 159.222,197.239 159.350 C 201.484 160.307,208.853 167.226,211.557 172.795 L 213.400 176.590 213.400 183.595 L 213.400 190.600 211.449 194.400 C 208.490 200.165,203.939 204.757,199.306 206.652 C 198.478 206.990,196.810 207.747,195.600 208.334 L 193.400 209.400 159.363 209.515 C 127.176 209.623,125.277 209.591,124.444 208.915 L 123.563 208.200 123.590 183.617 C 123.613 162.455,123.700 158.906,124.218 158.117 L 124.818 157.200 157.389 157.200 L 189.959 157.200 193.079 158.158 M128.000 236.200 C 128.000 236.661,127.489 236.800,125.800 236.800 C 124.590 236.800,123.600 236.980,123.600 237.200 C 123.600 237.420,123.276 237.600,122.880 237.600 C 121.725 237.600,121.200 238.437,121.200 240.280 C 121.200 241.226,121.020 242.000,120.800 242.000 C 120.561 242.000,120.400 243.533,120.400 245.800 C 120.400 248.067,120.561 249.600,120.800 249.600 C 121.062 249.600,121.200 257.538,121.200 272.613 C 121.200 292.699,121.276 295.654,121.800 295.855 C 122.130 295.982,122.400 296.516,122.400 297.043 C 122.400 297.936,122.546 298.000,124.600 298.000 C 126.289 298.000,126.800 298.139,126.800 298.600 C 126.800 299.072,127.356 299.200,129.400 299.200 C 131.444 299.200,132.000 299.072,132.000 298.600 C 132.000 298.072,135.668 298.000,162.613 298.000 C 189.455 298.000,193.253 297.926,193.455 297.400 C 193.627 296.953,194.339 296.800,196.243 296.800 C 197.681 296.800,198.800 296.625,198.800 296.400 C 198.800 296.180,199.436 296.000,200.213 296.000 C 201.099 296.000,201.711 295.777,201.855 295.400 C 201.982 295.070,202.522 294.800,203.055 294.800 C 203.589 294.800,204.129 294.530,204.255 294.200 C 204.382 293.870,204.849 293.600,205.293 293.600 C 205.736 293.600,206.972 292.700,208.038 291.600 C 209.103 290.500,210.215 289.600,210.508 289.600 C 211.200 289.600,212.000 288.790,212.000 288.089 C 212.000 287.786,212.720 286.866,213.600 286.045 C 214.480 285.225,215.200 284.236,215.200 283.848 C 215.200 283.066,216.106 282.000,216.771 282.000 C 217.007 282.000,217.200 281.299,217.200 280.443 C 217.200 279.428,217.409 278.805,217.800 278.655 C 218.171 278.513,218.400 277.905,218.400 277.062 C 218.400 276.312,218.670 275.474,219.000 275.200 C 219.364 274.898,219.600 274.022,219.600 272.975 C 219.600 272.025,219.780 271.136,220.000 271.000 C 220.220 270.864,220.400 269.964,220.400 269.000 C 220.400 268.036,220.220 267.136,220.000 267.000 C 219.779 266.864,219.600 265.072,219.600 263.005 C 219.600 260.207,219.448 259.105,219.000 258.657 C 218.670 258.327,218.400 257.409,218.400 256.616 C 218.400 255.704,218.180 255.090,217.800 254.945 C 217.455 254.812,217.200 254.215,217.200 253.538 C 217.200 252.797,216.830 252.019,216.200 251.435 C 215.650 250.925,215.200 250.164,215.200 249.743 C 215.200 248.968,213.921 247.600,213.195 247.600 C 212.978 247.600,212.800 247.330,212.800 247.000 C 212.800 246.670,212.620 246.400,212.400 246.400 C 212.180 246.400,212.000 246.130,212.000 245.800 C 212.000 245.470,211.816 245.200,211.591 245.200 C 211.366 245.200,210.223 244.210,209.051 243.000 C 207.769 241.676,206.578 240.800,206.060 240.800 C 205.587 240.800,205.200 240.620,205.200 240.400 C 205.200 240.180,204.480 240.000,203.600 240.000 C 202.444 240.000,202.000 239.833,202.000 239.400 C 202.000 238.969,201.560 238.800,200.443 238.800 C 199.428 238.800,198.805 238.591,198.655 238.200 C 198.529 237.870,198.070 237.600,197.636 237.600 C 197.202 237.600,196.736 237.420,196.600 237.200 C 196.438 236.939,184.996 236.800,163.576 236.800 C 134.708 236.800,130.800 236.728,130.800 236.200 C 130.800 235.781,130.378 235.600,129.400 235.600 C 128.422 235.600,128.000 235.781,128.000 236.200 M190.800 239.317 C 192.670 239.396,194.647 239.701,195.193 239.994 C 195.739 240.288,197.388 240.837,198.856 241.215 C 206.923 243.289,214.767 251.709,216.172 259.800 C 217.535 267.645,216.507 277.543,213.955 281.149 C 208.350 289.073,202.503 292.935,193.867 294.421 C 188.436 295.355,125.671 295.689,124.587 294.789 C 123.889 294.210,123.059 291.343,123.362 290.556 C 123.679 289.728,123.695 244.483,123.378 242.528 C 123.141 241.067,123.238 240.726,124.149 239.814 L 125.192 238.772 156.296 238.973 C 173.403 239.083,188.930 239.238,190.800 239.317 " stroke="none" fill="#9dcae7" fill-rule="evenodd"></path><path id="path2" d="M57.683 84.849 C 55.798 85.049,53.688 85.547,52.795 86.002 C 51.931 86.443,50.195 87.072,48.937 87.400 C 47.679 87.727,45.999 88.446,45.203 88.998 C 44.408 89.549,43.496 90.000,43.177 90.000 C 41.853 90.000,35.591 94.407,31.975 97.883 C 25.279 104.319,21.755 110.045,18.445 119.867 L 16.400 125.933 16.407 226.067 C 16.414 337.637,16.154 326.651,18.984 334.786 C 22.462 344.787,32.167 357.134,39.170 360.467 C 40.177 360.946,41.509 361.757,42.131 362.269 C 42.753 362.781,43.565 363.200,43.937 363.200 C 44.308 363.200,45.308 363.573,46.158 364.029 C 48.093 365.066,53.377 367.046,56.800 368.017 C 59.294 368.724,63.503 368.755,160.133 368.777 L 260.866 368.800 265.933 367.154 C 268.720 366.249,271.810 365.101,272.800 364.603 C 273.790 364.105,275.822 363.121,277.315 362.416 C 288.555 357.112,298.357 345.119,301.848 332.400 L 303.000 328.200 303.110 227.200 C 303.227 118.774,303.294 122.901,301.354 119.120 C 301.049 118.526,300.800 117.611,300.800 117.088 C 300.800 116.564,300.332 115.250,299.759 114.168 C 299.187 113.086,298.265 111.301,297.711 110.202 C 295.568 105.953,288.800 97.798,285.200 95.128 C 278.945 90.488,271.159 86.734,264.400 85.099 C 262.161 84.558,62.707 84.316,57.683 84.849 M266.000 86.520 C 266.990 86.916,268.610 87.495,269.600 87.806 C 271.436 88.384,278.031 91.601,280.200 92.977 C 286.269 96.827,289.640 99.991,292.582 104.600 C 293.003 105.260,293.872 106.340,294.513 107.000 C 295.154 107.660,296.142 109.190,296.709 110.400 C 297.275 111.610,298.107 113.102,298.556 113.716 C 299.015 114.342,299.497 115.833,299.655 117.116 C 299.809 118.372,300.445 120.750,301.068 122.400 L 302.200 125.400 302.200 226.200 L 302.200 327.000 301.352 329.600 C 300.886 331.030,300.273 333.190,299.990 334.400 C 299.264 337.511,295.835 344.479,293.972 346.632 C 293.108 347.631,292.400 348.588,292.400 348.759 C 292.400 349.219,289.498 352.186,288.245 353.007 C 287.648 353.399,286.902 354.215,286.589 354.822 C 285.814 356.320,281.407 359.369,276.929 361.504 C 276.528 361.696,274.927 362.501,273.371 363.295 C 271.816 364.088,269.836 364.860,268.971 365.010 C 266.944 365.362,264.172 366.251,262.400 367.116 C 261.092 367.755,254.391 367.807,160.837 367.902 L 60.674 368.005 57.037 366.760 C 55.037 366.076,52.482 365.274,51.360 364.978 C 50.238 364.683,48.457 363.982,47.401 363.421 C 46.345 362.859,45.183 362.400,44.818 362.400 C 44.454 362.400,43.535 361.937,42.778 361.372 C 42.020 360.807,40.811 360.095,40.092 359.789 C 36.988 358.472,30.168 352.276,27.266 348.137 C 24.411 344.065,20.750 336.951,20.198 334.400 C 20.031 333.630,19.334 331.560,18.647 329.800 L 17.400 326.600 17.400 225.800 L 17.400 125.000 18.485 123.582 C 19.234 122.603,19.779 121.114,20.242 118.782 C 20.858 115.682,23.410 109.612,24.339 109.038 C 24.537 108.915,25.479 107.507,26.432 105.908 C 28.538 102.376,35.117 95.705,38.225 93.951 C 39.421 93.276,40.493 92.572,40.608 92.388 C 40.722 92.203,41.847 91.667,43.108 91.197 C 44.368 90.727,45.760 90.017,46.200 89.620 C 46.640 89.224,47.630 88.782,48.400 88.640 C 49.170 88.498,50.880 87.908,52.200 87.329 C 55.849 85.730,55.848 85.730,164.200 85.766 C 259.513 85.798,264.284 85.834,266.000 86.520 M352.710 103.061 C 350.357 105.684,349.006 106.966,346.243 109.200 C 344.746 110.410,342.647 112.120,341.580 113.000 C 340.512 113.880,338.685 115.351,337.519 116.268 C 336.354 117.186,333.999 119.076,332.287 120.468 C 330.575 121.861,328.595 123.417,327.887 123.927 C 327.179 124.437,326.053 125.337,325.384 125.927 C 323.695 127.417,320.630 129.886,317.875 131.973 C 316.597 132.943,315.307 134.083,315.009 134.508 C 314.242 135.603,314.098 317.700,314.863 319.378 C 315.135 319.976,316.010 320.797,316.807 321.204 C 317.604 321.610,319.431 322.991,320.865 324.272 C 322.300 325.552,325.593 328.310,328.183 330.400 C 333.665 334.824,343.779 343.077,349.137 347.498 C 351.192 349.194,353.132 351.081,353.447 351.691 C 354.076 352.908,355.572 353.197,356.355 352.254 C 357.236 351.193,356.995 102.835,356.113 102.166 C 354.954 101.287,354.100 101.512,352.710 103.061 M355.753 103.423 C 356.073 104.257,356.085 350.114,355.765 350.948 C 355.393 351.917,354.958 351.757,353.510 350.117 C 352.789 349.301,351.840 348.321,351.400 347.939 C 349.372 346.180,346.288 343.676,344.578 342.400 C 342.174 340.606,339.572 338.471,336.800 336.019 C 335.590 334.949,333.316 333.111,331.746 331.936 C 328.010 329.139,324.282 326.036,321.800 323.656 C 320.700 322.601,318.961 321.250,317.936 320.653 C 316.911 320.055,315.956 319.263,315.814 318.892 C 315.114 317.069,315.605 135.458,316.311 134.671 C 316.690 134.248,318.080 133.082,319.400 132.080 C 320.720 131.078,322.956 129.255,324.369 128.029 C 325.781 126.803,327.523 125.440,328.238 125.000 C 328.953 124.560,330.228 123.565,331.069 122.788 C 331.911 122.012,333.410 120.754,334.400 119.992 C 335.390 119.230,337.043 117.885,338.073 117.003 C 339.104 116.122,340.966 114.590,342.212 113.600 C 343.457 112.610,345.134 111.248,345.938 110.573 C 346.742 109.898,348.265 108.735,349.323 107.988 C 350.381 107.242,351.866 105.769,352.622 104.716 C 354.021 102.769,355.300 102.241,355.753 103.423 M90.605 127.337 C 89.670 128.763,89.579 325.750,90.512 326.683 C 90.967 327.139,99.777 327.225,143.829 327.208 C 200.834 327.185,200.751 327.187,205.200 325.784 C 206.850 325.263,209.330 324.640,210.711 324.399 C 212.092 324.158,213.865 323.524,214.651 322.991 C 215.437 322.458,216.737 321.902,217.540 321.757 C 218.995 321.494,222.206 319.680,225.255 317.400 C 226.137 316.740,227.663 315.638,228.646 314.952 C 232.579 312.205,238.982 305.266,241.928 300.561 C 243.524 298.012,246.000 292.956,246.000 292.246 C 246.000 291.953,246.525 290.730,247.166 289.528 C 248.033 287.903,248.500 286.175,248.992 282.772 C 249.356 280.257,249.911 277.312,250.227 276.227 C 251.022 273.491,250.943 268.639,250.028 264.063 C 249.603 261.938,249.044 258.760,248.786 257.000 C 248.505 255.091,247.938 253.155,247.378 252.200 C 246.863 251.320,246.317 249.824,246.165 248.874 C 246.014 247.925,245.464 246.522,244.945 245.757 C 244.425 244.991,244.000 244.259,244.000 244.131 C 244.000 244.002,243.310 242.885,242.466 241.649 C 241.622 240.412,240.857 239.189,240.766 238.930 C 240.306 237.627,231.131 228.481,228.719 226.921 C 225.367 224.752,225.194 224.468,226.586 223.432 C 233.258 218.468,241.783 206.599,243.391 200.036 C 243.769 198.494,244.329 197.025,244.636 196.770 C 246.761 195.007,246.911 171.289,244.820 167.745 C 244.379 166.997,243.734 165.289,243.387 163.949 C 243.040 162.610,242.346 160.858,241.845 160.057 C 241.344 159.256,240.745 158.060,240.514 157.400 C 239.026 153.148,232.127 144.324,227.200 140.372 C 225.990 139.402,224.523 138.111,223.940 137.504 C 223.356 136.897,222.629 136.400,222.324 136.400 C 222.019 136.400,221.147 135.867,220.385 135.216 C 219.623 134.565,218.640 134.022,218.200 134.009 C 217.760 133.996,216.639 133.470,215.710 132.840 C 214.780 132.209,213.183 131.568,212.161 131.415 C 211.139 131.262,209.600 130.770,208.742 130.323 C 207.884 129.876,205.881 129.361,204.291 129.179 C 199.839 128.670,194.324 127.712,193.063 127.228 C 192.265 126.922,177.607 126.796,143.809 126.805 C 117.344 126.812,94.699 126.701,93.487 126.559 C 91.424 126.316,91.241 126.366,90.605 127.337 M197.614 129.111 C 201.032 129.600,204.812 130.285,206.014 130.632 C 207.216 130.980,209.424 131.604,210.920 132.019 C 212.416 132.434,214.159 133.144,214.794 133.595 C 215.428 134.047,216.634 134.660,217.474 134.958 C 220.574 136.056,228.968 142.675,232.077 146.474 C 235.497 150.652,239.600 156.645,239.600 157.460 C 239.600 157.596,240.217 158.918,240.971 160.398 C 241.726 161.878,242.470 163.789,242.626 164.644 C 242.782 165.500,243.263 167.100,243.695 168.200 C 245.986 174.032,246.147 191.731,243.944 195.554 C 243.515 196.298,242.894 198.070,242.564 199.492 C 241.109 205.765,231.745 218.924,226.262 222.402 C 223.729 224.008,223.880 224.452,228.038 227.600 C 231.934 230.549,238.818 237.545,240.572 240.335 C 242.631 243.612,245.108 248.573,245.603 250.412 C 245.867 251.393,246.440 252.895,246.876 253.749 C 249.981 259.835,249.794 281.696,246.584 288.032 C 246.043 289.100,245.600 290.217,245.600 290.516 C 245.600 292.059,241.168 299.972,237.375 305.200 C 233.306 310.808,220.706 320.417,216.547 321.083 C 215.696 321.219,214.370 321.741,213.600 322.244 C 212.810 322.759,210.490 323.511,208.275 323.970 C 206.116 324.418,204.140 324.914,203.883 325.072 C 201.627 326.466,92.376 327.217,91.238 325.846 C 90.587 325.061,90.607 129.315,91.258 128.530 C 92.147 127.459,189.806 127.993,197.614 129.111 M124.218 158.117 C 123.700 158.906,123.613 162.455,123.590 183.617 L 123.563 208.200 124.444 208.915 C 125.277 209.591,127.176 209.623,159.363 209.515 L 193.400 209.400 195.600 208.334 C 196.810 207.747,198.478 206.990,199.306 206.652 C 203.939 204.757,208.490 200.165,211.449 194.400 L 213.400 190.600 213.400 183.595 L 213.400 176.590 211.557 172.795 C 208.853 167.226,201.484 160.307,197.239 159.350 C 196.667 159.222,194.796 158.685,193.079 158.158 L 189.959 157.200 157.389 157.200 L 124.818 157.200 124.218 158.117 M192.023 158.984 C 193.026 159.304,194.597 159.686,195.514 159.833 C 196.431 159.979,198.124 160.707,199.277 161.450 C 200.430 162.192,201.522 162.800,201.704 162.800 C 201.886 162.800,203.640 164.382,205.602 166.316 C 216.804 177.359,214.792 195.498,201.376 204.418 C 200.069 205.287,198.744 205.998,198.432 205.999 C 198.119 205.999,196.679 206.585,195.232 207.300 L 192.600 208.600 159.319 208.679 C 128.491 208.753,125.985 208.709,125.319 208.079 C 124.279 207.096,124.588 159.436,125.639 158.667 C 126.680 157.907,189.589 158.207,192.023 158.984 M124.149 239.814 C 123.238 240.726,123.141 241.067,123.378 242.528 C 123.695 244.483,123.679 289.728,123.362 290.556 C 123.059 291.343,123.889 294.210,124.587 294.789 C 125.671 295.689,188.436 295.355,193.867 294.421 C 202.503 292.935,208.350 289.073,213.955 281.149 C 216.507 277.543,217.535 267.645,216.172 259.800 C 214.767 251.709,206.923 243.289,198.856 241.215 C 197.388 240.837,195.739 240.288,195.193 239.994 C 193.823 239.258,191.615 239.200,156.296 238.973 L 125.192 238.772 124.149 239.814 M186.241 240.243 C 187.387 240.722,188.444 240.822,190.390 240.637 C 192.335 240.452,193.292 240.543,194.146 240.994 C 194.776 241.328,195.593 241.600,195.962 241.600 C 202.191 241.600,212.745 250.459,214.786 257.400 C 215.618 260.230,215.787 271.327,215.057 275.173 C 213.806 281.761,207.987 288.376,200.800 291.378 C 194.552 293.988,194.200 294.011,160.059 293.995 C 143.340 293.987,128.939 294.096,128.058 294.237 C 125.500 294.646,124.219 293.126,124.546 290.070 C 124.894 286.826,124.918 247.133,124.575 243.893 C 124.074 239.162,120.948 239.600,155.213 239.600 C 181.394 239.600,184.875 239.672,186.241 240.243 " stroke="none" fill="#5993c1" fill-rule="evenodd"></path><path id="path3" d="M59.400 86.005 C 55.482 86.227,54.159 86.471,52.200 87.329 C 50.880 87.908,49.170 88.498,48.400 88.640 C 47.630 88.782,46.640 89.224,46.200 89.620 C 45.760 90.017,44.368 90.727,43.108 91.197 C 41.847 91.667,40.722 92.203,40.608 92.388 C 40.493 92.572,39.421 93.276,38.225 93.951 C 35.117 95.705,28.538 102.376,26.432 105.908 C 25.479 107.507,24.537 108.915,24.339 109.038 C 23.410 109.612,20.858 115.682,20.242 118.782 C 19.779 121.114,19.234 122.603,18.485 123.582 L 17.400 125.000 17.400 225.800 L 17.400 326.600 18.647 329.800 C 19.334 331.560,20.031 333.630,20.198 334.400 C 20.750 336.951,24.411 344.065,27.266 348.137 C 30.082 352.152,36.892 358.392,39.853 359.669 C 40.484 359.941,41.746 360.684,42.658 361.319 C 44.650 362.708,45.750 362.630,45.927 361.088 C 46.034 360.162,45.839 359.892,44.727 359.427 C 43.997 359.122,42.950 358.525,42.400 358.100 C 41.850 357.676,40.789 357.120,40.043 356.865 C 36.517 355.662,33.551 352.964,32.038 349.585 C 31.626 348.664,30.916 347.526,30.460 347.056 C 25.269 341.695,24.289 339.957,23.999 335.600 C 23.770 332.158,23.414 331.150,20.748 326.400 C 20.192 325.410,19.523 323.741,19.260 322.690 C 18.671 320.331,18.599 139.644,19.185 132.530 C 19.533 128.305,20.592 124.800,21.521 124.800 C 21.688 124.800,21.866 124.305,21.915 123.700 C 21.964 123.095,22.384 122.084,22.849 121.452 C 23.314 120.821,23.925 119.381,24.207 118.252 C 24.490 117.124,25.022 115.210,25.391 114.000 C 25.760 112.790,26.287 110.810,26.562 109.600 C 27.050 107.459,27.134 107.360,29.751 105.856 C 31.230 105.007,32.745 103.837,33.120 103.256 C 34.856 100.562,41.816 94.800,43.336 94.800 C 43.635 94.800,44.672 94.226,45.640 93.524 C 46.800 92.683,48.150 92.132,49.600 91.907 C 50.810 91.720,52.492 91.208,53.338 90.769 C 54.968 89.926,58.484 88.944,61.800 88.406 C 62.900 88.227,64.306 87.951,64.924 87.791 C 65.543 87.632,67.703 87.543,69.724 87.594 C 91.443 88.142,244.928 87.953,247.416 87.375 C 249.979 86.779,250.463 86.776,252.816 87.337 C 254.237 87.677,256.030 88.064,256.800 88.199 C 257.570 88.334,259.820 88.961,261.800 89.592 C 265.863 90.888,268.155 91.462,272.200 92.199 C 276.935 93.062,281.600 95.687,282.910 98.227 C 283.301 98.984,284.381 100.079,285.310 100.662 C 289.531 103.306,293.148 107.446,293.183 109.671 C 293.192 110.260,293.830 111.951,294.600 113.428 C 295.370 114.905,296.000 116.624,296.000 117.248 C 296.000 117.871,296.445 119.564,296.989 121.009 C 299.225 126.949,299.175 124.483,299.018 220.400 C 298.938 268.910,298.860 309.676,298.844 310.991 C 298.823 312.643,299.059 313.852,299.607 314.904 C 301.024 317.623,300.193 323.284,297.647 328.245 C 297.208 329.100,296.733 330.606,296.591 331.592 C 296.450 332.577,296.231 333.550,296.105 333.754 C 295.978 333.959,295.905 334.910,295.941 335.868 C 296.034 338.322,295.157 340.117,292.450 343.011 C 290.758 344.818,289.801 346.291,289.036 348.262 C 287.517 352.173,286.765 352.891,281.600 355.364 C 276.727 357.696,274.655 359.557,275.087 361.212 C 275.357 362.243,276.084 362.207,277.908 361.071 C 278.729 360.560,279.678 360.040,280.018 359.915 C 281.495 359.373,286.068 355.829,286.589 354.822 C 286.902 354.215,287.648 353.399,288.245 353.007 C 289.498 352.186,292.400 349.219,292.400 348.759 C 292.400 348.588,293.108 347.631,293.972 346.632 C 295.835 344.479,299.264 337.511,299.990 334.400 C 300.273 333.190,300.886 331.030,301.352 329.600 L 302.200 327.000 302.200 226.200 L 302.200 125.400 301.068 122.400 C 300.445 120.750,299.809 118.372,299.655 117.116 C 299.497 115.833,299.015 114.342,298.556 113.716 C 298.107 113.102,297.275 111.610,296.709 110.400 C 296.142 109.190,295.154 107.660,294.513 107.000 C 293.872 106.340,293.003 105.260,292.582 104.600 C 289.640 99.991,286.269 96.827,280.200 92.977 C 278.031 91.601,271.436 88.384,269.600 87.806 C 268.610 87.495,266.990 86.916,266.000 86.520 C 264.125 85.770,71.985 85.291,59.400 86.005 M57.057 87.400 C 56.727 87.730,55.859 87.979,55.129 87.954 C 54.398 87.928,54.115 87.825,54.500 87.724 C 54.885 87.624,55.200 87.375,55.200 87.171 C 55.200 86.967,55.753 86.800,56.429 86.800 C 57.521 86.800,57.590 86.867,57.057 87.400 M265.813 87.380 C 268.537 88.518,267.015 89.696,264.207 88.624 C 262.985 88.157,262.512 87.774,262.665 87.375 C 262.946 86.642,264.051 86.644,265.813 87.380 M51.891 89.600 C 50.921 90.363,50.000 90.647,50.000 90.183 C 50.000 89.602,51.104 88.829,51.954 88.815 L 52.908 88.800 51.891 89.600 M271.700 89.357 C 272.735 90.142,272.562 90.400,271.000 90.400 C 270.230 90.400,269.600 90.214,269.600 89.987 C 269.600 89.760,269.195 89.411,268.700 89.212 C 267.937 88.906,268.043 88.849,269.400 88.838 C 270.280 88.831,271.315 89.065,271.700 89.357 M38.586 95.839 C 37.182 96.416,36.694 96.159,37.740 95.395 C 38.146 95.098,38.769 94.967,39.125 95.103 C 39.628 95.296,39.508 95.461,38.586 95.839 M36.354 97.561 C 35.881 98.918,34.962 99.799,33.700 100.106 C 32.262 100.456,32.613 99.422,34.472 97.831 C 36.499 96.096,36.883 96.041,36.354 97.561 M285.911 97.423 C 287.027 98.204,287.102 99.600,286.029 99.600 C 285.038 99.600,284.000 98.562,284.000 97.571 C 284.000 96.639,284.712 96.583,285.911 97.423 M32.000 101.418 C 32.000 102.093,30.268 104.000,29.656 104.000 C 28.976 104.000,29.671 102.402,30.703 101.590 C 31.913 100.639,32.000 100.627,32.000 101.418 M352.021 105.561 C 351.797 105.979,350.666 107.005,349.507 107.839 C 348.348 108.674,346.742 109.906,345.938 110.578 C 345.134 111.250,343.457 112.610,342.212 113.600 C 340.966 114.590,339.104 116.122,338.073 117.003 C 337.043 117.885,335.390 119.230,334.400 119.992 C 333.410 120.754,331.911 122.012,331.069 122.788 C 330.228 123.565,328.953 124.560,328.238 125.000 C 327.523 125.440,325.781 126.803,324.369 128.029 C 322.956 129.255,320.720 131.078,319.400 132.080 C 318.080 133.082,316.690 134.248,316.311 134.671 C 315.605 135.458,315.114 317.069,315.814 318.892 C 315.956 319.263,316.911 320.055,317.936 320.653 C 318.961 321.250,320.700 322.604,321.800 323.662 C 324.219 325.989,326.958 328.262,332.000 332.129 C 334.090 333.732,336.346 335.574,337.014 336.222 C 338.141 337.315,340.911 339.575,344.936 342.686 C 348.880 345.733,350.988 347.501,352.465 349.000 L 354.041 350.600 352.621 348.133 C 351.019 345.352,350.975 345.200,351.771 345.200 C 352.672 345.200,353.999 343.215,354.013 341.846 C 354.020 341.161,354.278 340.266,354.587 339.859 C 355.248 338.986,355.508 339.976,355.725 344.200 C 355.793 345.520,355.850 292.420,355.852 226.200 C 355.853 159.980,355.734 108.230,355.586 111.200 C 355.273 117.487,355.359 117.030,354.600 116.400 C 354.161 116.036,354.000 115.070,354.000 112.805 C 354.000 110.262,353.849 109.516,353.158 108.638 C 352.562 107.879,352.363 107.164,352.478 106.184 C 352.663 104.599,352.589 104.499,352.021 105.561 M351.092 110.024 C 350.616 110.787,348.328 112.000,347.366 112.000 C 347.032 112.000,346.499 112.623,346.181 113.384 C 345.723 114.481,345.269 114.858,344.000 115.200 C 343.069 115.451,342.128 116.044,341.753 116.616 C 341.366 117.206,340.726 117.600,340.154 117.600 C 338.834 117.600,338.964 117.165,340.621 116.036 C 341.400 115.505,342.386 114.581,342.813 113.981 C 343.240 113.382,344.303 112.606,345.175 112.257 C 346.047 111.908,346.944 111.279,347.169 110.859 C 347.734 109.802,350.874 108.273,351.246 108.874 C 351.400 109.124,351.331 109.641,351.092 110.024 M296.400 111.462 C 296.400 112.710,295.313 112.686,294.739 111.426 C 294.495 110.890,294.412 110.145,294.556 109.771 C 294.928 108.800,296.400 110.150,296.400 111.462 M352.234 113.753 C 352.291 114.143,352.632 115.081,352.991 115.837 C 353.897 117.746,353.544 126.475,352.430 129.712 C 351.731 131.745,351.713 132.115,352.231 133.836 C 352.714 135.443,352.806 148.146,352.842 218.364 C 352.877 286.864,353.045 311.300,353.667 338.659 C 353.808 344.859,348.845 345.242,345.362 339.300 C 344.311 337.506,341.490 335.752,338.190 334.840 C 335.887 334.203,335.615 333.935,335.282 331.971 C 334.962 330.086,334.700 329.877,330.526 328.182 C 329.325 327.694,328.339 326.810,327.035 325.051 C 325.414 322.865,323.685 321.246,320.352 318.794 C 318.641 317.536,318.265 315.169,319.256 311.907 L 320.075 309.208 319.259 307.504 C 318.023 304.923,317.291 199.238,318.173 150.800 C 318.466 134.727,318.244 135.977,321.100 134.345 C 322.365 133.622,324.930 131.519,326.800 129.671 C 328.912 127.584,330.957 125.966,332.200 125.400 C 333.300 124.899,335.010 123.752,336.000 122.851 C 336.990 121.950,339.015 120.389,340.500 119.381 C 341.985 118.374,343.200 117.381,343.200 117.175 C 343.200 116.969,343.976 116.800,344.925 116.800 C 346.340 116.800,346.861 116.575,347.825 115.549 C 350.130 113.096,352.025 112.324,352.234 113.753 M298.733 115.572 C 298.998 117.382,298.424 118.721,297.767 117.823 C 297.175 117.013,297.001 115.132,297.475 114.658 C 297.960 114.173,298.596 114.635,298.733 115.572 M355.532 227.200 C 355.543 332.322,355.492 337.637,354.488 335.434 C 353.763 333.843,353.761 119.573,354.485 118.409 C 355.489 116.797,355.520 120.069,355.532 227.200 M99.600 123.976 C 99.050 124.166,97.916 124.338,97.080 124.360 C 94.503 124.428,92.268 125.957,93.856 126.566 C 94.674 126.880,189.256 126.877,189.570 126.563 C 189.696 126.437,189.212 125.809,188.493 125.167 L 187.187 124.000 146.252 124.000 C 123.738 124.000,104.256 123.917,102.959 123.816 C 101.661 123.715,100.150 123.787,99.600 123.976 M102.400 125.000 C 102.400 125.330,102.130 125.600,101.800 125.600 C 101.175 125.600,101.006 125.127,101.467 124.667 C 101.927 124.206,102.400 124.375,102.400 125.000 M196.600 126.266 C 189.574 126.595,192.984 127.886,204.291 129.179 C 205.881 129.361,207.884 129.876,208.742 130.323 C 209.600 130.770,211.139 131.262,212.161 131.415 C 213.183 131.568,214.780 132.209,215.710 132.840 C 216.639 133.470,217.760 133.996,218.200 134.009 C 218.640 134.022,219.623 134.565,220.385 135.216 C 221.147 135.867,222.019 136.400,222.324 136.400 C 222.629 136.400,223.356 136.897,223.940 137.504 C 224.523 138.111,225.990 139.402,227.200 140.372 C 232.127 144.324,239.026 153.148,240.514 157.400 C 240.745 158.060,241.344 159.256,241.845 160.057 C 242.346 160.858,243.040 162.610,243.387 163.949 C 243.734 165.289,244.379 166.997,244.820 167.745 C 246.911 171.289,246.761 195.007,244.636 196.770 C 244.329 197.025,243.769 198.494,243.391 200.036 C 241.783 206.599,233.258 218.468,226.586 223.432 C 225.194 224.468,225.367 224.752,228.719 226.921 C 231.131 228.481,240.306 237.627,240.766 238.930 C 240.857 239.189,241.622 240.412,242.466 241.649 C 243.310 242.885,244.000 244.002,244.000 244.131 C 244.000 244.259,244.425 244.991,244.945 245.757 C 245.464 246.522,246.014 247.925,246.165 248.874 C 246.317 249.824,246.863 251.320,247.378 252.200 C 247.938 253.155,248.505 255.091,248.786 257.000 C 249.044 258.760,249.603 261.938,250.028 264.063 C 250.943 268.639,251.022 273.491,250.227 276.227 C 249.911 277.312,249.356 280.257,248.992 282.772 C 248.500 286.175,248.033 287.903,247.166 289.528 C 246.525 290.730,246.000 291.953,246.000 292.246 C 246.000 292.956,243.524 298.012,241.928 300.561 C 238.982 305.266,232.579 312.205,228.646 314.952 C 227.663 315.638,226.137 316.740,225.255 317.400 C 222.206 319.680,218.995 321.494,217.540 321.757 C 216.737 321.902,215.437 322.458,214.651 322.991 C 213.865 323.524,212.092 324.158,210.711 324.399 C 209.330 324.640,206.850 325.263,205.200 325.784 C 200.751 327.187,200.834 327.185,143.829 327.208 C 99.783 327.225,90.967 327.139,90.512 326.683 C 89.921 326.092,89.621 130.218,90.208 127.900 C 90.654 126.138,89.259 126.501,87.131 128.700 C 84.261 131.666,84.190 131.964,85.813 134.247 L 87.200 136.197 87.208 220.199 C 87.214 290.621,87.307 304.717,87.779 307.397 C 88.295 310.326,88.278 310.906,87.571 314.341 C 86.173 321.133,87.163 327.445,89.750 328.238 C 90.217 328.382,91.164 329.107,91.854 329.849 C 93.237 331.339,97.316 331.790,99.874 330.736 C 100.705 330.394,113.529 330.261,148.800 330.232 C 183.806 330.203,196.814 330.070,197.400 329.736 C 197.840 329.485,199.174 329.156,200.364 329.005 C 201.554 328.854,203.018 328.367,203.618 327.924 C 204.301 327.419,205.734 327.000,207.454 326.802 C 208.964 326.629,210.678 326.298,211.262 326.068 C 211.847 325.837,213.827 325.447,215.662 325.200 C 219.122 324.736,225.209 322.107,228.324 319.732 C 229.053 319.176,230.268 318.551,231.024 318.342 C 232.350 317.976,234.400 316.433,234.400 315.802 C 234.400 315.633,235.227 314.668,236.238 313.657 C 237.249 312.645,238.417 311.151,238.833 310.336 C 239.248 309.521,239.776 308.738,240.006 308.597 C 240.235 308.455,241.210 306.778,242.173 304.869 C 243.135 302.961,244.496 300.860,245.197 300.200 C 247.152 298.359,248.931 294.220,249.451 290.304 C 249.681 288.570,249.832 288.334,250.845 288.131 C 251.772 287.946,252.032 287.635,252.254 286.452 C 252.403 285.653,252.806 284.370,253.148 283.600 C 253.491 282.830,253.833 281.120,253.908 279.800 C 254.247 273.836,254.273 268.125,253.965 267.311 C 253.780 266.822,253.521 265.382,253.389 264.111 C 253.258 262.840,252.802 260.611,252.375 259.157 C 251.949 257.703,251.600 256.306,251.600 256.053 C 251.600 255.799,251.249 254.828,250.820 253.896 C 249.675 251.406,248.381 247.945,248.166 246.800 C 247.690 244.259,246.612 241.527,245.943 241.170 C 244.888 240.605,242.035 236.747,240.397 233.671 C 239.452 231.898,238.406 230.605,237.197 229.719 C 234.447 227.705,231.630 225.204,231.195 224.391 C 230.787 223.628,231.386 222.867,238.705 214.852 C 240.691 212.677,241.801 210.998,242.935 208.452 C 243.781 206.553,244.974 204.010,245.585 202.800 C 246.616 200.761,247.223 198.481,248.430 192.120 C 248.967 189.291,248.683 171.610,248.074 169.975 C 247.875 169.439,247.586 167.862,247.433 166.471 C 247.279 165.080,246.774 163.280,246.309 162.471 C 245.845 161.662,245.028 160.100,244.493 159.000 C 243.958 157.900,242.819 156.063,241.960 154.917 C 241.102 153.772,240.400 152.719,240.400 152.579 C 240.400 152.438,240.052 151.835,239.627 151.237 C 239.201 150.640,238.724 149.622,238.566 148.976 C 237.537 144.771,235.705 142.674,230.976 140.286 C 229.863 139.724,227.705 138.076,226.180 136.624 C 224.646 135.164,222.832 133.826,222.120 133.629 C 221.412 133.434,220.061 132.742,219.117 132.092 C 214.903 129.192,213.537 128.495,211.554 128.232 C 210.415 128.081,208.745 127.576,207.842 127.109 C 206.091 126.206,202.942 125.969,196.600 126.266 M204.593 127.269 C 206.423 128.103,203.766 128.809,201.292 128.146 C 200.573 127.953,200.479 127.787,200.841 127.351 C 201.400 126.676,203.205 126.637,204.593 127.269 M213.143 129.556 C 213.968 130.079,212.972 130.530,211.698 130.210 C 210.867 130.002,210.765 129.867,211.221 129.579 C 211.943 129.122,212.448 129.116,213.143 129.556 M89.064 140.005 C 89.100 145.259,88.985 148.959,88.804 148.400 C 88.626 147.850,88.462 145.037,88.440 142.149 C 88.412 138.464,88.221 136.469,87.800 135.462 C 86.793 133.053,87.104 130.246,88.350 130.486 C 88.926 130.596,89.007 131.685,89.064 140.005 M233.746 143.629 C 234.860 144.505,235.117 145.200,234.326 145.200 C 233.777 145.200,232.000 143.619,232.000 143.130 C 232.000 142.576,232.639 142.758,233.746 143.629 M243.186 158.900 C 243.215 159.524,242.085 159.169,241.912 158.500 C 241.571 157.184,242.064 156.601,242.639 157.639 C 242.932 158.168,243.178 158.735,243.186 158.900 M125.639 158.667 C 124.588 159.436,124.279 207.096,125.319 208.079 C 125.985 208.709,128.491 208.753,159.319 208.679 L 192.600 208.600 195.232 207.300 C 196.679 206.585,198.119 205.999,198.432 205.999 C 199.369 205.997,203.595 202.992,206.057 200.578 C 212.661 194.099,214.597 182.939,210.734 173.611 C 208.081 167.206,203.484 163.502,205.347 169.271 C 205.706 170.383,206.000 171.461,206.000 171.669 C 206.000 171.876,206.833 173.790,207.852 175.923 C 211.577 183.720,211.589 189.237,207.891 193.644 C 203.632 198.720,201.874 200.376,198.478 202.509 C 192.410 206.322,193.685 206.200,159.800 206.200 L 130.600 206.200 129.369 205.322 C 127.828 204.223,127.101 200.497,127.740 196.970 C 128.035 195.343,127.998 194.321,127.592 192.899 C 127.045 190.984,126.514 166.441,126.979 164.556 C 127.093 164.092,127.915 162.940,128.804 161.996 L 130.421 160.278 145.111 160.639 C 153.190 160.838,166.640 161.000,175.000 161.000 C 192.193 161.000,191.076 160.809,194.677 164.355 L 196.739 166.385 198.157 165.792 C 198.936 165.467,200.379 165.200,201.364 165.200 C 202.348 165.200,203.271 165.009,203.416 164.775 C 203.714 164.292,202.511 162.800,201.825 162.800 C 201.576 162.800,200.430 162.192,199.277 161.450 C 198.124 160.707,196.431 159.979,195.514 159.833 C 194.597 159.686,193.026 159.304,192.023 158.984 C 189.589 158.207,126.680 157.907,125.639 158.667 M127.920 159.280 C 128.572 159.932,128.523 160.620,127.771 161.371 C 126.883 162.260,126.440 162.156,125.982 160.951 C 125.354 159.301,126.744 158.104,127.920 159.280 M198.339 161.547 C 199.698 162.726,199.476 163.632,197.900 163.337 C 196.413 163.060,193.600 161.613,193.600 161.126 C 193.600 160.444,197.462 160.786,198.339 161.547 M245.922 164.517 C 245.655 167.191,243.988 165.413,244.013 162.481 L 244.025 161.000 245.034 162.148 C 245.741 162.952,246.007 163.661,245.922 164.517 M208.990 170.780 C 209.727 172.207,209.789 174.005,209.100 173.987 C 207.768 173.953,206.166 171.476,206.654 170.203 C 207.040 169.197,208.337 169.517,208.990 170.780 M247.790 182.231 C 247.908 187.791,247.832 191.636,247.598 192.000 C 247.344 192.394,247.210 189.184,247.206 182.633 C 247.199 170.227,247.531 169.998,247.790 182.231 M210.000 175.000 C 210.000 175.330,210.165 175.600,210.367 175.600 C 211.225 175.600,212.150 179.172,211.572 180.252 L 211.024 181.276 210.261 179.538 C 209.459 177.712,209.069 174.400,209.656 174.400 C 209.845 174.400,210.000 174.670,210.000 175.000 M190.541 193.434 C 189.843 194.498,190.203 195.177,191.471 195.194 C 192.229 195.204,193.266 193.949,193.023 193.316 C 192.900 192.996,192.800 192.659,192.800 192.567 C 192.800 191.937,191.092 192.592,190.541 193.434 M208.151 196.700 C 207.929 197.951,205.285 200.833,203.200 202.098 C 202.430 202.565,201.209 203.454,200.486 204.073 C 199.111 205.253,198.224 205.486,197.789 204.782 C 197.394 204.143,198.316 203.275,200.339 202.380 C 201.347 201.934,202.300 201.351,202.457 201.084 C 203.080 200.027,207.429 195.639,207.874 195.620 C 208.173 195.607,208.275 196.004,208.151 196.700 M245.444 200.629 C 245.099 201.529,244.400 201.295,244.400 200.280 C 244.400 198.964,245.355 198.056,245.532 199.204 C 245.604 199.674,245.565 200.315,245.444 200.629 M127.391 205.190 C 127.784 205.624,128.442 206.086,128.853 206.217 C 130.662 206.791,129.236 207.982,126.724 207.995 C 125.360 208.001,125.055 207.497,125.378 205.774 C 125.669 204.223,126.340 204.028,127.391 205.190 M242.739 206.839 C 241.993 207.303,241.799 206.524,242.462 205.724 C 242.955 205.130,243.012 205.135,243.139 205.790 C 243.216 206.183,243.036 206.655,242.739 206.839 M194.188 206.380 C 194.582 207.017,192.965 207.600,190.803 207.600 C 188.695 207.600,188.416 207.093,190.141 206.397 C 191.313 205.925,193.899 205.913,194.188 206.380 M241.200 210.018 C 241.200 210.248,240.758 210.878,240.218 211.418 C 238.443 213.193,237.712 212.534,239.416 210.696 C 240.464 209.566,241.200 209.286,241.200 210.018 M229.795 224.649 C 230.538 226.428,230.538 226.400,229.784 226.400 C 229.155 226.400,226.000 224.916,226.000 224.620 C 226.000 222.828,229.043 222.851,229.795 224.649 M235.367 229.843 C 235.715 229.976,236.000 230.298,236.000 230.557 C 236.000 230.816,236.506 231.327,237.125 231.692 C 238.329 232.403,239.950 234.984,239.485 235.448 C 239.051 235.882,237.662 234.429,237.146 233.002 C 236.869 232.235,236.147 231.430,235.353 231.002 C 233.804 230.168,233.815 229.247,235.367 229.843 M125.006 240.393 C 124.396 241.068,124.331 241.592,124.575 243.893 C 124.918 247.133,124.894 286.826,124.546 290.070 C 124.219 293.126,125.500 294.646,128.058 294.237 C 128.939 294.096,143.340 293.987,160.059 293.995 C 194.200 294.011,194.552 293.988,200.800 291.378 C 207.987 288.376,213.806 281.761,215.057 275.173 C 215.787 271.327,215.618 260.230,214.786 257.400 C 212.748 250.468,202.191 241.600,195.977 241.600 C 195.617 241.600,194.769 241.324,194.092 240.986 C 193.169 240.525,192.221 240.437,190.308 240.633 L 187.756 240.895 187.718 242.232 C 187.665 244.092,188.085 244.296,192.400 244.510 C 198.360 244.806,201.489 245.681,203.189 247.528 C 203.965 248.370,205.701 249.644,207.047 250.357 C 209.707 251.768,210.167 252.382,210.814 255.385 C 211.049 256.477,211.763 258.673,212.400 260.264 C 213.734 263.595,213.901 266.688,212.932 270.085 C 212.599 271.248,212.072 273.445,211.760 274.967 C 211.427 276.592,210.781 278.274,210.197 279.040 C 209.649 279.758,209.031 280.791,208.824 281.336 C 208.617 281.881,207.977 282.658,207.403 283.063 C 206.828 283.469,205.602 284.471,204.679 285.291 C 203.755 286.112,202.190 287.098,201.200 287.483 C 200.210 287.867,198.414 288.775,197.208 289.500 C 192.575 292.287,191.210 292.395,160.660 292.398 C 130.786 292.400,132.519 292.560,129.588 289.540 C 126.802 286.669,126.539 284.194,126.796 263.322 L 127.000 246.843 128.363 245.437 C 129.113 244.664,130.643 243.570,131.763 243.006 L 133.800 241.981 155.200 241.846 C 166.970 241.771,177.277 241.576,178.106 241.411 C 179.079 241.217,179.808 241.275,180.170 241.575 C 180.553 241.893,180.810 241.907,180.988 241.619 C 181.131 241.389,182.092 241.197,183.124 241.194 C 185.370 241.187,186.542 240.625,185.600 240.006 C 185.219 239.756,174.636 239.627,156.600 239.653 C 140.980 239.675,128.560 239.772,129.000 239.869 C 130.600 240.221,131.985 240.901,131.779 241.233 C 131.387 241.869,126.351 244.067,125.786 243.850 C 124.379 243.310,124.593 240.617,126.091 240.016 C 126.677 239.781,126.773 239.642,126.362 239.625 C 126.011 239.611,125.401 239.957,125.006 240.393 M192.834 242.200 C 192.838 242.420,192.552 242.660,192.198 242.734 C 191.261 242.928,190.307 242.475,190.612 241.980 C 190.935 241.458,192.821 241.645,192.834 242.200 M200.445 243.674 C 200.996 244.564,200.317 244.897,198.469 244.644 C 196.833 244.420,196.024 243.922,196.006 243.128 C 195.987 242.271,199.874 242.749,200.445 243.674 M206.546 247.629 C 207.641 248.490,207.919 249.200,207.162 249.200 C 206.547 249.200,204.400 247.624,204.400 247.173 C 204.400 246.539,205.441 246.760,206.546 247.629 M248.387 250.300 C 248.394 250.575,248.130 250.800,247.800 250.800 C 247.392 250.800,247.200 250.392,247.200 249.524 C 247.200 248.208,248.353 248.962,248.387 250.300 M213.586 256.374 C 214.169 257.463,214.110 259.600,213.497 259.600 C 213.052 259.600,212.000 257.076,212.000 256.006 C 212.000 255.300,213.154 255.567,213.586 256.374 M250.957 256.633 C 251.318 257.573,251.251 259.121,250.839 259.376 C 250.481 259.597,249.600 257.580,249.600 256.540 C 249.600 255.789,250.661 255.861,250.957 256.633 M214.243 274.607 C 213.976 277.218,213.339 279.200,212.767 279.200 C 212.599 279.200,212.256 279.824,212.004 280.587 C 211.753 281.350,211.019 282.418,210.373 282.961 C 209.728 283.504,209.200 284.134,209.200 284.360 C 209.200 284.934,206.810 287.600,206.296 287.600 C 206.065 287.600,205.254 288.074,204.493 288.654 C 203.104 289.714,199.600 290.477,199.600 289.720 C 199.600 289.312,200.843 288.605,202.243 288.216 C 202.707 288.087,203.831 287.188,204.740 286.218 C 205.649 285.248,207.018 284.228,207.781 283.952 C 208.790 283.588,209.237 283.144,209.415 282.330 C 209.551 281.714,210.069 280.889,210.567 280.497 C 211.836 279.499,212.267 278.534,212.576 276.000 C 213.107 271.652,214.681 270.337,214.243 274.607 M191.185 279.562 C 190.854 279.693,190.587 280.070,190.592 280.400 C 190.604 281.260,192.948 281.215,193.114 280.352 C 193.251 279.640,192.139 279.185,191.185 279.562 M250.884 285.073 C 250.607 286.521,250.397 286.166,250.428 284.300 C 250.448 283.097,250.545 282.826,250.759 283.373 C 250.925 283.797,250.982 284.562,250.884 285.073 M128.184 290.300 C 129.937 292.186,129.941 292.650,128.209 293.476 C 125.932 294.562,124.628 292.776,125.452 289.700 C 125.798 288.411,126.589 288.584,128.184 290.300 M197.600 291.213 C 197.600 291.758,196.628 292.111,195.723 291.895 C 195.109 291.748,195.150 291.656,196.000 291.286 C 197.294 290.723,197.600 290.709,197.600 291.213 M248.130 291.361 C 248.248 291.670,248.093 292.255,247.785 292.661 C 247.268 293.343,247.224 293.300,247.213 292.100 C 247.200 290.777,247.739 290.343,248.130 291.361 M240.800 305.567 C 240.800 306.620,235.018 312.324,233.890 312.384 C 233.571 312.400,235.657 309.947,236.900 308.844 C 237.285 308.502,237.600 308.065,237.600 307.873 C 237.600 307.082,239.309 305.200,240.027 305.200 C 240.452 305.200,240.800 305.365,240.800 305.567 M317.990 310.676 C 317.995 311.378,317.829 312.058,317.620 312.188 C 316.947 312.604,316.399 310.915,316.432 308.526 L 316.465 306.200 317.222 307.800 C 317.638 308.680,317.984 309.974,317.990 310.676 M233.200 313.169 C 233.200 313.802,231.158 316.001,230.028 316.586 C 229.436 316.892,228.422 317.666,227.776 318.306 C 226.497 319.571,223.032 321.600,222.150 321.600 C 221.159 321.600,221.572 320.882,223.100 319.951 C 223.925 319.447,225.320 318.354,226.200 317.521 C 227.080 316.688,228.520 315.665,229.400 315.247 C 230.280 314.829,231.343 314.108,231.762 313.644 C 232.563 312.757,233.200 312.547,233.200 313.169 M331.850 314.207 C 331.467 314.590,331.254 315.165,331.377 315.484 C 331.500 315.804,331.600 316.137,331.600 316.224 C 331.600 316.311,332.050 316.178,332.600 315.927 C 333.748 315.404,333.798 315.224,333.073 314.232 C 332.572 313.547,332.511 313.546,331.850 314.207 M89.200 319.433 C 89.200 321.681,89.071 322.424,88.700 322.302 C 87.639 321.952,87.967 316.400,89.049 316.400 C 89.132 316.400,89.200 317.765,89.200 319.433 M318.000 318.057 C 318.000 318.648,317.819 318.816,317.367 318.643 C 317.019 318.509,316.659 318.400,316.567 318.400 C 316.475 318.400,316.400 317.944,316.400 317.386 C 316.400 316.496,316.498 316.424,317.200 316.800 C 317.640 317.035,318.000 317.601,318.000 318.057 M218.530 322.663 C 218.976 323.109,217.953 324.000,216.994 324.000 C 216.010 324.000,215.344 322.974,216.122 322.657 C 216.846 322.363,218.233 322.367,218.530 322.663 M102.421 328.261 C 103.635 329.475,94.823 331.181,93.408 330.007 C 92.633 329.364,93.259 328.131,94.499 327.857 C 95.870 327.555,102.029 327.869,102.421 328.261 M192.530 328.263 C 192.975 328.708,191.954 329.600,191.000 329.600 C 190.046 329.600,189.025 328.708,189.470 328.263 C 189.615 328.118,190.303 328.000,191.000 328.000 C 191.697 328.000,192.385 328.118,192.530 328.263 M341.316 337.245 C 344.462 338.824,345.657 340.404,343.700 340.395 C 342.914 340.392,342.036 339.821,340.626 338.395 C 338.490 336.236,338.679 335.922,341.316 337.245 M296.151 341.500 C 295.731 343.255,294.900 344.664,293.295 346.344 C 292.473 347.206,291.540 348.230,291.222 348.622 C 290.174 349.912,290.346 348.537,291.483 346.535 C 293.895 342.291,296.683 339.284,296.151 341.500 M27.928 345.931 C 27.998 346.409,27.906 346.800,27.724 346.800 C 27.250 346.800,26.398 345.335,26.699 345.035 C 27.155 344.579,27.798 345.048,27.928 345.931 M30.307 349.200 C 30.724 349.867,30.707 350.000,30.203 350.000 C 29.872 350.000,29.600 349.925,29.600 349.833 C 29.600 349.741,29.491 349.381,29.357 349.033 C 29.009 348.127,29.714 348.251,30.307 349.200 M284.370 355.836 C 283.662 356.689,283.112 356.511,283.606 355.589 C 283.845 355.143,284.220 354.889,284.439 355.024 C 284.697 355.184,284.673 355.472,284.370 355.836 M281.214 357.973 C 280.750 358.841,279.430 359.389,278.778 358.986 C 278.109 358.573,279.569 357.200,280.676 357.200 C 281.493 357.200,281.569 357.310,281.214 357.973 M269.800 362.951 C 268.394 363.560,260.854 364.619,253.200 365.283 C 244.283 366.056,69.581 366.179,63.800 365.417 C 58.141 364.670,55.043 364.180,52.800 363.676 C 51.257 363.329,50.265 363.298,48.676 363.549 C 47.879 363.675,48.946 364.334,50.690 364.793 C 51.740 365.069,54.409 365.905,56.621 366.650 L 60.641 368.005 160.821 367.902 C 254.390 367.807,261.092 367.755,262.400 367.116 C 264.162 366.256,266.942 365.362,268.936 365.017 C 271.914 364.500,273.388 363.265,271.767 362.643 C 271.419 362.509,271.104 362.407,271.067 362.416 C 271.030 362.424,270.460 362.665,269.800 362.951 M260.800 366.605 C 260.800 367.072,260.229 367.200,258.151 367.200 C 256.077 367.200,255.592 367.091,255.917 366.700 C 256.554 365.934,260.800 365.851,260.800 366.605 M62.600 366.800 C 63.239 367.075,63.093 367.149,61.876 367.172 C 60.956 367.189,60.451 367.042,60.600 366.800 C 60.892 366.328,61.501 366.328,62.600 366.800 " stroke="none" fill="#337bb4" fill-rule="evenodd"></path><path id="path4" d="M55.200 87.171 C 55.200 87.375,54.885 87.624,54.500 87.724 C 54.115 87.825,54.398 87.928,55.129 87.954 C 55.859 87.979,56.727 87.730,57.057 87.400 C 57.590 86.867,57.521 86.800,56.429 86.800 C 55.753 86.800,55.200 86.967,55.200 87.171 M262.665 87.375 C 262.512 87.774,262.985 88.157,264.207 88.624 C 267.015 89.696,268.537 88.518,265.813 87.380 C 264.051 86.644,262.946 86.642,262.665 87.375 M50.500 89.398 C 49.403 90.644,50.383 90.786,51.891 89.600 L 52.908 88.800 51.954 88.815 C 51.429 88.824,50.775 89.086,50.500 89.398 M268.700 89.212 C 269.195 89.411,269.600 89.760,269.600 89.987 C 269.600 90.214,270.230 90.400,271.000 90.400 C 271.770 90.400,272.400 90.285,272.400 90.144 C 272.400 89.500,270.854 88.827,269.400 88.838 C 268.043 88.849,267.937 88.906,268.700 89.212 M37.740 95.395 C 36.694 96.159,37.182 96.416,38.586 95.839 C 39.508 95.461,39.628 95.296,39.125 95.103 C 38.769 94.967,38.146 95.098,37.740 95.395 M34.472 97.831 C 32.613 99.422,32.262 100.456,33.700 100.106 C 34.962 99.799,35.881 98.918,36.354 97.561 C 36.883 96.041,36.499 96.096,34.472 97.831 M284.000 97.571 C 284.000 98.562,285.038 99.600,286.029 99.600 C 287.102 99.600,287.027 98.204,285.911 97.423 C 284.712 96.583,284.000 96.639,284.000 97.571 M30.703 101.590 C 29.671 102.402,28.976 104.000,29.656 104.000 C 30.268 104.000,32.000 102.093,32.000 101.418 C 32.000 100.627,31.913 100.639,30.703 101.590 M353.196 104.100 C 352.184 105.760,352.185 107.401,353.200 108.691 C 353.844 109.509,354.000 110.314,354.000 112.805 C 354.000 116.270,354.950 118.176,355.358 115.529 C 355.815 112.566,355.898 103.658,355.472 103.232 C 354.725 102.485,354.015 102.756,353.196 104.100 M349.271 109.257 C 348.340 109.718,347.393 110.439,347.169 110.859 C 346.944 111.279,346.047 111.908,345.175 112.257 C 344.303 112.606,343.240 113.382,342.813 113.981 C 342.386 114.581,341.400 115.505,340.621 116.036 C 338.964 117.165,338.834 117.600,340.154 117.600 C 340.726 117.600,341.366 117.206,341.753 116.616 C 342.128 116.044,343.069 115.451,344.000 115.200 C 345.269 114.858,345.723 114.481,346.181 113.384 C 346.499 112.623,347.032 112.000,347.366 112.000 C 348.328 112.000,350.616 110.787,351.092 110.024 C 351.915 108.707,351.087 108.358,349.271 109.257 M294.556 109.771 C 294.210 110.671,295.023 112.400,295.791 112.400 C 296.677 112.400,296.554 110.663,295.608 109.808 C 294.870 109.139,294.799 109.137,294.556 109.771 M297.475 114.658 C 297.001 115.132,297.175 117.013,297.767 117.823 C 298.315 118.572,298.344 118.562,298.601 117.540 C 299.089 115.595,298.372 113.761,297.475 114.658 M354.485 118.409 C 353.761 119.573,353.763 333.843,354.488 335.434 C 355.492 337.637,355.543 332.322,355.532 227.200 C 355.520 120.069,355.489 116.797,354.485 118.409 M101.467 124.667 C 101.006 125.127,101.175 125.600,101.800 125.600 C 102.130 125.600,102.400 125.330,102.400 125.000 C 102.400 124.375,101.927 124.206,101.467 124.667 M200.841 127.351 C 200.479 127.787,200.573 127.953,201.292 128.146 C 203.766 128.809,206.423 128.103,204.593 127.269 C 203.205 126.637,201.400 126.676,200.841 127.351 M211.221 129.579 C 210.765 129.867,210.867 130.002,211.698 130.210 C 212.972 130.530,213.968 130.079,213.143 129.556 C 212.448 129.116,211.943 129.122,211.221 129.579 M87.450 131.013 C 87.027 132.117,87.171 133.957,87.800 135.462 C 88.221 136.469,88.412 138.464,88.440 142.149 C 88.462 145.037,88.626 147.850,88.804 148.400 C 88.985 148.959,89.100 145.259,89.064 140.005 C 89.007 131.685,88.926 130.596,88.350 130.486 C 87.993 130.417,87.588 130.654,87.450 131.013 M232.000 143.130 C 232.000 143.619,233.777 145.200,234.326 145.200 C 235.117 145.200,234.860 144.505,233.746 143.629 C 232.639 142.758,232.000 142.576,232.000 143.130 M241.919 157.239 C 241.627 158.107,242.033 159.200,242.647 159.200 C 243.327 159.200,243.325 158.877,242.639 157.639 C 242.261 156.958,242.052 156.842,241.919 157.239 M126.040 159.351 C 125.532 159.964,126.086 162.000,126.762 162.000 C 127.306 162.000,128.400 160.833,128.400 160.251 C 128.400 159.003,126.828 158.403,126.040 159.351 M193.600 161.126 C 193.600 161.613,196.413 163.060,197.900 163.337 C 199.476 163.632,199.698 162.726,198.339 161.547 C 197.462 160.786,193.600 160.444,193.600 161.126 M244.013 162.481 C 243.988 165.413,245.655 167.191,245.922 164.517 C 246.007 163.661,245.741 162.952,245.034 162.148 L 244.025 161.000 244.013 162.481 M206.654 170.203 C 206.166 171.476,207.768 173.953,209.100 173.987 C 209.789 174.005,209.727 172.207,208.990 170.780 C 208.337 169.517,207.040 169.197,206.654 170.203 M247.206 182.633 C 247.210 189.184,247.344 192.394,247.598 192.000 C 247.984 191.400,247.794 173.261,247.398 172.865 C 247.289 172.756,247.203 177.152,247.206 182.633 M209.405 176.100 C 209.456 177.035,209.841 178.582,210.261 179.538 L 211.024 181.276 211.572 180.252 C 212.150 179.172,211.225 175.600,210.367 175.600 C 210.165 175.600,210.000 175.330,210.000 175.000 C 210.000 174.670,209.845 174.400,209.656 174.400 C 209.467 174.400,209.354 175.165,209.405 176.100 M205.071 198.120 C 203.791 199.484,202.614 200.818,202.457 201.084 C 202.300 201.351,201.347 201.934,200.339 202.380 C 198.316 203.275,197.394 204.143,197.789 204.782 C 198.224 205.486,199.111 205.253,200.486 204.073 C 201.209 203.454,202.430 202.565,203.200 202.098 C 205.285 200.833,207.929 197.951,208.151 196.700 C 208.453 195.003,207.651 195.373,205.071 198.120 M244.900 198.855 C 244.297 199.464,244.233 201.200,244.813 201.200 C 245.358 201.200,245.695 200.265,245.532 199.204 C 245.426 198.518,245.302 198.449,244.900 198.855 M125.378 205.774 C 125.055 207.497,125.360 208.001,126.724 207.995 C 129.236 207.982,130.662 206.791,128.853 206.217 C 128.442 206.086,127.784 205.624,127.391 205.190 C 126.340 204.028,125.669 204.223,125.378 205.774 M242.462 205.724 C 241.799 206.524,241.993 207.303,242.739 206.839 C 243.036 206.655,243.216 206.183,243.139 205.790 C 243.012 205.135,242.955 205.130,242.462 205.724 M190.141 206.397 C 188.416 207.093,188.695 207.600,190.803 207.600 C 192.965 207.600,194.582 207.017,194.188 206.380 C 193.899 205.913,191.313 205.925,190.141 206.397 M239.416 210.696 C 237.712 212.534,238.443 213.193,240.218 211.418 C 241.228 210.409,241.494 209.600,240.816 209.600 C 240.605 209.600,239.975 210.093,239.416 210.696 M226.629 223.829 C 225.782 224.676,225.779 224.671,227.584 225.592 C 229.012 226.320,230.400 226.644,230.400 226.249 C 230.400 223.988,228.005 222.452,226.629 223.829 M234.235 229.943 C 234.118 230.132,234.621 230.609,235.353 231.002 C 236.147 231.430,236.869 232.235,237.146 233.002 C 237.662 234.429,239.051 235.882,239.485 235.448 C 239.950 234.984,238.329 232.403,237.125 231.692 C 236.506 231.327,236.000 230.816,236.000 230.557 C 236.000 230.298,235.715 229.976,235.367 229.843 C 234.550 229.529,234.488 229.535,234.235 229.943 M126.091 240.003 C 124.593 240.626,124.380 243.310,125.786 243.850 C 126.351 244.067,131.387 241.869,131.779 241.233 C 132.286 240.413,127.562 239.391,126.091 240.003 M190.612 241.980 C 190.307 242.475,191.261 242.928,192.198 242.734 C 192.552 242.660,192.838 242.420,192.834 242.200 C 192.821 241.645,190.935 241.458,190.612 241.980 M196.900 242.712 C 195.940 242.865,195.825 243.104,196.328 243.897 C 196.716 244.508,200.208 245.034,200.521 244.528 C 201.120 243.558,198.822 242.405,196.900 242.712 M204.400 247.173 C 204.400 247.624,206.547 249.200,207.162 249.200 C 207.919 249.200,207.641 248.490,206.546 247.629 C 205.441 246.760,204.400 246.539,204.400 247.173 M247.200 249.524 C 247.200 250.392,247.392 250.800,247.800 250.800 C 248.555 250.800,248.550 250.032,247.787 249.024 C 247.231 248.289,247.200 248.315,247.200 249.524 M212.000 256.006 C 212.000 257.076,213.052 259.600,213.497 259.600 C 214.110 259.600,214.169 257.463,213.586 256.374 C 213.154 255.567,212.000 255.300,212.000 256.006 M249.600 256.540 C 249.600 257.580,250.481 259.597,250.839 259.376 C 251.251 259.121,251.318 257.573,250.957 256.633 C 250.661 255.861,249.600 255.789,249.600 256.540 M213.290 272.900 C 213.045 273.395,212.724 274.790,212.576 276.000 C 212.267 278.534,211.836 279.499,210.567 280.497 C 210.069 280.889,209.551 281.714,209.415 282.330 C 209.237 283.144,208.790 283.588,207.781 283.952 C 207.018 284.228,205.649 285.248,204.740 286.218 C 203.831 287.188,202.707 288.087,202.243 288.216 C 200.843 288.605,199.600 289.312,199.600 289.720 C 199.600 290.477,203.104 289.714,204.493 288.654 C 205.254 288.074,206.065 287.600,206.296 287.600 C 206.810 287.600,209.200 284.934,209.200 284.360 C 209.200 284.134,209.728 283.504,210.373 282.961 C 211.019 282.418,211.753 281.350,212.004 280.587 C 212.256 279.824,212.599 279.200,212.767 279.200 C 213.339 279.200,213.976 277.218,214.243 274.607 C 214.519 271.916,214.125 271.211,213.290 272.900 M250.428 284.300 C 250.413 285.235,250.469 286.000,250.553 286.000 C 250.893 286.000,251.042 284.095,250.759 283.373 C 250.545 282.826,250.448 283.097,250.428 284.300 M125.452 289.700 C 124.628 292.776,125.932 294.562,128.209 293.476 C 129.941 292.650,129.937 292.186,128.184 290.300 C 126.589 288.584,125.798 288.411,125.452 289.700 M196.000 291.286 C 195.150 291.656,195.109 291.748,195.723 291.895 C 196.628 292.111,197.600 291.758,197.600 291.213 C 197.600 290.709,197.294 290.723,196.000 291.286 M247.213 292.100 C 247.224 293.300,247.268 293.343,247.785 292.661 C 248.093 292.255,248.248 291.670,248.130 291.361 C 247.739 290.343,247.200 290.777,247.213 292.100 M238.427 306.362 C 237.972 307.001,237.600 307.681,237.600 307.873 C 237.600 308.065,237.285 308.502,236.900 308.844 C 235.657 309.947,233.571 312.400,233.890 312.384 C 235.018 312.324,240.800 306.620,240.800 305.567 C 240.800 304.742,239.199 305.278,238.427 306.362 M316.432 308.526 C 316.399 310.915,316.947 312.604,317.620 312.188 C 318.241 311.804,318.034 309.515,317.222 307.800 L 316.465 306.200 316.432 308.526 M231.762 313.644 C 231.343 314.108,230.280 314.829,229.400 315.247 C 228.520 315.665,227.080 316.688,226.200 317.521 C 225.320 318.354,223.925 319.447,223.100 319.951 C 221.572 320.882,221.159 321.600,222.150 321.600 C 223.032 321.600,226.497 319.571,227.776 318.306 C 228.422 317.666,229.436 316.892,230.028 316.586 C 231.158 316.001,233.200 313.802,233.200 313.169 C 233.200 312.547,232.563 312.757,231.762 313.644 M88.428 316.966 C 87.807 317.715,88.029 322.080,88.700 322.302 C 89.071 322.424,89.200 321.681,89.200 319.433 C 89.200 316.208,89.161 316.083,88.428 316.966 M316.400 317.386 C 316.400 317.944,316.475 318.400,316.567 318.400 C 316.659 318.400,317.019 318.509,317.367 318.643 C 318.329 319.012,318.176 317.322,317.200 316.800 C 316.498 316.424,316.400 316.496,316.400 317.386 M216.122 322.657 C 215.344 322.974,216.010 324.000,216.994 324.000 C 217.953 324.000,218.976 323.109,218.530 322.663 C 218.233 322.367,216.846 322.363,216.122 322.657 M94.499 327.857 C 93.259 328.131,92.633 329.364,93.408 330.007 C 94.823 331.181,103.635 329.475,102.421 328.261 C 102.029 327.869,95.870 327.555,94.499 327.857 M189.470 328.263 C 189.025 328.708,190.046 329.600,191.000 329.600 C 191.954 329.600,192.975 328.708,192.530 328.263 C 192.385 328.118,191.697 328.000,191.000 328.000 C 190.303 328.000,189.615 328.118,189.470 328.263 M340.626 338.395 C 342.036 339.821,342.914 340.392,343.700 340.395 C 345.657 340.404,344.462 338.824,341.316 337.245 C 338.679 335.922,338.490 336.236,340.626 338.395 M354.493 340.000 C 354.222 340.434,354.000 341.307,354.000 341.941 C 354.000 343.226,352.650 345.200,351.771 345.200 C 350.966 345.200,351.010 345.335,352.818 348.430 C 355.455 352.946,356.159 352.179,355.755 345.235 C 355.433 339.721,355.220 338.836,354.493 340.000 M294.200 342.508 C 291.549 345.925,288.758 351.655,291.222 348.622 C 291.540 348.230,292.473 347.206,293.295 346.344 C 294.900 344.664,295.731 343.255,296.151 341.500 C 296.534 339.904,296.010 340.174,294.200 342.508 M26.699 345.035 C 26.398 345.335,27.250 346.800,27.724 346.800 C 28.201 346.800,27.883 345.090,27.375 344.923 C 27.141 344.846,26.837 344.896,26.699 345.035 M29.357 349.033 C 29.491 349.381,29.600 349.741,29.600 349.833 C 29.600 349.925,29.872 350.000,30.203 350.000 C 30.707 350.000,30.724 349.867,30.307 349.200 C 29.714 348.251,29.009 348.127,29.357 349.033 M283.606 355.589 C 283.112 356.511,283.662 356.689,284.370 355.836 C 284.673 355.472,284.697 355.184,284.439 355.024 C 284.220 354.889,283.845 355.143,283.606 355.589 M279.036 357.960 C 278.581 358.463,278.494 358.811,278.778 358.986 C 279.430 359.389,280.750 358.841,281.214 357.973 C 281.788 356.901,280.004 356.890,279.036 357.960 M255.917 366.700 C 255.592 367.091,256.077 367.200,258.151 367.200 C 260.229 367.200,260.800 367.072,260.800 366.605 C 260.800 365.851,256.554 365.934,255.917 366.700 M60.600 366.800 C 60.451 367.042,60.956 367.189,61.876 367.172 C 63.093 367.149,63.239 367.075,62.600 366.800 C 61.501 366.328,60.892 366.328,60.600 366.800 " stroke="none" fill="#2c6a96" fill-rule="evenodd"></path></g></svg>