<svg xmlns="http://www.w3.org/2000/svg" xmlns:svg="http://www.w3.org/2000/svg" id="svg16" width="16" height="16" data-name="Layer" version="1.1" viewBox="0 0 0.271 0.766"><metadata id="metadata22"/><g id="g27" transform="matrix(0.03794835,0,0,0.03794835,-0.25011138,-0.00823307)"><path id="path10" fill="#6963ff" d="M 10,13.61 A 5.486,5.486 0 1 1 15.486,8.123 5.492,5.492 0 0 1 10,13.61 Z M 10,3.4 A 4.722,4.722 0 1 0 14.722,8.12 4.727,4.727 0 0 0 10,3.403 Z" class="cls-1"/><path id="path12" fill="#6963ff" d="m 10,17.362 a 9.25,9.25 0 0 1 -9.24,-9.24 1.42,1.42 0 1 1 2.84,0 6.4,6.4 0 0 0 12.8,0 1.42,1.42 0 1 1 2.84,0 9.25,9.25 0 0 1 -9.24,9.24 z" class="cls-1"/><path id="path14" fill="#6963ff" d="m 6.308,8.123 a 3.692,3.692 0 0 0 7.384,0 z" class="cls-1"/></g></svg>