<?xml version="1.0" encoding="UTF-8" standalone="no"?>
<svg
   xmlns:dc="http://purl.org/dc/elements/1.1/"
   xmlns:cc="http://creativecommons.org/ns#"
   xmlns:rdf="http://www.w3.org/1999/02/22-rdf-syntax-ns#"
   xmlns:svg="http://www.w3.org/2000/svg"
   xmlns="http://www.w3.org/2000/svg"
   xmlns:sodipodi="http://sodipodi.sourceforge.net/DTD/sodipodi-0.dtd"
   xmlns:inkscape="http://www.inkscape.org/namespaces/inkscape"
   data-name="Layer"
   width="16"
   viewBox="0 0 0.27118644 0.76555024"
   height="16"
   version="1.1"
   id="svg16"
   sodipodi:docname="lifesize_icon.svg"
   inkscape:version="1.0.1 (c497b03c, 2020-09-10)">
  <metadata
     id="metadata22">
    <rdf:RDF>
      <cc:Work
         rdf:about="">
        <dc:format>image/svg+xml</dc:format>
        <dc:type
           rdf:resource="http://purl.org/dc/dcmitype/StillImage" />
        <dc:title></dc:title>
      </cc:Work>
    </rdf:RDF>
  </metadata>
  <defs
     id="defs20" />
  <sodipodi:namedview
     pagecolor="#ffffff"
     bordercolor="#666666"
     borderopacity="1"
     objecttolerance="10"
     gridtolerance="10"
     guidetolerance="10"
     inkscape:pageopacity="0"
     inkscape:pageshadow="2"
     inkscape:window-width="710"
     inkscape:window-height="480"
     id="namedview18"
     showgrid="false"
     inkscape:zoom="4.7"
     inkscape:cx="29.703627"
     inkscape:cy="19.187972"
     inkscape:window-x="0"
     inkscape:window-y="23"
     inkscape:window-maximized="0"
     inkscape:current-layer="svg16" />
  <g
     id="g27"
     transform="matrix(0.03794835,0,0,0.03794835,-0.25011138,-0.00823307)">
    <path
       fill="#6963ff"
       class="cls-1"
       d="M 10,13.61 A 5.486,5.486 0 1 1 15.486,8.123 5.492,5.492 0 0 1 10,13.61 Z M 10,3.4 A 4.722,4.722 0 1 0 14.722,8.12 4.727,4.727 0 0 0 10,3.403 Z"
       id="path10" />
    <path
       fill="#6963ff"
       class="cls-1"
       d="m 10,17.362 a 9.25,9.25 0 0 1 -9.24,-9.24 1.42,1.42 0 1 1 2.84,0 6.4,6.4 0 0 0 12.8,0 1.42,1.42 0 1 1 2.84,0 9.25,9.25 0 0 1 -9.24,9.24 z"
       id="path12" />
    <path
       fill="#6963ff"
       class="cls-1"
       d="m 6.308,8.123 a 3.692,3.692 0 0 0 7.384,0 z"
       id="path14" />
  </g>
</svg>
