<svg xmlns="http://www.w3.org/2000/svg" xmlns:xlink="http://www.w3.org/1999/xlink" width="36" height="36" viewBox="0 0 36 36"><path id="Path" fill="#1c1c1e" stroke="none" d="M 1 10.199997 C 1 8.800003 2.1 7.800003 3.5 7.800003 L 32.900002 7.800003 C 34.299999 7.800003 35.400002 8.900002 35.400002 10.199997 L 35.400002 10.199997 C 35.400002 11.5 34.299999 12.599998 32.900002 12.599998 L 3.5 12.599998 C 2.1 12.599998 1 11.5 1 10.199997 Z" opacity=".2"/><path id="path1" fill="#fff" stroke="none" d="M 1 10.199997 C 1 8.800003 2.1 7.800003 3.5 7.800003 L 26.299999 7.800003 C 27.700001 7.800003 28.799999 8.900002 28.799999 10.199997 L 28.799999 10.199997 C 28.799999 11.5 27.700001 12.599998 26.400002 12.599998 C 26.400002 12.599998 26.400002 12.599998 26.400002 12.599998 L 3.5 12.599998 C 2.1 12.599998 1 11.5 1 10.199997 Z"/><path id="path2" fill="#1c1c1e" stroke="none" d="M 5.900002 20 C 5.900002 18.599998 7 17.5 8.299999 17.5 C 8.299999 17.5 8.299999 17.5 8.299999 17.5 L 27.900002 17.5 C 29.200001 17.5 30.299999 18.599998 30.299999 19.900002 C 30.299999 19.900002 30.299999 19.900002 30.299999 19.900002 L 30.299999 19.900002 C 30.299999 21.199997 29.200001 22.300003 27.900002 22.300003 L 27.900002 22.300003 L 8.299999 22.300003 C 7 22.400002 5.900002 21.300003 5.900002 20 L 5.900002 20 Z" opacity=".2"/><path id="path3" fill="#fff" stroke="none" d="M 5.900002 20 C 5.900002 18.599998 7 17.5 8.299999 17.5 C 8.299999 17.5 8.299999 17.5 8.299999 17.5 L 21.299999 17.5 C 22.700001 17.5 23.700001 18.599998 23.799999 19.900002 L 23.799999 19.900002 C 23.799999 21.199997 22.700001 22.300003 21.299999 22.300003 L 8.299999 22.300003 C 7 22.400002 5.900002 21.300003 5.900002 20 L 5.900002 20 Z"/><path id="path4" fill="#1c1c1e" stroke="none" d="M 10.799999 29.699997 C 10.799999 28.400002 11.900002 27.300003 13.200001 27.300003 L 13.200001 27.300003 L 23 27.300003 C 24.299999 27.300003 25.400002 28.400002 25.5 29.699997 L 25.5 29.699997 C 25.5 31.099998 24.400002 32.199997 23.099998 32.199997 C 23.099998 32.199997 23.099998 32.199997 23.099998 32.199997 L 13.299999 32.199997 C 11.900002 32.199997 10.799999 31.099998 10.799999 29.699997 Z" opacity=".2"/><path id="path5" fill="#fff" stroke="none" d="M 10.799999 29.699997 C 10.799999 28.400002 11.900002 27.300003 13.200001 27.300003 L 13.200001 27.300003 L 16.5 27.300003 C 17.799999 27.300003 18.900002 28.400002 18.900002 29.699997 L 18.900002 29.699997 L 18.900002 29.699997 C 18.900002 31 17.799999 32.099998 16.5 32.099998 L 13.200001 32.099998 C 11.900002 32.199997 10.799999 31.099998 10.799999 29.699997 Z"/></svg>