<svg xmlns="http://www.w3.org/2000/svg" xmlns:xlink="http://www.w3.org/1999/xlink" width="30" height="33" viewBox="0 0 30 33"><path fill="#C4D600" fill-rule="nonzero" d="M27.422 18.492a4.35 4.35 0 0 0-4.72.168.873.873 0 0 1-.93.045l-4.275-2.44a.103.103 0 0 1 0-.18l4.255-2.427a.873.873 0 0 1 .936.052 4.35 4.35 0 0 0 4.734.187 4.275 4.275 0 0 0 1.564-5.668c-.972-1.77-3.067-2.625-5.02-2.048-1.953.577-3.23 2.428-3.058 4.436a.851.851 0 0 1-.426.815l-4.275 2.44a.106.106 0 0 1-.11.004.103.103 0 0 1-.054-.095V8.896a.854.854 0 0 1 .511-.77 4.244 4.244 0 0 0 2.408-4.78C18.529 1.394 16.778 0 14.754 0s-3.775 1.393-4.208 3.347a4.244 4.244 0 0 0 2.407 4.779.854.854 0 0 1 .511.77v4.885a.103.103 0 0 1-.053.095.106.106 0 0 1-.11-.004l-4.276-2.44a.845.845 0 0 1-.425-.815c.174-1.993-1.08-3.837-3.012-4.432-1.932-.595-4.023.22-5.024 1.96a4.222 4.222 0 0 0 .862 5.27 4.347 4.347 0 0 0 5.393.295.873.873 0 0 1 .936-.052l4.256 2.426a.103.103 0 0 1 0 .182l-4.275 2.439a.873.873 0 0 1-.93-.045 4.35 4.35 0 0 0-4.72-.168 4.275 4.275 0 0 0-1.558 5.661c.973 1.778 3.077 2.635 5.035 2.05 1.958-.585 3.23-2.45 3.043-4.463a.851.851 0 0 1 .426-.822l4.275-2.44a.106.106 0 0 1 .11-.004c.035.019.055.056.054.095v4.885a.854.854 0 0 1-.511.77 4.244 4.244 0 0 0-2.408 4.78c.433 1.953 2.184 3.346 4.208 3.346s3.775-1.393 4.208-3.347a4.244 4.244 0 0 0-2.407-4.779.854.854 0 0 1-.511-.77V18.57a.103.103 0 0 1 .053-.095.106.106 0 0 1 .11.005l4.276 2.439c.292.168.458.49.425.822-.186 2.013 1.086 3.878 3.044 4.463s4.062-.272 5.035-2.05a4.275 4.275 0 0 0-1.571-5.661z"/></svg>