<?xml version="1.0" encoding="utf-8"?>
<!-- Generator: Adobe Illustrator 23.0.1, SVG Export Plug-In . SVG Version: 6.00 Build 0)  -->
<!DOCTYPE svg PUBLIC "-//W3C//DTD SVG 1.1//EN" "http://www.w3.org/Graphics/SVG/1.1/DTD/svg11.dtd" [
	<!ENTITY ns_extend "http://ns.adobe.com/Extensibility/1.0/">
	<!ENTITY ns_ai "http://ns.adobe.com/AdobeIllustrator/10.0/">
	<!ENTITY ns_graphs "http://ns.adobe.com/Graphs/1.0/">
	<!ENTITY ns_vars "http://ns.adobe.com/Variables/1.0/">
	<!ENTITY ns_imrep "http://ns.adobe.com/ImageReplacement/1.0/">
	<!ENTITY ns_sfw "http://ns.adobe.com/SaveForWeb/1.0/">
	<!ENTITY ns_custom "http://ns.adobe.com/GenericCustomNamespace/1.0/">
	<!ENTITY ns_adobe_xpath "http://ns.adobe.com/XPath/1.0/">
]>
<svg version="1.1"
	 id="svg2" xmlns:x="&ns_extend;" xmlns:i="&ns_ai;" xmlns:graph="&ns_graphs;" xmlns:cc="http://creativecommons.org/ns#" xmlns:dc="http://purl.org/dc/elements/1.1/" xmlns:inkscape="http://www.inkscape.org/namespaces/inkscape" xmlns:rdf="http://www.w3.org/1999/02/22-rdf-syntax-ns#" xmlns:sodipodi="http://sodipodi.sourceforge.net/DTD/sodipodi-0.dtd" xmlns:svg="http://www.w3.org/2000/svg"
	 xmlns="http://www.w3.org/2000/svg" xmlns:xlink="http://www.w3.org/1999/xlink" x="0px" y="0px" viewBox="0 0 600 600"
	 style="enable-background:new 0 0 600 600;" xml:space="preserve">
<style type="text/css">
	.st0{fill:url(#rect2996_1_);}
	.st1{fill:#FFFFFF;}
</style>
<metadata  id="metadata8">
	<rdf:RDF>
		<cc:Work  rdf:about="">
			<dc:format>image/svg+xml</dc:format>
			<dc:type  rdf:resource="http://purl.org/dc/dcmitype/StillImage"></dc:type>
			<dc:title></dc:title>
		</cc:Work>
	</rdf:RDF>
	<sfw  xmlns="&ns_sfw;">
		<slices></slices>
		<sliceSourceBounds  bottomLeftOrigin="true" height="600" width="600" x="1" y="1"></sliceSourceBounds>
	</sfw>
</metadata>
<linearGradient id="rect2996_1_" gradientUnits="userSpaceOnUse" x1="-137.5424" y1="785.878" x2="-133.9618" y2="197.7213" gradientTransform="matrix(1 0 0 -1 435.7924 798.4074)">
	<stop  offset="0" style="stop-color:#5DF777"/>
	<stop  offset="1" style="stop-color:#0ABC28"/>
</linearGradient>
<path id="rect2996" inkscape:connector-curvature="0" class="st0" d="M137.7,0h324.6C538.6,0,600,61.4,600,137.7v324.6
	c0,76.3-61.4,137.7-137.7,137.7H137.7C61.4,600,0,538.6,0,462.3V137.7C0,61.4,61.4,0,137.7,0z"/>
<path class="st1" d="M91.5,227.3v146.1c0,31.9,25.9,57.7,57.7,57.7h175.8c31.9,0,57.7-25.9,57.7-57.7V227.3
	c0-31.9-25.9-57.7-57.7-57.7H149.3C117.4,169.5,91.5,195.4,91.5,227.3z"/>
<path class="st1" d="M470.8,188.2l-66.2,54.6c-5.9,4.9-9.3,12.1-9.3,19.7v75.6c0,7.6,3.3,14.7,9.1,19.6l66.2,55.6
	c15.1,12.6,38,1.9,38-17.7V206C508.7,186.5,485.9,175.7,470.8,188.2z"/>
</svg>
