<svg xmlns="http://www.w3.org/2000/svg" xmlns:svg="http://www.w3.org/2000/svg" xmlns:xlink="http://www.w3.org/1999/xlink" id="svg2" x="0" y="0" version="1.1" viewBox="0 0 600 600" xml:space="preserve" style="enable-background:new 0 0 600 600"><style type="text/css">.st0{fill:url(#rect2996_1_)}.st1{fill:#fff}</style><metadata id="metadata8"><sfw xmlns="http://ns.adobe.com/SaveForWeb/1.0/"><slices/><sliceSourceBounds width="600" height="600" x="1" y="1" bottomLeftOrigin="true"/></sfw></metadata><linearGradient id="rect2996_1_" x1="-137.542" x2="-133.962" y1="785.878" y2="197.721" gradientTransform="matrix(1 0 0 -1 435.7924 798.4074)" gradientUnits="userSpaceOnUse"><stop offset="0" style="stop-color:#5df777"/><stop offset="1" style="stop-color:#0abc28"/></linearGradient><path id="rect2996" d="M137.7,0h324.6C538.6,0,600,61.4,600,137.7v324.6	c0,76.3-61.4,137.7-137.7,137.7H137.7C61.4,600,0,538.6,0,462.3V137.7C0,61.4,61.4,0,137.7,0z" class="st0"/><path d="M91.5,227.3v146.1c0,31.9,25.9,57.7,57.7,57.7h175.8c31.9,0,57.7-25.9,57.7-57.7V227.3	c0-31.9-25.9-57.7-57.7-57.7H149.3C117.4,169.5,91.5,195.4,91.5,227.3z" class="st1"/><path d="M470.8,188.2l-66.2,54.6c-5.9,4.9-9.3,12.1-9.3,19.7v75.6c0,7.6,3.3,14.7,9.1,19.6l66.2,55.6	c15.1,12.6,38,1.9,38-17.7V206C508.7,186.5,485.9,175.7,470.8,188.2z" class="st1"/></svg>