<svg xmlns="http://www.w3.org/2000/svg" width="349.333" height="349.333" preserveAspectRatio="xMidYMid meet" version="1.0" viewBox="0 0 262 262"><g fill="#000" stroke="none"><path d="M0 1315 l0 -1305 1305 0 1305 0 0 1305 0 1305 -1305 0 -1305 0 0 -1305z m888 293 c17 -90 34 -185 38 -211 3 -27 10 -45 14 -40 4 4 42 99 85 211 56 145 82 202 94 202 21 0 193 -51 205 -61 4 -4 -21 -72 -57 -151 -36 -78 -97 -213 -136 -298 l-70 -155 -108 -42 c-121 -47 -139 -50 -146 -25 -105 371 -177 637 -177 657 0 17 16 24 93 47 145 41 130 54 165 -134z m685 105 c-7 -103 -3 -98 -98 -118 -47 -10 -88 -15 -91 -13 -2 3 -1 37 2 76 l7 70 76 20 c113 30 108 31 104 -35z m-1065 -209 c104 -54 145 -168 107 -300 -13 -47 -27 -69 -68 -109 -59 -57 -105 -75 -193 -75 -78 0 -121 13 -167 51 -59 49 -81 101 -82 189 0 65 4 82 29 128 33 59 93 109 143 118 20 4 33 12 33 21 0 27 129 12 198 -23z m1042 9 c0 -38 -30 -393 -35 -419 -4 -16 -24 -27 -89 -50 -47 -15 -87 -26 -90 -23 -5 5 34 470 40 478 2 2 137 35 167 40 4 0 7 -11 7 -26z m440 8 c49 -18 49 -20 34 -110 -5 -32 -7 -33 -37 -25 -18 4 -58 8 -89 9 -46 0 -61 -4 -82 -24 -58 -55 -55 -166 6 -197 31 -16 101 -15 156 1 21 7 22 5 22 -58 0 -82 -9 -89 -128 -95 -102 -6 -155 12 -207 70 -49 54 -65 95 -65 170 0 124 81 233 200 269 45 13 144 8 190 -10z m412 4 c43 -18 92 -72 108 -119 33 -100 -76 -196 -222 -196 -60 0 -60 0 -46 -22 8 -13 33 -29 56 -37 38 -14 45 -13 116 11 l76 26 0 -60 0 -59 -47 -21 c-57 -25 -162 -34 -219 -19 -51 14 -118 71 -146 125 -59 113 1 293 117 353 67 35 149 43 207 18z" transform="translate(0.000000,262.000000) scale(0.100000,-0.100000)"/><path d="M315 1384 c-52 -56 -54 -167 -4 -220 25 -27 73 -32 101 -10 42 31 62 144 36 201 -13 29 -55 55 -88 55 -12 0 -32 -11 -45 -26z" transform="translate(0.000000,262.000000) scale(0.100000,-0.100000)"/><path d="M2281 1404 c-20 -15 -57 -81 -49 -89 8 -7 127 37 139 51 11 14 10 19 -10 35 -29 23 -49 24 -80 3z" transform="translate(0.000000,262.000000) scale(0.100000,-0.100000)"/></g></svg>