<svg xmlns="http://www.w3.org/2000/svg" xmlns:svg="http://www.w3.org/2000/svg" id="Layer_1" width="512" height="512" version="1.1" viewBox="0 0 512 512" xml:space="preserve" style="enable-background:new 0 0 512 512"><g id="g2989"><rect id="rect2989" width="512" height="512" x="-512" y="-512" rx="70" ry="70" transform="scale(-1,-1)" style="fill:#4bf;fill-opacity:1;stroke:none"/><path id="Oval-1" d="m 134.3047,191.16399 c 9.77133,11.98314 47.07786,156.67763 59.5309,183.36948 10.86917,23.40789 40.85102,54.35391 73.72981,32.25434 32.85979,-22.10038 142.13251,-118.86242 161.69293,-233.13174 19.5433,-114.233228 -131.49648,-90.303662 -147.49526,9.22083 39.98695,-24.89958 61.33078,10.11706 40.86876,49.76289 -20.42513,39.60767 -39.08805,65.4402 -48.86065,65.4402 -9.7536,0 -17.25738,-26.50545 -28.43284,-72.83248 C 233.78566,177.35211 233.85676,91.079315 185.82598,100.86032 140.53011,110.08115 81,183.81066 81,183.81066 l 14.21666,19.33647 c 0,0 29.31606,-23.96789 39.08804,-11.98314 z" style="fill:#fff"/></g></svg>