<svg id="svg" version="1.1" xmlns="http://www.w3.org/2000/svg" xmlns:xlink="http://www.w3.org/1999/xlink" width="400" height="400" viewBox="0, 0, 400,400"><g id="svgg"><path id="path0" d="M120.488 87.121 C 101.962 88.646,91.184 97.997,87.631 115.625 C 86.823 119.636,86.314 306.031,87.103 308.962 C 87.346 309.863,88.067 310.964,88.886 311.683 L 90.262 312.891 114.317 312.891 L 138.373 312.891 139.890 311.374 L 141.406 309.858 141.406 226.205 C 141.406 134.135,141.225 140.657,143.824 139.073 C 145.532 138.031,253.180 137.804,255.651 138.836 C 258.305 139.945,258.203 138.719,258.203 169.551 L 258.203 197.344 256.875 198.672 L 255.547 200.000 229.629 200.006 C 201.329 200.012,202.510 199.916,200.855 202.349 L 199.929 203.711 200.119 219.727 C 200.439 246.843,198.963 242.917,223.023 280.664 C 241.712 309.987,242.014 310.413,245.171 311.957 L 247.187 312.944 271.921 312.905 C 296.644 312.867,296.655 312.866,297.546 312.029 C 299.494 310.200,299.679 310.554,281.250 280.780 C 269.779 262.247,264.063 252.663,264.063 251.964 C 264.063 250.229,265.315 249.496,278.125 243.731 C 292.967 237.051,294.460 236.313,297.461 234.176 C 306.233 227.929,311.878 217.683,312.808 206.320 C 313.454 198.435,312.701 116.427,311.954 113.281 C 308.151 97.265,297.393 88.602,279.462 87.117 C 274.016 86.666,125.972 86.670,120.488 87.121 " stroke="none" fill="#0484bc" fill-rule="evenodd"></path><path id="path1" d="M76.953 0.635 C 37.300 5.994,5.757 37.733,0.599 77.461 C -0.308 84.445,-0.308 315.555,0.599 322.539 C 5.787 362.498,37.502 394.213,77.461 399.401 C 84.445 400.308,315.555 400.308,322.539 399.401 C 362.498 394.213,394.213 362.498,399.401 322.539 C 400.308 315.555,400.308 84.445,399.401 77.461 C 394.213 37.502,362.498 5.787,322.539 0.599 C 315.859 -0.269,83.384 -0.234,76.953 0.635 M321.484 35.292 C 344.229 40.717,359.555 55.987,364.522 78.172 L 365.430 82.227 365.430 200.000 C 365.430 312.228,365.396 317.930,364.722 321.094 C 359.937 343.533,344.141 359.526,321.828 364.522 L 317.773 365.430 200.000 365.430 C 87.772 365.430,82.070 365.396,78.906 364.722 C 56.467 359.937,40.474 344.141,35.478 321.828 L 34.570 317.773 34.570 200.000 C 34.570 68.133,34.299 80.657,37.351 71.484 C 43.946 51.659,62.398 36.831,83.203 34.638 C 89.091 34.018,318.784 34.648,321.484 35.292 " stroke="none" fill="#fc7c04" fill-rule="evenodd"></path><path id="path2" d="M83.307 34.775 C 62.035 37.037,43.606 52.048,37.147 72.374 C 34.351 81.173,34.570 70.286,34.570 200.391 L 34.570 317.383 35.452 321.363 C 40.515 344.225,57.103 360.454,79.795 364.748 C 83.173 365.387,90.725 365.430,200.391 365.430 L 317.383 365.430 321.363 364.548 C 344.225 359.485,360.454 342.897,364.748 320.205 C 365.387 316.827,365.430 309.275,365.430 199.609 L 365.430 82.617 364.548 78.637 C 359.520 55.932,343.342 39.969,320.603 35.274 C 317.132 34.557,89.847 34.079,83.307 34.775 M282.630 87.136 C 299.986 89.550,310.108 99.488,312.695 116.652 C 313.739 123.576,313.549 205.392,312.477 210.681 C 309.241 226.649,303.235 232.690,280.314 243.031 C 272.772 246.434,266.162 249.543,265.625 249.940 C 263.411 251.579,263.090 250.955,281.167 280.154 C 301.705 313.330,299.931 309.895,297.686 312.139 L 296.544 313.281 271.967 313.281 L 247.390 313.281 244.978 312.076 C 241.650 310.413,242.184 311.167,222.977 281.055 C 201.860 247.951,201.910 248.046,200.603 238.673 C 199.568 231.252,199.727 203.187,200.812 201.808 C 202.273 199.950,201.848 199.978,228.715 199.994 C 256.481 200.011,255.815 200.060,257.236 197.892 C 258.144 196.507,258.135 141.871,257.227 140.485 C 256.002 138.616,257.777 138.672,199.597 138.672 L 144.544 138.672 143.268 139.812 L 141.992 140.951 141.797 225.278 C 141.611 305.713,141.569 309.654,140.897 310.680 C 139.121 313.390,140.266 313.278,114.336 313.280 C 89.046 313.281,89.962 313.356,87.891 311.138 L 86.914 310.093 86.914 213.933 C 86.914 109.430,86.779 115.919,89.092 109.059 C 93.099 97.170,102.479 89.626,116.091 87.343 C 120.273 86.641,277.668 86.446,282.630 87.136 " stroke="none" fill="#fbfbfb" fill-rule="evenodd"></path><path id="path3" d="M121.973 86.988 C 122.349 87.086,122.964 87.086,123.340 86.988 C 123.716 86.890,123.408 86.809,122.656 86.809 C 121.904 86.809,121.597 86.890,121.973 86.988 M277.051 86.988 C 277.427 87.086,278.042 87.086,278.418 86.988 C 278.794 86.890,278.486 86.809,277.734 86.809 C 276.982 86.809,276.675 86.890,277.051 86.988 M301.953 95.435 C 301.953 95.502,302.524 96.073,303.223 96.704 L 304.492 97.852 303.345 96.582 C 302.275 95.399,301.953 95.133,301.953 95.435 M86.817 122.852 C 86.822 123.711,86.902 124.017,86.995 123.531 C 87.088 123.045,87.085 122.342,86.987 121.968 C 86.889 121.595,86.813 121.992,86.817 122.852 M313.079 161.328 C 313.079 183.135,313.126 192.056,313.184 181.152 C 313.241 170.249,313.241 152.407,313.184 141.504 C 313.126 130.601,313.079 139.521,313.079 161.328 M141.598 225.391 C 141.598 271.260,141.644 290.024,141.699 267.090 C 141.755 244.155,141.755 206.626,141.699 183.691 C 141.644 160.757,141.598 179.521,141.598 225.391 M302.134 230.176 L 300.195 232.227 302.246 230.288 C 304.152 228.487,304.476 228.125,304.185 228.125 C 304.123 228.125,303.200 229.048,302.134 230.176 M102.860 313.183 C 109.267 313.244,119.638 313.244,125.907 313.183 C 132.176 313.123,126.934 313.074,114.258 313.074 C 101.582 313.074,96.453 313.123,102.860 313.183 M261.816 313.183 C 267.993 313.244,278.101 313.244,284.277 313.183 C 290.454 313.123,285.400 313.073,273.047 313.073 C 260.693 313.073,255.640 313.123,261.816 313.183 " stroke="none" fill="#2d98c6" fill-rule="evenodd"></path><path id="path4" d="M50.171 50.488 L 49.023 51.758 50.293 50.611 C 50.991 49.979,51.563 49.408,51.563 49.341 C 51.563 49.039,51.240 49.305,50.171 50.488 M348.438 49.341 C 348.438 49.408,349.009 49.979,349.707 50.611 L 350.977 51.758 349.829 50.488 C 348.760 49.305,348.438 49.039,348.438 49.341 M119.629 86.988 C 120.005 87.086,120.620 87.086,120.996 86.988 C 121.372 86.890,121.064 86.809,120.313 86.809 C 119.561 86.809,119.253 86.890,119.629 86.988 M96.463 96.777 L 95.117 98.242 96.582 96.896 C 97.945 95.643,98.226 95.313,97.928 95.313 C 97.863 95.313,97.204 95.972,96.463 96.777 M86.809 120.313 C 86.809 121.064,86.890 121.372,86.988 120.996 C 87.086 120.620,87.086 120.005,86.988 119.629 C 86.890 119.253,86.809 119.561,86.809 120.313 M312.981 120.703 C 312.981 121.455,313.062 121.763,313.160 121.387 C 313.258 121.011,313.258 120.396,313.160 120.020 C 313.062 119.644,312.981 119.951,312.981 120.703 M172.589 138.574 C 187.699 138.631,212.308 138.631,227.277 138.574 C 242.245 138.518,229.883 138.471,199.805 138.471 C 169.727 138.471,157.480 138.518,172.589 138.574 M257.997 169.141 C 257.997 183.428,258.046 189.272,258.105 182.129 C 258.165 174.985,258.165 163.296,258.105 156.152 C 258.046 149.009,257.997 154.854,257.997 169.141 M240.625 308.716 C 240.625 308.783,241.196 309.354,241.895 309.986 L 243.164 311.133 242.017 309.863 C 240.947 308.680,240.625 308.414,240.625 308.716 M298.528 309.766 C 298.528 310.518,298.609 310.825,298.707 310.449 C 298.805 310.073,298.805 309.458,298.707 309.082 C 298.609 308.706,298.528 309.014,298.528 309.766 M49.219 348.560 C 49.219 348.627,49.790 349.198,50.488 349.829 L 51.758 350.977 50.611 349.707 C 49.541 348.524,49.219 348.258,49.219 348.560 M349.389 349.707 L 348.242 350.977 349.512 349.829 C 350.210 349.198,350.781 348.627,350.781 348.560 C 350.781 348.258,350.459 348.524,349.389 349.707 " stroke="none" fill="#8ac7de" fill-rule="evenodd"></path></g></svg>