<svg width="207" height="197" viewBox="0 0 207 197" fill="none" xmlns="http://www.w3.org/2000/svg">
<g filter="url(#filter0_d_89_1493)">
<rect x="22.5547" y="7" width="162.446" height="162.446" rx="15.0413" fill="black"/>
</g>
<path d="M85.7888 56.7294C82.4106 56.3351 79.3289 57.2198 76.7083 58.7501C71.7516 61.6447 68.0311 67.0711 65.3266 72.3227C62.5213 77.7699 60.3423 83.9611 58.8602 89.4679C58.0254 92.5698 59.7984 95.8335 62.9166 96.7194C66.0576 97.6117 69.2524 95.7214 70.0926 92.5994C71.4187 87.6722 73.3266 82.3163 75.6487 77.8072C78.0725 73.1009 80.52 70.1629 82.5331 68.9874C83.3951 68.484 83.9993 68.4053 84.4804 68.4614C84.9948 68.5214 85.9589 68.8082 87.3851 70.0438C90.428 72.6802 94.4514 78.6598 98.9733 90.3842C103.674 102.573 108.502 110.802 113.704 115.388C116.396 117.762 119.422 119.365 122.746 119.768C126.116 120.177 129.18 119.276 131.764 117.726C136.63 114.808 140.222 109.353 142.805 104.122C145.492 98.6813 147.559 92.4989 148.952 87.002C149.742 83.8882 147.921 80.6504 144.789 79.8118C141.635 78.9673 138.47 80.9064 137.676 84.0397C136.427 88.9651 134.615 94.3153 132.393 98.8158C130.066 103.527 127.719 106.421 125.823 107.558C125.029 108.034 124.505 108.091 124.105 108.042C123.661 107.988 122.74 107.723 121.333 106.482C118.332 103.836 114.342 97.8379 109.815 86.1005C105.109 73.8989 100.231 65.657 94.9369 61.0705C92.1962 58.696 89.1328 57.1197 85.7888 56.7294Z" fill="white"/>
<defs>
<filter id="filter0_d_89_1493" x="0.602516" y="-9.46413" width="206.35" height="206.35" filterUnits="userSpaceOnUse" color-interpolation-filters="sRGB">
<feFlood flood-opacity="0" result="BackgroundImageFix"/>
<feColorMatrix in="SourceAlpha" type="matrix" values="0 0 0 0 0 0 0 0 0 0 0 0 0 0 0 0 0 0 127 0" result="hardAlpha"/>
<feOffset dy="5.48804"/>
<feGaussianBlur stdDeviation="10.9761"/>
<feComposite in2="hardAlpha" operator="out"/>
<feColorMatrix type="matrix" values="0 0 0 0 0 0 0 0 0 0 0 0 0 0 0 0 0 0 0.1 0"/>
<feBlend mode="normal" in2="BackgroundImageFix" result="effect1_dropShadow_89_1493"/>
<feBlend mode="normal" in="SourceGraphic" in2="effect1_dropShadow_89_1493" result="shape"/>
</filter>
</defs>
</svg>
