<svg width="50" height="50" viewBox="0 0 50 50" fill="none" xmlns="http://www.w3.org/2000/svg">
<path fill-rule="evenodd" clip-rule="evenodd" d="M24.8473 17.4541C28.6809 17.4541 32.224 20.0651 32.5957 24.9157C32.8213 29.3565 29.438 33.1313 24.7079 33.1313C20.8744 33.1313 17.3313 30.5203 16.9595 25.6697C16.7339 21.2288 20.1172 17.4541 24.8473 17.4541ZM24.7544 29.6537C22.6401 29.6537 20.8047 28.2695 20.6304 25.5572C20.5006 23.1284 22.1655 21.0442 24.8009 21.0442C26.9151 21.0442 28.7622 22.4285 28.9248 25.1408C29.055 27.5658 27.3856 29.6537 24.7544 29.6537Z" fill="#2F4665"/>
<path fill-rule="evenodd" clip-rule="evenodd" d="M33.3159 29.976C34.0899 28.4755 34.4455 26.7372 34.3587 24.8393V24.792C34.2124 22.7992 33.6143 21.0269 32.609 19.5718C32.735 18.9665 33.1398 18.5472 33.7512 18.4781C35.0414 18.3323 36.3508 18.247 37.6497 18.253C40.0323 18.2641 42.7874 19.6594 43.2887 23.1395C43.8237 26.8538 40.9942 28.5937 39.0475 28.8029C38.3639 28.8774 37.8207 28.8933 37.1528 28.7832C37.0999 30.2909 36.4127 31.737 34.7158 31.7805C33.7554 31.8049 33.1794 31.2346 33.2783 30.3395C33.2916 30.2184 33.3042 30.0972 33.3159 29.976ZM38.5223 25.6748C38.1282 25.71 37.7674 25.6942 37.3475 25.6366C37.2548 25.6239 37.1631 25.553 37.1569 25.4594C37.0794 24.3004 36.9435 23.1314 36.7154 21.9877C36.6908 21.8643 36.722 21.7942 36.907 21.7665C37.4553 21.6844 38.0564 21.624 38.6092 21.7144C39.2789 21.8239 39.8468 22.237 39.9992 23.5426C40.1952 25.2222 39.4149 25.595 38.5223 25.6748Z" fill="#2F4665"/>
<path fill-rule="evenodd" clip-rule="evenodd" d="M16.2855 20.8617C15.5927 22.3076 15.2773 23.9637 15.3596 25.7632V25.8106C15.4303 26.773 15.6063 27.6839 15.8827 28.5325C15.1032 29.5411 14.0331 30.0026 12.9728 30.0206C12.2871 30.0323 11.6267 29.9967 11.0444 29.8727C11.1025 30.2368 11.1722 30.6123 11.2419 30.9764C11.4742 32.1826 11.0444 33.1611 9.87108 33.1611C8.82953 33.1611 8.00745 32.6912 7.48964 31.0674C6.53898 28.0863 6.38823 25.0709 7.02497 22.1125C7.24912 21.071 8.07048 20.1794 9.03467 20.0188C10.3707 19.7963 11.724 19.6573 13.0773 19.575C14.4944 19.4889 15.6008 19.8796 16.2855 20.8617ZM10.7499 26.8574C11.1797 26.9256 11.6831 26.9452 12.0783 26.9256C12.996 26.8801 13.7046 26.5274 13.693 24.8206C13.7278 23.1479 13.0192 22.909 12.0783 22.9886C11.8924 23.0057 11.6797 23.0228 11.467 23.0398C11.2544 23.0569 11.0417 23.074 10.8558 23.091C10.6943 23.1059 10.6429 23.173 10.6119 23.3072C10.3509 24.4337 10.3509 25.5488 10.5524 26.6753C10.5714 26.7816 10.6575 26.8427 10.7499 26.8574Z" fill="#2F4665"/>
<path fill-rule="evenodd" clip-rule="evenodd" d="M35.2112 36.9213C34.3421 35.6119 33.3199 34.2652 31.8452 35.3418C30.4237 36.3796 31.1706 37.6005 32.1056 39.0091C33.0406 40.4176 33.9969 41.6651 35.4716 40.5885C36.8882 39.5543 36.0804 38.2307 35.2112 36.9213Z" fill="#73ADFF"/>
<path fill-rule="evenodd" clip-rule="evenodd" d="M26.7335 40.2515C26.8525 37.9754 26.6529 37.0234 24.8378 36.9058C23.0228 36.7883 22.8615 37.9588 22.7786 39.9388C22.6958 41.9187 22.8275 43.2524 24.6467 43.3374C26.466 43.4224 26.6145 42.5276 26.7335 40.2515Z" fill="#73ADFF"/>
<path fill-rule="evenodd" clip-rule="evenodd" d="M17.1325 39.2912C18.3196 37.9754 18.9476 36.9466 17.7843 35.8359C16.6211 34.7251 15.6433 35.4561 14.4252 36.8062C13.2072 38.1563 12.5761 39.1355 13.7754 40.2634C14.9748 41.3914 15.9453 40.607 17.1325 39.2912Z" fill="#73ADFF"/>
<path fill-rule="evenodd" clip-rule="evenodd" d="M31.1934 14.8715C32.5478 15.7871 33.3939 14.973 34.564 13.1184C35.7341 11.2639 36.2033 10.2575 34.8148 9.30731C33.4262 8.35716 32.5737 9.38871 31.4395 11.0555C30.3053 12.7223 29.839 13.9559 31.1934 14.8715Z" fill="#73ADFF"/>
<path fill-rule="evenodd" clip-rule="evenodd" d="M13.7868 10.3484C12.4092 11.3217 12.9432 12.2986 13.9181 13.8673C14.893 15.4359 15.8064 16.21 17.1335 15.2723C18.4607 14.3345 18.0092 13.265 17.0023 11.7534C15.9953 10.2417 15.1644 9.37504 13.7868 10.3484Z" fill="#73ADFF"/>
<path fill-rule="evenodd" clip-rule="evenodd" d="M24.4963 14.1979C26.5778 14.145 26.482 12.5467 26.4003 10.2575C26.3187 7.96821 26.1627 6.4277 24.0913 6.48031C22.0199 6.53292 22.0625 8.13809 22.204 10.4236C22.3455 12.7092 22.4149 14.2508 24.4963 14.1979Z" fill="#73ADFF"/>
</svg>
