<?xml version="1.0" encoding="utf-8"?>
<!-- Generator: Adobe Illustrator 23.0.3, SVG Export Plug-In . SVG Version: 6.00 Build 0)  -->
<svg version="1.1" id="Zoho_Cliq_Logo" xmlns="http://www.w3.org/2000/svg" xmlns:xlink="http://www.w3.org/1999/xlink" x="0px"
	 y="0px" viewBox="0 0 1024 1024" style="enable-background:new 0 0 1024 1024;" xml:space="preserve">
<style type="text/css">
	.st0{fill:#226DB4;}
	.st1{fill:#EB3A38;}
</style>
<g id="logo">
	<path id="Blue_path" class="st0" d="M472.9,1006.6c-5.5,0-11.1-1.5-16.1-4.7c-14-8.9-18-27.5-9.1-41.4l139-217.1
		c5.5-8.6,15-13.8,25.3-13.8h302c27.6,0,50-22.4,50-50V127.4c0-27.6-22.4-50-50-50H597.9c-16.6,0-30-13.4-30-30s13.4-30,30-30H914
		c60.7,0,110,49.3,110,110v552.1c0,60.7-49.3,110-110,110H628.3L498.2,992.8C492.5,1001.7,482.8,1006.6,472.9,1006.6z M334.1,789.5
		H110c-60.7,0-110-49.3-110-110V127.4c0-60.7,49.3-110,110-110h284.1c16.6,0,30,13.4,30,30s-13.4,30-30,30H110
		c-27.6,0-50,22.4-50,50v552.1c0,27.6,22.4,50,50,50h224.1c16.6,0,30,13.4,30,30S350.7,789.5,334.1,789.5z"/>
	<path id="Red_dot" class="st1" d="M291.9,349.6c30.376,0,55,24.624,55,55s-24.624,55-55,55s-55-24.624-55-55
		S261.524,349.6,291.9,349.6z M457.624,395.79c4.866-29.984,33.118-50.346,63.102-45.48c29.984,4.866,50.346,33.118,45.479,63.102
		c-4.866,29.984-33.118,50.346-63.102,45.48S452.757,425.774,457.624,395.79z M731.9,349.6c30.376,0,55,24.624,55,55
		s-24.624,55-55,55s-55-24.624-55-55S701.524,349.6,731.9,349.6z"/>
</g>
</svg>
