<svg xmlns="http://www.w3.org/2000/svg" xmlns:vectornator="http://vectornator.io" xmlns:xlink="http://www.w3.org/1999/xlink" style="fill-rule:evenodd;clip-rule:evenodd;stroke-linecap:round;stroke-linejoin:round" version="1.1" viewBox="0 0 56 56" xml:space="preserve"><metadata><vectornator:setting key="DynamicGuides" value="1"/><vectornator:setting key="Units" value="Points"/><vectornator:setting key="GuidesVisible" value="1"/><vectornator:setting key="RulersVisible" value="1"/><vectornator:setting key="SnapToGuides" value="1"/><vectornator:setting key="GridSpacing" value="36"/></metadata><g id="Untitled" vectornator:layerName="Untitled"><path fill="#fff" d="M13.0937+47.8398C14.0313+47.8398+14.8281+47.4648+15.7656+46.9258L43.0937+31.1289C45.0391+29.9805+45.7187+29.2305+45.7187+27.9883C45.7187+26.7461+45.0391+25.9961+43.0937+24.8711L15.7656+9.0508C14.8281+8.5118+14.0313+8.1602+13.0937+8.1602C11.3594+8.1602+10.2813+9.4727+10.2813+11.5118L10.2813+44.4649C10.2813+46.5039+11.3594+47.8398+13.0937+47.8398ZM14.2891+43.3633C14.1484+43.3633+14.0547+43.2695+14.0547+43.082L14.0547+12.8945C14.0547+12.707+14.1484+12.6133+14.2891+12.6133C14.3828+12.6133+14.4766+12.6602+14.5703+12.7305L40.5156+27.7305C40.6328+27.8008+40.7266+27.8711+40.7266+27.9883C40.7266+28.1055+40.6328+28.1992+40.5156+28.2461L14.5703+43.2695C14.4766+43.3164+14.3828+43.3633+14.2891+43.3633Z" opacity="1"/></g></svg>