<svg xmlns="http://www.w3.org/2000/svg" width="56" height="56" viewBox="0 0 56 56"><path d="M 13.0937 47.8398 C 14.0313 47.8398 14.8281 47.4648 15.7656 46.9258 L 43.0937 31.1289 C 45.0391 29.9805 45.7187 29.2305 45.7187 27.9883 C 45.7187 26.7461 45.0391 25.9961 43.0937 24.8711 L 15.7656 9.0508 C 14.8281 8.5118 14.0313 8.1602 13.0937 8.1602 C 11.3594 8.1602 10.2813 9.4727 10.2813 11.5118 L 10.2813 44.4649 C 10.2813 46.5039 11.3594 47.8398 13.0937 47.8398 Z M 14.2891 43.3633 C 14.1484 43.3633 14.0547 43.2695 14.0547 43.0820 L 14.0547 12.8945 C 14.0547 12.7070 14.1484 12.6133 14.2891 12.6133 C 14.3828 12.6133 14.4766 12.6602 14.5703 12.7305 L 40.5156 27.7305 C 40.6328 27.8008 40.7266 27.8711 40.7266 27.9883 C 40.7266 28.1055 40.6328 28.1992 40.5156 28.2461 L 14.5703 43.2695 C 14.4766 43.3164 14.3828 43.3633 14.2891 43.3633 Z"/></svg>