<svg id="Layer_1" data-name="Layer 1" xmlns="http://www.w3.org/2000/svg" viewBox="0 0 116.91 130"><defs><style>.cls-1{fill:#7657ff;}</style></defs><title>vowel-mark-color</title><path class="cls-1" d="M206.29,85H178.47a2.2,2.2,0,0,0-1.91,1.11l-24.79,51.33c-1,1.91-2.54,1.91-3.5,0L123.49,86.11A2.2,2.2,0,0,0,121.58,85h-28a2,2,0,0,0-1.75,3l43.55,83.91c2.86,5.4,8.12,9.38,14.62,9.22s11.44-3.81,14.3-9.22L208.19,88A2.05,2.05,0,0,0,206.29,85Zm-2.86,130H96.63a5,5,0,0,1-5.09-4.93V194.82a5,5,0,0,1,5.09-4.93h106.8a5,5,0,0,1,4.93,4.93v15.26A5,5,0,0,1,203.43,215Z" transform="translate(-91.54 -85)"/></svg>